solid OpenSCAD_Model
  facet normal -1 0 0
    outer loop
      vertex -15 -37.5 -1
      vertex -15 -15 1
      vertex -15 -15 -1
    endloop
  endfacet
  facet normal -1 -0 0
    outer loop
      vertex -15 -15 1
      vertex -15 -37.5 -1
      vertex -15 -37.5 1
    endloop
  endfacet
  facet normal -1 0 0
    outer loop
      vertex -15 15 -1
      vertex -15 37.5 1
      vertex -15 37.5 -1
    endloop
  endfacet
  facet normal -1 -0 0
    outer loop
      vertex -15 37.5 1
      vertex -15 15 -1
      vertex -15 15 1
    endloop
  endfacet
  facet normal -0 0 1
    outer loop
      vertex -30.8029 -8.05294 1
      vertex -15 -15 1
      vertex -30.8029 8.05294 1
    endloop
  endfacet
  facet normal 0 0 1
    outer loop
      vertex -15 -15 1
      vertex -30.8029 -8.05294 1
      vertex -30.1 -9.75 1
    endloop
  endfacet
  facet normal -0 0 1
    outer loop
      vertex -32.5 7.35 1
      vertex -30.8029 -8.05294 1
      vertex -30.8029 8.05294 1
    endloop
  endfacet
  facet normal 0 0 1
    outer loop
      vertex -32.5 7.35 1
      vertex -32.5 -7.35 1
      vertex -30.8029 -8.05294 1
    endloop
  endfacet
  facet normal 0 0 1
    outer loop
      vertex -34.1971 8.05294 1
      vertex -32.5 -7.35 1
      vertex -32.5 7.35 1
    endloop
  endfacet
  facet normal 0 0 1
    outer loop
      vertex -34.1971 8.05294 1
      vertex -34.1971 -8.05294 1
      vertex -32.5 -7.35 1
    endloop
  endfacet
  facet normal 0 0 1
    outer loop
      vertex -34.9 9.75 1
      vertex -34.1971 -8.05294 1
      vertex -34.1971 8.05294 1
    endloop
  endfacet
  facet normal 0 0 1
    outer loop
      vertex -34.1971 -8.05294 1
      vertex -34.9 9.75 1
      vertex -34.9 -9.75 1
    endloop
  endfacet
  facet normal 0 0 1
    outer loop
      vertex -30.8029 8.05294 1
      vertex -15 15 1
      vertex -30.1 9.75 1
    endloop
  endfacet
  facet normal 0 0 1
    outer loop
      vertex -15 15 1
      vertex -30.8029 11.4471 1
      vertex -30.1 9.75 1
    endloop
  endfacet
  facet normal 0 0 1
    outer loop
      vertex -15 15 1
      vertex -32.5 12.15 1
      vertex -30.8029 11.4471 1
    endloop
  endfacet
  facet normal 0 0 1
    outer loop
      vertex -34.9 9.75 1
      vertex -37.5 15 1
      vertex -34.9 -9.75 1
    endloop
  endfacet
  facet normal 0 0 1
    outer loop
      vertex -34.1971 11.4471 1
      vertex -37.5 15 1
      vertex -34.9 9.75 1
    endloop
  endfacet
  facet normal 0 0 1
    outer loop
      vertex -32.5 12.15 1
      vertex -37.5 15 1
      vertex -34.1971 11.4471 1
    endloop
  endfacet
  facet normal -0 0 1
    outer loop
      vertex -37.5 15 1
      vertex -32.5 12.15 1
      vertex -15 15 1
    endloop
  endfacet
  facet normal 0 0 1
    outer loop
      vertex -15 15 1
      vertex -30.8029 8.05294 1
      vertex -15 -15 1
    endloop
  endfacet
  facet normal -0 0 1
    outer loop
      vertex -30.8029 -11.4471 1
      vertex -15 -15 1
      vertex -30.1 -9.75 1
    endloop
  endfacet
  facet normal -0 0 1
    outer loop
      vertex -32.5 -12.15 1
      vertex -15 -15 1
      vertex -30.8029 -11.4471 1
    endloop
  endfacet
  facet normal 0 0 1
    outer loop
      vertex -32.5 -12.15 1
      vertex -37.5 -15 1
      vertex -15 -15 1
    endloop
  endfacet
  facet normal 0 0 1
    outer loop
      vertex -34.1971 -11.4471 1
      vertex -37.5 -15 1
      vertex -32.5 -12.15 1
    endloop
  endfacet
  facet normal 0 0 1
    outer loop
      vertex -34.9 -9.75 1
      vertex -37.5 -15 1
      vertex -34.1971 -11.4471 1
    endloop
  endfacet
  facet normal 0 0 1
    outer loop
      vertex -37.5 -15 1
      vertex -34.9 -9.75 1
      vertex -37.5 15 1
    endloop
  endfacet
  facet normal 0 0 1
    outer loop
      vertex 15 15 1
      vertex -15 15 1
      vertex 15 -15 1
    endloop
  endfacet
  facet normal 0 0 1
    outer loop
      vertex 15 -15 1
      vertex -8.05294 -30.8029 1
      vertex -7.35 -32.5 1
    endloop
  endfacet
  facet normal 0 0 1
    outer loop
      vertex -15 15 1
      vertex -8.05294 30.8029 1
      vertex -9.75 30.1 1
    endloop
  endfacet
  facet normal -0 0 1
    outer loop
      vertex -15 -15 1
      vertex 15 -15 1
      vertex -15 15 1
    endloop
  endfacet
  facet normal 0 0 1
    outer loop
      vertex -15 15 1
      vertex -9.75 30.1 1
      vertex -11.4471 30.8029 1
    endloop
  endfacet
  facet normal 0 0 1
    outer loop
      vertex 15 -15 1
      vertex -15 -15 1
      vertex -8.05294 -30.8029 1
    endloop
  endfacet
  facet normal 0 0 1
    outer loop
      vertex -15 15 1
      vertex -11.4471 30.8029 1
      vertex -12.15 32.5 1
    endloop
  endfacet
  facet normal 0 0 1
    outer loop
      vertex -8.05294 -30.8029 1
      vertex -15 -15 1
      vertex -9.75 -30.1 1
    endloop
  endfacet
  facet normal 0 0 1
    outer loop
      vertex 8.05294 30.8029 1
      vertex 15 15 1
      vertex 9.75 30.1 1
    endloop
  endfacet
  facet normal 0 0 1
    outer loop
      vertex 15 -15 1
      vertex 11.4471 -30.8029 1
      vertex 12.15 -32.5 1
    endloop
  endfacet
  facet normal 0 0 1
    outer loop
      vertex -8.05294 30.8029 1
      vertex 8.05294 30.8029 1
      vertex -7.35 32.5 1
    endloop
  endfacet
  facet normal 0 0 1
    outer loop
      vertex 15 -15 1
      vertex 9.75 -30.1 1
      vertex 11.4471 -30.8029 1
    endloop
  endfacet
  facet normal 0 0 1
    outer loop
      vertex 8.05294 30.8029 1
      vertex -8.05294 30.8029 1
      vertex 15 15 1
    endloop
  endfacet
  facet normal -0 0 1
    outer loop
      vertex -15 15 1
      vertex 15 15 1
      vertex -8.05294 30.8029 1
    endloop
  endfacet
  facet normal -0 0 1
    outer loop
      vertex -7.35 32.5 1
      vertex 8.05294 30.8029 1
      vertex 7.35 32.5 1
    endloop
  endfacet
  facet normal 0 -0 1
    outer loop
      vertex 8.05294 -30.8029 1
      vertex 15 -15 1
      vertex -7.35 -32.5 1
    endloop
  endfacet
  facet normal -0 0 1
    outer loop
      vertex 12.15 32.5 1
      vertex 15 15 1
      vertex 15 37.5 1
    endloop
  endfacet
  facet normal -0 0 1
    outer loop
      vertex 11.4471 30.8029 1
      vertex 15 15 1
      vertex 12.15 32.5 1
    endloop
  endfacet
  facet normal -0 0 1
    outer loop
      vertex 9.75 30.1 1
      vertex 15 15 1
      vertex 11.4471 30.8029 1
    endloop
  endfacet
  facet normal 0 0 1
    outer loop
      vertex 15 37.5 1
      vertex 11.4471 34.1971 1
      vertex 12.15 32.5 1
    endloop
  endfacet
  facet normal 0 0 1
    outer loop
      vertex 15 37.5 1
      vertex 9.75 34.9 1
      vertex 11.4471 34.1971 1
    endloop
  endfacet
  facet normal 0 0 1
    outer loop
      vertex -9.75 34.9 1
      vertex 9.75 34.9 1
      vertex 15 37.5 1
    endloop
  endfacet
  facet normal 0 0 1
    outer loop
      vertex 15 -15 1
      vertex 8.05294 -30.8029 1
      vertex 9.75 -30.1 1
    endloop
  endfacet
  facet normal 0 0 1
    outer loop
      vertex 8.05294 34.1971 1
      vertex -7.35 32.5 1
      vertex 7.35 32.5 1
    endloop
  endfacet
  facet normal 0 0 1
    outer loop
      vertex 9.75 34.9 1
      vertex -9.75 34.9 1
      vertex 8.05294 34.1971 1
    endloop
  endfacet
  facet normal 0 0 1
    outer loop
      vertex 8.05294 34.1971 1
      vertex -8.05294 34.1971 1
      vertex -7.35 32.5 1
    endloop
  endfacet
  facet normal 0 0 1
    outer loop
      vertex 8.05294 34.1971 1
      vertex -9.75 34.9 1
      vertex -8.05294 34.1971 1
    endloop
  endfacet
  facet normal 0 0 1
    outer loop
      vertex -15 15 1
      vertex -12.15 32.5 1
      vertex -15 37.5 1
    endloop
  endfacet
  facet normal 0 0 1
    outer loop
      vertex -11.4471 34.1971 1
      vertex -15 37.5 1
      vertex -12.15 32.5 1
    endloop
  endfacet
  facet normal 0 0 1
    outer loop
      vertex -9.75 34.9 1
      vertex -15 37.5 1
      vertex -11.4471 34.1971 1
    endloop
  endfacet
  facet normal -0 0 1
    outer loop
      vertex -15 37.5 1
      vertex -9.75 34.9 1
      vertex 15 37.5 1
    endloop
  endfacet
  facet normal 0 0 1
    outer loop
      vertex 15 -15 1
      vertex 12.15 -32.5 1
      vertex 15 -37.5 1
    endloop
  endfacet
  facet normal -0 0 1
    outer loop
      vertex 11.4471 -34.1971 1
      vertex 15 -37.5 1
      vertex 12.15 -32.5 1
    endloop
  endfacet
  facet normal -0 0 1
    outer loop
      vertex 9.75 -34.9 1
      vertex 15 -37.5 1
      vertex 11.4471 -34.1971 1
    endloop
  endfacet
  facet normal 0 0 1
    outer loop
      vertex -9.75 -34.9 1
      vertex 9.75 -34.9 1
      vertex 8.05294 -34.1971 1
    endloop
  endfacet
  facet normal 0 0 1
    outer loop
      vertex 8.05294 -30.8029 1
      vertex -7.35 -32.5 1
      vertex 7.35 -32.5 1
    endloop
  endfacet
  facet normal -0 0 1
    outer loop
      vertex -7.35 -32.5 1
      vertex 8.05294 -34.1971 1
      vertex 7.35 -32.5 1
    endloop
  endfacet
  facet normal 0 0 1
    outer loop
      vertex -8.05294 -34.1971 1
      vertex 8.05294 -34.1971 1
      vertex -7.35 -32.5 1
    endloop
  endfacet
  facet normal 0 0 1
    outer loop
      vertex -9.75 -34.9 1
      vertex 8.05294 -34.1971 1
      vertex -8.05294 -34.1971 1
    endloop
  endfacet
  facet normal 0 0 1
    outer loop
      vertex 9.75 -34.9 1
      vertex -9.75 -34.9 1
      vertex 15 -37.5 1
    endloop
  endfacet
  facet normal 0 0 1
    outer loop
      vertex -9.75 -30.1 1
      vertex -15 -15 1
      vertex -11.4471 -30.8029 1
    endloop
  endfacet
  facet normal 0 0 1
    outer loop
      vertex -11.4471 -30.8029 1
      vertex -15 -15 1
      vertex -12.15 -32.5 1
    endloop
  endfacet
  facet normal 0 0 1
    outer loop
      vertex -9.75 -34.9 1
      vertex -15 -37.5 1
      vertex 15 -37.5 1
    endloop
  endfacet
  facet normal 0 0 1
    outer loop
      vertex -11.4471 -34.1971 1
      vertex -15 -37.5 1
      vertex -9.75 -34.9 1
    endloop
  endfacet
  facet normal 0 0 1
    outer loop
      vertex -12.15 -32.5 1
      vertex -15 -37.5 1
      vertex -11.4471 -34.1971 1
    endloop
  endfacet
  facet normal 0 0 1
    outer loop
      vertex -15 -37.5 1
      vertex -12.15 -32.5 1
      vertex -15 -15 1
    endloop
  endfacet
  facet normal -0 0 1
    outer loop
      vertex 34.1971 8.05294 1
      vertex 34.9 -9.75 1
      vertex 34.9 9.75 1
    endloop
  endfacet
  facet normal 0 0 1
    outer loop
      vertex 34.1971 8.05294 1
      vertex 34.1971 -8.05294 1
      vertex 34.9 -9.75 1
    endloop
  endfacet
  facet normal -0 0 1
    outer loop
      vertex 32.5 7.35 1
      vertex 34.1971 -8.05294 1
      vertex 34.1971 8.05294 1
    endloop
  endfacet
  facet normal 0 0 1
    outer loop
      vertex 32.5 7.35 1
      vertex 32.5 -7.35 1
      vertex 34.1971 -8.05294 1
    endloop
  endfacet
  facet normal 0 0 1
    outer loop
      vertex 30.8029 8.05294 1
      vertex 32.5 -7.35 1
      vertex 32.5 7.35 1
    endloop
  endfacet
  facet normal 0 0 1
    outer loop
      vertex 30.8029 8.05294 1
      vertex 30.8029 -8.05294 1
      vertex 32.5 -7.35 1
    endloop
  endfacet
  facet normal 0 0 1
    outer loop
      vertex 15 15 1
      vertex 30.8029 8.05294 1
      vertex 30.1 9.75 1
    endloop
  endfacet
  facet normal 0 0 1
    outer loop
      vertex 30.8029 8.05294 1
      vertex 15 15 1
      vertex 30.8029 -8.05294 1
    endloop
  endfacet
  facet normal 0 0 1
    outer loop
      vertex 37.5 15 1
      vertex 34.9 9.75 1
      vertex 37.5 -15 1
    endloop
  endfacet
  facet normal 0 0 1
    outer loop
      vertex 37.5 15 1
      vertex 34.1971 11.4471 1
      vertex 34.9 9.75 1
    endloop
  endfacet
  facet normal 0 0 1
    outer loop
      vertex 37.5 15 1
      vertex 32.5 12.15 1
      vertex 34.1971 11.4471 1
    endloop
  endfacet
  facet normal -0 0 1
    outer loop
      vertex 15 15 1
      vertex 32.5 12.15 1
      vertex 37.5 15 1
    endloop
  endfacet
  facet normal 0 0 1
    outer loop
      vertex 15 -15 1
      vertex 30.8029 -8.05294 1
      vertex 15 15 1
    endloop
  endfacet
  facet normal 0 0 1
    outer loop
      vertex 30.8029 11.4471 1
      vertex 15 15 1
      vertex 30.1 9.75 1
    endloop
  endfacet
  facet normal 0 0 1
    outer loop
      vertex 32.5 12.15 1
      vertex 15 15 1
      vertex 30.8029 11.4471 1
    endloop
  endfacet
  facet normal -0 0 1
    outer loop
      vertex 34.9 -9.75 1
      vertex 37.5 -15 1
      vertex 34.9 9.75 1
    endloop
  endfacet
  facet normal -0 0 1
    outer loop
      vertex 34.1971 -11.4471 1
      vertex 37.5 -15 1
      vertex 34.9 -9.75 1
    endloop
  endfacet
  facet normal -0 0 1
    outer loop
      vertex 32.5 -12.15 1
      vertex 37.5 -15 1
      vertex 34.1971 -11.4471 1
    endloop
  endfacet
  facet normal 0 0 1
    outer loop
      vertex 15 -15 1
      vertex 32.5 -12.15 1
      vertex 30.8029 -11.4471 1
    endloop
  endfacet
  facet normal 0 0 1
    outer loop
      vertex 30.8029 -8.05294 1
      vertex 15 -15 1
      vertex 30.1 -9.75 1
    endloop
  endfacet
  facet normal 0 0 1
    outer loop
      vertex 32.5 -12.15 1
      vertex 15 -15 1
      vertex 37.5 -15 1
    endloop
  endfacet
  facet normal 0 0 1
    outer loop
      vertex 30.1 -9.75 1
      vertex 15 -15 1
      vertex 30.8029 -11.4471 1
    endloop
  endfacet
  facet normal 1 -0 0
    outer loop
      vertex 15 -37.5 1
      vertex 15 -15 -1
      vertex 15 -15 1
    endloop
  endfacet
  facet normal 1 0 0
    outer loop
      vertex 15 -15 -1
      vertex 15 -37.5 1
      vertex 15 -37.5 -1
    endloop
  endfacet
  facet normal 1 -0 0
    outer loop
      vertex 15 15 1
      vertex 15 37.5 -1
      vertex 15 37.5 1
    endloop
  endfacet
  facet normal 1 0 0
    outer loop
      vertex 15 37.5 -1
      vertex 15 15 1
      vertex 15 15 -1
    endloop
  endfacet
  facet normal 0 1 -0
    outer loop
      vertex 15 37.5 -1
      vertex -15 37.5 1
      vertex 15 37.5 1
    endloop
  endfacet
  facet normal 0 1 0
    outer loop
      vertex -15 37.5 1
      vertex 15 37.5 -1
      vertex -15 37.5 -1
    endloop
  endfacet
  facet normal 0 0 -1
    outer loop
      vertex -30.8029 8.05294 -1
      vertex -15 15 -1
      vertex -30.8029 -8.05294 -1
    endloop
  endfacet
  facet normal 0 0 -1
    outer loop
      vertex -15 15 -1
      vertex -30.8029 8.05294 -1
      vertex -30.1 9.75 -1
    endloop
  endfacet
  facet normal 0 0 -1
    outer loop
      vertex -32.5 -7.35 -1
      vertex -30.8029 8.05294 -1
      vertex -30.8029 -8.05294 -1
    endloop
  endfacet
  facet normal 0 0 -1
    outer loop
      vertex -32.5 -7.35 -1
      vertex -32.5 7.35 -1
      vertex -30.8029 8.05294 -1
    endloop
  endfacet
  facet normal 0 0 -1
    outer loop
      vertex -34.1971 -8.05294 -1
      vertex -32.5 7.35 -1
      vertex -32.5 -7.35 -1
    endloop
  endfacet
  facet normal 0 0 -1
    outer loop
      vertex -34.1971 -8.05294 -1
      vertex -34.1971 8.05294 -1
      vertex -32.5 7.35 -1
    endloop
  endfacet
  facet normal 0 0 -1
    outer loop
      vertex -34.9 -9.75 -1
      vertex -34.1971 8.05294 -1
      vertex -34.1971 -8.05294 -1
    endloop
  endfacet
  facet normal -0 0 -1
    outer loop
      vertex -34.1971 8.05294 -1
      vertex -34.9 -9.75 -1
      vertex -34.9 9.75 -1
    endloop
  endfacet
  facet normal 0 0 -1
    outer loop
      vertex -30.8029 -8.05294 -1
      vertex -15 -15 -1
      vertex -30.1 -9.75 -1
    endloop
  endfacet
  facet normal 0 0 -1
    outer loop
      vertex -15 -15 -1
      vertex -30.8029 -11.4471 -1
      vertex -30.1 -9.75 -1
    endloop
  endfacet
  facet normal 0 0 -1
    outer loop
      vertex -15 -15 -1
      vertex -32.5 -12.15 -1
      vertex -30.8029 -11.4471 -1
    endloop
  endfacet
  facet normal -0 0 -1
    outer loop
      vertex -34.9 -9.75 -1
      vertex -37.5 -15 -1
      vertex -34.9 9.75 -1
    endloop
  endfacet
  facet normal -0 0 -1
    outer loop
      vertex -34.1971 -11.4471 -1
      vertex -37.5 -15 -1
      vertex -34.9 -9.75 -1
    endloop
  endfacet
  facet normal -0 0 -1
    outer loop
      vertex -32.5 -12.15 -1
      vertex -37.5 -15 -1
      vertex -34.1971 -11.4471 -1
    endloop
  endfacet
  facet normal 0 0 -1
    outer loop
      vertex -37.5 -15 -1
      vertex -32.5 -12.15 -1
      vertex -15 -15 -1
    endloop
  endfacet
  facet normal 0 0 -1
    outer loop
      vertex -15 -15 -1
      vertex -30.8029 -8.05294 -1
      vertex -15 15 -1
    endloop
  endfacet
  facet normal 0 0 -1
    outer loop
      vertex -30.8029 11.4471 -1
      vertex -15 15 -1
      vertex -30.1 9.75 -1
    endloop
  endfacet
  facet normal 0 0 -1
    outer loop
      vertex -32.5 12.15 -1
      vertex -15 15 -1
      vertex -30.8029 11.4471 -1
    endloop
  endfacet
  facet normal 0 0 -1
    outer loop
      vertex -32.5 12.15 -1
      vertex -37.5 15 -1
      vertex -15 15 -1
    endloop
  endfacet
  facet normal 0 0 -1
    outer loop
      vertex -34.1971 11.4471 -1
      vertex -37.5 15 -1
      vertex -32.5 12.15 -1
    endloop
  endfacet
  facet normal 0 0 -1
    outer loop
      vertex -34.9 9.75 -1
      vertex -37.5 15 -1
      vertex -34.1971 11.4471 -1
    endloop
  endfacet
  facet normal 0 0 -1
    outer loop
      vertex -37.5 15 -1
      vertex -34.9 9.75 -1
      vertex -37.5 -15 -1
    endloop
  endfacet
  facet normal 0 0 -1
    outer loop
      vertex 15 -15 -1
      vertex -15 -15 -1
      vertex 15 15 -1
    endloop
  endfacet
  facet normal 0 0 -1
    outer loop
      vertex 15 15 -1
      vertex -8.05294 30.8029 -1
      vertex -7.35 32.5 -1
    endloop
  endfacet
  facet normal 0 0 -1
    outer loop
      vertex -15 -15 -1
      vertex -8.05294 -30.8029 -1
      vertex -9.75 -30.1 -1
    endloop
  endfacet
  facet normal 0 0 -1
    outer loop
      vertex -15 15 -1
      vertex 15 15 -1
      vertex -15 -15 -1
    endloop
  endfacet
  facet normal 0 0 -1
    outer loop
      vertex -15 -15 -1
      vertex -9.75 -30.1 -1
      vertex -11.4471 -30.8029 -1
    endloop
  endfacet
  facet normal 0 0 -1
    outer loop
      vertex 15 15 -1
      vertex -15 15 -1
      vertex -8.05294 30.8029 -1
    endloop
  endfacet
  facet normal 0 0 -1
    outer loop
      vertex -15 -15 -1
      vertex -11.4471 -30.8029 -1
      vertex -12.15 -32.5 -1
    endloop
  endfacet
  facet normal 0 0 -1
    outer loop
      vertex -8.05294 30.8029 -1
      vertex -15 15 -1
      vertex -9.75 30.1 -1
    endloop
  endfacet
  facet normal 0 0 -1
    outer loop
      vertex 8.05294 -30.8029 -1
      vertex 15 -15 -1
      vertex 9.75 -30.1 -1
    endloop
  endfacet
  facet normal 0 0 -1
    outer loop
      vertex 15 15 -1
      vertex 11.4471 30.8029 -1
      vertex 12.15 32.5 -1
    endloop
  endfacet
  facet normal 0 0 -1
    outer loop
      vertex -8.05294 -30.8029 -1
      vertex 8.05294 -30.8029 -1
      vertex -7.35 -32.5 -1
    endloop
  endfacet
  facet normal 0 0 -1
    outer loop
      vertex 15 15 -1
      vertex 9.75 30.1 -1
      vertex 11.4471 30.8029 -1
    endloop
  endfacet
  facet normal 0 0 -1
    outer loop
      vertex 8.05294 -30.8029 -1
      vertex -8.05294 -30.8029 -1
      vertex 15 -15 -1
    endloop
  endfacet
  facet normal 0 0 -1
    outer loop
      vertex -15 -15 -1
      vertex 15 -15 -1
      vertex -8.05294 -30.8029 -1
    endloop
  endfacet
  facet normal 0 0 -1
    outer loop
      vertex -7.35 -32.5 -1
      vertex 8.05294 -30.8029 -1
      vertex 7.35 -32.5 -1
    endloop
  endfacet
  facet normal -0 -0 -1
    outer loop
      vertex 8.05294 30.8029 -1
      vertex 15 15 -1
      vertex -7.35 32.5 -1
    endloop
  endfacet
  facet normal 0 0 -1
    outer loop
      vertex 12.15 -32.5 -1
      vertex 15 -15 -1
      vertex 15 -37.5 -1
    endloop
  endfacet
  facet normal 0 0 -1
    outer loop
      vertex 11.4471 -30.8029 -1
      vertex 15 -15 -1
      vertex 12.15 -32.5 -1
    endloop
  endfacet
  facet normal 0 0 -1
    outer loop
      vertex 9.75 -30.1 -1
      vertex 15 -15 -1
      vertex 11.4471 -30.8029 -1
    endloop
  endfacet
  facet normal 0 0 -1
    outer loop
      vertex 15 -37.5 -1
      vertex 11.4471 -34.1971 -1
      vertex 12.15 -32.5 -1
    endloop
  endfacet
  facet normal 0 0 -1
    outer loop
      vertex 15 -37.5 -1
      vertex 9.75 -34.9 -1
      vertex 11.4471 -34.1971 -1
    endloop
  endfacet
  facet normal 0 0 -1
    outer loop
      vertex -9.75 -34.9 -1
      vertex 9.75 -34.9 -1
      vertex 15 -37.5 -1
    endloop
  endfacet
  facet normal 0 0 -1
    outer loop
      vertex 15 15 -1
      vertex 8.05294 30.8029 -1
      vertex 9.75 30.1 -1
    endloop
  endfacet
  facet normal 0 0 -1
    outer loop
      vertex 8.05294 -34.1971 -1
      vertex -7.35 -32.5 -1
      vertex 7.35 -32.5 -1
    endloop
  endfacet
  facet normal 0 0 -1
    outer loop
      vertex 9.75 -34.9 -1
      vertex -9.75 -34.9 -1
      vertex 8.05294 -34.1971 -1
    endloop
  endfacet
  facet normal 0 0 -1
    outer loop
      vertex 8.05294 -34.1971 -1
      vertex -8.05294 -34.1971 -1
      vertex -7.35 -32.5 -1
    endloop
  endfacet
  facet normal -0 0 -1
    outer loop
      vertex 8.05294 -34.1971 -1
      vertex -9.75 -34.9 -1
      vertex -8.05294 -34.1971 -1
    endloop
  endfacet
  facet normal 0 0 -1
    outer loop
      vertex -15 -15 -1
      vertex -12.15 -32.5 -1
      vertex -15 -37.5 -1
    endloop
  endfacet
  facet normal -0 0 -1
    outer loop
      vertex -11.4471 -34.1971 -1
      vertex -15 -37.5 -1
      vertex -12.15 -32.5 -1
    endloop
  endfacet
  facet normal -0 0 -1
    outer loop
      vertex -9.75 -34.9 -1
      vertex -15 -37.5 -1
      vertex -11.4471 -34.1971 -1
    endloop
  endfacet
  facet normal 0 0 -1
    outer loop
      vertex -15 -37.5 -1
      vertex -9.75 -34.9 -1
      vertex 15 -37.5 -1
    endloop
  endfacet
  facet normal 0 0 -1
    outer loop
      vertex 15 15 -1
      vertex 12.15 32.5 -1
      vertex 15 37.5 -1
    endloop
  endfacet
  facet normal 0 0 -1
    outer loop
      vertex 11.4471 34.1971 -1
      vertex 15 37.5 -1
      vertex 12.15 32.5 -1
    endloop
  endfacet
  facet normal 0 0 -1
    outer loop
      vertex 9.75 34.9 -1
      vertex 15 37.5 -1
      vertex 11.4471 34.1971 -1
    endloop
  endfacet
  facet normal 0 0 -1
    outer loop
      vertex -9.75 34.9 -1
      vertex 9.75 34.9 -1
      vertex 8.05294 34.1971 -1
    endloop
  endfacet
  facet normal 0 0 -1
    outer loop
      vertex 8.05294 30.8029 -1
      vertex -7.35 32.5 -1
      vertex 7.35 32.5 -1
    endloop
  endfacet
  facet normal 0 0 -1
    outer loop
      vertex -7.35 32.5 -1
      vertex 8.05294 34.1971 -1
      vertex 7.35 32.5 -1
    endloop
  endfacet
  facet normal 0 0 -1
    outer loop
      vertex -8.05294 34.1971 -1
      vertex 8.05294 34.1971 -1
      vertex -7.35 32.5 -1
    endloop
  endfacet
  facet normal 0 0 -1
    outer loop
      vertex -9.75 34.9 -1
      vertex 8.05294 34.1971 -1
      vertex -8.05294 34.1971 -1
    endloop
  endfacet
  facet normal 0 0 -1
    outer loop
      vertex 9.75 34.9 -1
      vertex -9.75 34.9 -1
      vertex 15 37.5 -1
    endloop
  endfacet
  facet normal -0 0 -1
    outer loop
      vertex -9.75 30.1 -1
      vertex -15 15 -1
      vertex -11.4471 30.8029 -1
    endloop
  endfacet
  facet normal -0 0 -1
    outer loop
      vertex -11.4471 30.8029 -1
      vertex -15 15 -1
      vertex -12.15 32.5 -1
    endloop
  endfacet
  facet normal 0 0 -1
    outer loop
      vertex -9.75 34.9 -1
      vertex -15 37.5 -1
      vertex 15 37.5 -1
    endloop
  endfacet
  facet normal 0 0 -1
    outer loop
      vertex -11.4471 34.1971 -1
      vertex -15 37.5 -1
      vertex -9.75 34.9 -1
    endloop
  endfacet
  facet normal 0 0 -1
    outer loop
      vertex -12.15 32.5 -1
      vertex -15 37.5 -1
      vertex -11.4471 34.1971 -1
    endloop
  endfacet
  facet normal 0 0 -1
    outer loop
      vertex -15 37.5 -1
      vertex -12.15 32.5 -1
      vertex -15 15 -1
    endloop
  endfacet
  facet normal 0 0 -1
    outer loop
      vertex 34.1971 -8.05294 -1
      vertex 34.9 9.75 -1
      vertex 34.9 -9.75 -1
    endloop
  endfacet
  facet normal 0 0 -1
    outer loop
      vertex 34.1971 -8.05294 -1
      vertex 34.1971 8.05294 -1
      vertex 34.9 9.75 -1
    endloop
  endfacet
  facet normal 0 0 -1
    outer loop
      vertex 32.5 -7.35 -1
      vertex 34.1971 8.05294 -1
      vertex 34.1971 -8.05294 -1
    endloop
  endfacet
  facet normal 0 0 -1
    outer loop
      vertex 32.5 -7.35 -1
      vertex 32.5 7.35 -1
      vertex 34.1971 8.05294 -1
    endloop
  endfacet
  facet normal 0 0 -1
    outer loop
      vertex 30.8029 -8.05294 -1
      vertex 32.5 7.35 -1
      vertex 32.5 -7.35 -1
    endloop
  endfacet
  facet normal 0 0 -1
    outer loop
      vertex 30.8029 -8.05294 -1
      vertex 30.8029 8.05294 -1
      vertex 32.5 7.35 -1
    endloop
  endfacet
  facet normal 0 0 -1
    outer loop
      vertex 15 -15 -1
      vertex 30.8029 -8.05294 -1
      vertex 30.1 -9.75 -1
    endloop
  endfacet
  facet normal -0 0 -1
    outer loop
      vertex 30.8029 -8.05294 -1
      vertex 15 -15 -1
      vertex 30.8029 8.05294 -1
    endloop
  endfacet
  facet normal 0 0 -1
    outer loop
      vertex 37.5 -15 -1
      vertex 34.9 -9.75 -1
      vertex 37.5 15 -1
    endloop
  endfacet
  facet normal 0 0 -1
    outer loop
      vertex 37.5 -15 -1
      vertex 34.1971 -11.4471 -1
      vertex 34.9 -9.75 -1
    endloop
  endfacet
  facet normal 0 0 -1
    outer loop
      vertex 37.5 -15 -1
      vertex 32.5 -12.15 -1
      vertex 34.1971 -11.4471 -1
    endloop
  endfacet
  facet normal 0 0 -1
    outer loop
      vertex 15 -15 -1
      vertex 32.5 -12.15 -1
      vertex 37.5 -15 -1
    endloop
  endfacet
  facet normal 0 0 -1
    outer loop
      vertex 15 15 -1
      vertex 30.8029 8.05294 -1
      vertex 15 -15 -1
    endloop
  endfacet
  facet normal -0 0 -1
    outer loop
      vertex 30.8029 -11.4471 -1
      vertex 15 -15 -1
      vertex 30.1 -9.75 -1
    endloop
  endfacet
  facet normal -0 0 -1
    outer loop
      vertex 32.5 -12.15 -1
      vertex 15 -15 -1
      vertex 30.8029 -11.4471 -1
    endloop
  endfacet
  facet normal 0 0 -1
    outer loop
      vertex 34.9 9.75 -1
      vertex 37.5 15 -1
      vertex 34.9 -9.75 -1
    endloop
  endfacet
  facet normal 0 0 -1
    outer loop
      vertex 34.1971 11.4471 -1
      vertex 37.5 15 -1
      vertex 34.9 9.75 -1
    endloop
  endfacet
  facet normal 0 0 -1
    outer loop
      vertex 32.5 12.15 -1
      vertex 37.5 15 -1
      vertex 34.1971 11.4471 -1
    endloop
  endfacet
  facet normal 0 0 -1
    outer loop
      vertex 15 15 -1
      vertex 32.5 12.15 -1
      vertex 30.8029 11.4471 -1
    endloop
  endfacet
  facet normal 0 0 -1
    outer loop
      vertex 30.8029 8.05294 -1
      vertex 15 15 -1
      vertex 30.1 9.75 -1
    endloop
  endfacet
  facet normal 0 0 -1
    outer loop
      vertex 32.5 12.15 -1
      vertex 15 15 -1
      vertex 37.5 15 -1
    endloop
  endfacet
  facet normal 0 0 -1
    outer loop
      vertex 30.1 9.75 -1
      vertex 15 15 -1
      vertex 30.8029 11.4471 -1
    endloop
  endfacet
  facet normal 0 -1 0
    outer loop
      vertex -15 -37.5 -1
      vertex 15 -37.5 1
      vertex -15 -37.5 1
    endloop
  endfacet
  facet normal 0 -1 -0
    outer loop
      vertex 15 -37.5 1
      vertex -15 -37.5 -1
      vertex 15 -37.5 -1
    endloop
  endfacet
  facet normal 0 1 -0
    outer loop
      vertex 37.5 15 -1
      vertex 15 15 1
      vertex 37.5 15 1
    endloop
  endfacet
  facet normal 0 1 0
    outer loop
      vertex 15 15 1
      vertex 37.5 15 -1
      vertex 15 15 -1
    endloop
  endfacet
  facet normal 0 1 -0
    outer loop
      vertex -15 15 -1
      vertex -37.5 15 1
      vertex -15 15 1
    endloop
  endfacet
  facet normal 0 1 0
    outer loop
      vertex -37.5 15 1
      vertex -15 15 -1
      vertex -37.5 15 -1
    endloop
  endfacet
  facet normal -1 0 0
    outer loop
      vertex -37.5 -15 -1
      vertex -37.5 15 1
      vertex -37.5 15 -1
    endloop
  endfacet
  facet normal -1 -0 0
    outer loop
      vertex -37.5 15 1
      vertex -37.5 -15 -1
      vertex -37.5 -15 1
    endloop
  endfacet
  facet normal 0 -1 0
    outer loop
      vertex 15 -15 -1
      vertex 37.5 -15 1
      vertex 15 -15 1
    endloop
  endfacet
  facet normal 0 -1 -0
    outer loop
      vertex 37.5 -15 1
      vertex 15 -15 -1
      vertex 37.5 -15 -1
    endloop
  endfacet
  facet normal 0 -1 0
    outer loop
      vertex -37.5 -15 -1
      vertex -15 -15 1
      vertex -37.5 -15 1
    endloop
  endfacet
  facet normal 0 -1 -0
    outer loop
      vertex -15 -15 1
      vertex -37.5 -15 -1
      vertex -15 -15 -1
    endloop
  endfacet
  facet normal 1 -0 0
    outer loop
      vertex 37.5 -15 1
      vertex 37.5 15 -1
      vertex 37.5 15 1
    endloop
  endfacet
  facet normal 1 0 0
    outer loop
      vertex 37.5 15 -1
      vertex 37.5 -15 1
      vertex 37.5 -15 -1
    endloop
  endfacet
  facet normal -0.923879 -0.382684 0
    outer loop
      vertex 12.15 32.5 -1
      vertex 11.4471 34.1971 1
      vertex 11.4471 34.1971 -1
    endloop
  endfacet
  facet normal -0.923879 -0.382684 0
    outer loop
      vertex 11.4471 34.1971 1
      vertex 12.15 32.5 -1
      vertex 12.15 32.5 1
    endloop
  endfacet
  facet normal 0.923879 0.382684 0
    outer loop
      vertex 8.05294 30.8029 1
      vertex 7.35 32.5 -1
      vertex 7.35 32.5 1
    endloop
  endfacet
  facet normal 0.923879 0.382684 0
    outer loop
      vertex 7.35 32.5 -1
      vertex 8.05294 30.8029 1
      vertex 8.05294 30.8029 -1
    endloop
  endfacet
  facet normal 0.382684 -0.923879 0
    outer loop
      vertex 8.05294 34.1971 -1
      vertex 9.75 34.9 1
      vertex 8.05294 34.1971 1
    endloop
  endfacet
  facet normal 0.382684 -0.923879 0
    outer loop
      vertex 9.75 34.9 1
      vertex 8.05294 34.1971 -1
      vertex 9.75 34.9 -1
    endloop
  endfacet
  facet normal -0.382684 -0.923879 0
    outer loop
      vertex 9.75 34.9 -1
      vertex 11.4471 34.1971 1
      vertex 9.75 34.9 1
    endloop
  endfacet
  facet normal -0.382684 -0.923879 -0
    outer loop
      vertex 11.4471 34.1971 1
      vertex 9.75 34.9 -1
      vertex 11.4471 34.1971 -1
    endloop
  endfacet
  facet normal 0.923879 -0.382684 0
    outer loop
      vertex 7.35 32.5 1
      vertex 8.05294 34.1971 -1
      vertex 8.05294 34.1971 1
    endloop
  endfacet
  facet normal 0.923879 -0.382684 0
    outer loop
      vertex 8.05294 34.1971 -1
      vertex 7.35 32.5 1
      vertex 7.35 32.5 -1
    endloop
  endfacet
  facet normal -0.382684 0.923879 0
    outer loop
      vertex 11.4471 30.8029 -1
      vertex 9.75 30.1 1
      vertex 11.4471 30.8029 1
    endloop
  endfacet
  facet normal -0.382684 0.923879 0
    outer loop
      vertex 9.75 30.1 1
      vertex 11.4471 30.8029 -1
      vertex 9.75 30.1 -1
    endloop
  endfacet
  facet normal 0.382684 0.923879 -0
    outer loop
      vertex 9.75 30.1 -1
      vertex 8.05294 30.8029 1
      vertex 9.75 30.1 1
    endloop
  endfacet
  facet normal 0.382684 0.923879 0
    outer loop
      vertex 8.05294 30.8029 1
      vertex 9.75 30.1 -1
      vertex 8.05294 30.8029 -1
    endloop
  endfacet
  facet normal -0.923879 0.382684 0
    outer loop
      vertex 11.4471 30.8029 -1
      vertex 12.15 32.5 1
      vertex 12.15 32.5 -1
    endloop
  endfacet
  facet normal -0.923879 0.382684 0
    outer loop
      vertex 12.15 32.5 1
      vertex 11.4471 30.8029 -1
      vertex 11.4471 30.8029 1
    endloop
  endfacet
  facet normal -0.923879 -0.382684 0
    outer loop
      vertex -7.35 32.5 -1
      vertex -8.05294 34.1971 1
      vertex -8.05294 34.1971 -1
    endloop
  endfacet
  facet normal -0.923879 -0.382684 0
    outer loop
      vertex -8.05294 34.1971 1
      vertex -7.35 32.5 -1
      vertex -7.35 32.5 1
    endloop
  endfacet
  facet normal 0.382684 -0.923879 0
    outer loop
      vertex -11.4471 34.1971 -1
      vertex -9.75 34.9 1
      vertex -11.4471 34.1971 1
    endloop
  endfacet
  facet normal 0.382684 -0.923879 0
    outer loop
      vertex -9.75 34.9 1
      vertex -11.4471 34.1971 -1
      vertex -9.75 34.9 -1
    endloop
  endfacet
  facet normal -0.382684 -0.923879 0
    outer loop
      vertex -9.75 34.9 -1
      vertex -8.05294 34.1971 1
      vertex -9.75 34.9 1
    endloop
  endfacet
  facet normal -0.382684 -0.923879 -0
    outer loop
      vertex -8.05294 34.1971 1
      vertex -9.75 34.9 -1
      vertex -8.05294 34.1971 -1
    endloop
  endfacet
  facet normal 0.923879 -0.382684 0
    outer loop
      vertex -12.15 32.5 1
      vertex -11.4471 34.1971 -1
      vertex -11.4471 34.1971 1
    endloop
  endfacet
  facet normal 0.923879 -0.382684 0
    outer loop
      vertex -11.4471 34.1971 -1
      vertex -12.15 32.5 1
      vertex -12.15 32.5 -1
    endloop
  endfacet
  facet normal -0.923879 0.382684 0
    outer loop
      vertex -8.05294 30.8029 -1
      vertex -7.35 32.5 1
      vertex -7.35 32.5 -1
    endloop
  endfacet
  facet normal -0.923879 0.382684 0
    outer loop
      vertex -7.35 32.5 1
      vertex -8.05294 30.8029 -1
      vertex -8.05294 30.8029 1
    endloop
  endfacet
  facet normal 0.382684 0.923879 -0
    outer loop
      vertex -9.75 30.1 -1
      vertex -11.4471 30.8029 1
      vertex -9.75 30.1 1
    endloop
  endfacet
  facet normal 0.382684 0.923879 0
    outer loop
      vertex -11.4471 30.8029 1
      vertex -9.75 30.1 -1
      vertex -11.4471 30.8029 -1
    endloop
  endfacet
  facet normal 0.923879 0.382684 0
    outer loop
      vertex -11.4471 30.8029 1
      vertex -12.15 32.5 -1
      vertex -12.15 32.5 1
    endloop
  endfacet
  facet normal 0.923879 0.382684 0
    outer loop
      vertex -12.15 32.5 -1
      vertex -11.4471 30.8029 1
      vertex -11.4471 30.8029 -1
    endloop
  endfacet
  facet normal -0.382684 0.923879 0
    outer loop
      vertex -8.05294 30.8029 -1
      vertex -9.75 30.1 1
      vertex -8.05294 30.8029 1
    endloop
  endfacet
  facet normal -0.382684 0.923879 0
    outer loop
      vertex -9.75 30.1 1
      vertex -8.05294 30.8029 -1
      vertex -9.75 30.1 -1
    endloop
  endfacet
  facet normal -0.923879 -0.382684 0
    outer loop
      vertex 12.15 -32.5 -1
      vertex 11.4471 -30.8029 1
      vertex 11.4471 -30.8029 -1
    endloop
  endfacet
  facet normal -0.923879 -0.382684 0
    outer loop
      vertex 11.4471 -30.8029 1
      vertex 12.15 -32.5 -1
      vertex 12.15 -32.5 1
    endloop
  endfacet
  facet normal 0.923879 -0.382684 0
    outer loop
      vertex 7.35 -32.5 1
      vertex 8.05294 -30.8029 -1
      vertex 8.05294 -30.8029 1
    endloop
  endfacet
  facet normal 0.923879 -0.382684 0
    outer loop
      vertex 8.05294 -30.8029 -1
      vertex 7.35 -32.5 1
      vertex 7.35 -32.5 -1
    endloop
  endfacet
  facet normal 0.382684 -0.923879 0
    outer loop
      vertex 8.05294 -30.8029 -1
      vertex 9.75 -30.1 1
      vertex 8.05294 -30.8029 1
    endloop
  endfacet
  facet normal 0.382684 -0.923879 0
    outer loop
      vertex 9.75 -30.1 1
      vertex 8.05294 -30.8029 -1
      vertex 9.75 -30.1 -1
    endloop
  endfacet
  facet normal -0.382684 -0.923879 0
    outer loop
      vertex 9.75 -30.1 -1
      vertex 11.4471 -30.8029 1
      vertex 9.75 -30.1 1
    endloop
  endfacet
  facet normal -0.382684 -0.923879 -0
    outer loop
      vertex 11.4471 -30.8029 1
      vertex 9.75 -30.1 -1
      vertex 11.4471 -30.8029 -1
    endloop
  endfacet
  facet normal -0.382684 0.923879 0
    outer loop
      vertex 11.4471 -34.1971 -1
      vertex 9.75 -34.9 1
      vertex 11.4471 -34.1971 1
    endloop
  endfacet
  facet normal -0.382684 0.923879 0
    outer loop
      vertex 9.75 -34.9 1
      vertex 11.4471 -34.1971 -1
      vertex 9.75 -34.9 -1
    endloop
  endfacet
  facet normal 0.923879 0.382684 0
    outer loop
      vertex 8.05294 -34.1971 1
      vertex 7.35 -32.5 -1
      vertex 7.35 -32.5 1
    endloop
  endfacet
  facet normal 0.923879 0.382684 0
    outer loop
      vertex 7.35 -32.5 -1
      vertex 8.05294 -34.1971 1
      vertex 8.05294 -34.1971 -1
    endloop
  endfacet
  facet normal -0.923879 0.382684 0
    outer loop
      vertex 11.4471 -34.1971 -1
      vertex 12.15 -32.5 1
      vertex 12.15 -32.5 -1
    endloop
  endfacet
  facet normal -0.923879 0.382684 0
    outer loop
      vertex 12.15 -32.5 1
      vertex 11.4471 -34.1971 -1
      vertex 11.4471 -34.1971 1
    endloop
  endfacet
  facet normal 0.382684 0.923879 -0
    outer loop
      vertex 9.75 -34.9 -1
      vertex 8.05294 -34.1971 1
      vertex 9.75 -34.9 1
    endloop
  endfacet
  facet normal 0.382684 0.923879 0
    outer loop
      vertex 8.05294 -34.1971 1
      vertex 9.75 -34.9 -1
      vertex 8.05294 -34.1971 -1
    endloop
  endfacet
  facet normal -0.923879 -0.382684 0
    outer loop
      vertex -7.35 -32.5 -1
      vertex -8.05294 -30.8029 1
      vertex -8.05294 -30.8029 -1
    endloop
  endfacet
  facet normal -0.923879 -0.382684 0
    outer loop
      vertex -8.05294 -30.8029 1
      vertex -7.35 -32.5 -1
      vertex -7.35 -32.5 1
    endloop
  endfacet
  facet normal 0.923879 -0.382684 0
    outer loop
      vertex -12.15 -32.5 1
      vertex -11.4471 -30.8029 -1
      vertex -11.4471 -30.8029 1
    endloop
  endfacet
  facet normal 0.923879 -0.382684 0
    outer loop
      vertex -11.4471 -30.8029 -1
      vertex -12.15 -32.5 1
      vertex -12.15 -32.5 -1
    endloop
  endfacet
  facet normal -0.382684 -0.923879 0
    outer loop
      vertex -9.75 -30.1 -1
      vertex -8.05294 -30.8029 1
      vertex -9.75 -30.1 1
    endloop
  endfacet
  facet normal -0.382684 -0.923879 -0
    outer loop
      vertex -8.05294 -30.8029 1
      vertex -9.75 -30.1 -1
      vertex -8.05294 -30.8029 -1
    endloop
  endfacet
  facet normal -0.382684 0.923879 0
    outer loop
      vertex -8.05294 -34.1971 -1
      vertex -9.75 -34.9 1
      vertex -8.05294 -34.1971 1
    endloop
  endfacet
  facet normal -0.382684 0.923879 0
    outer loop
      vertex -9.75 -34.9 1
      vertex -8.05294 -34.1971 -1
      vertex -9.75 -34.9 -1
    endloop
  endfacet
  facet normal 0.382684 -0.923879 0
    outer loop
      vertex -11.4471 -30.8029 -1
      vertex -9.75 -30.1 1
      vertex -11.4471 -30.8029 1
    endloop
  endfacet
  facet normal 0.382684 -0.923879 0
    outer loop
      vertex -9.75 -30.1 1
      vertex -11.4471 -30.8029 -1
      vertex -9.75 -30.1 -1
    endloop
  endfacet
  facet normal 0.923879 0.382684 0
    outer loop
      vertex -11.4471 -34.1971 1
      vertex -12.15 -32.5 -1
      vertex -12.15 -32.5 1
    endloop
  endfacet
  facet normal 0.923879 0.382684 0
    outer loop
      vertex -12.15 -32.5 -1
      vertex -11.4471 -34.1971 1
      vertex -11.4471 -34.1971 -1
    endloop
  endfacet
  facet normal -0.923879 0.382684 0
    outer loop
      vertex -8.05294 -34.1971 -1
      vertex -7.35 -32.5 1
      vertex -7.35 -32.5 -1
    endloop
  endfacet
  facet normal -0.923879 0.382684 0
    outer loop
      vertex -7.35 -32.5 1
      vertex -8.05294 -34.1971 -1
      vertex -8.05294 -34.1971 1
    endloop
  endfacet
  facet normal 0.382684 0.923879 -0
    outer loop
      vertex -9.75 -34.9 -1
      vertex -11.4471 -34.1971 1
      vertex -9.75 -34.9 1
    endloop
  endfacet
  facet normal 0.382684 0.923879 0
    outer loop
      vertex -11.4471 -34.1971 1
      vertex -9.75 -34.9 -1
      vertex -11.4471 -34.1971 -1
    endloop
  endfacet
  facet normal -0.923879 -0.382684 0
    outer loop
      vertex 34.9 9.75 -1
      vertex 34.1971 11.4471 1
      vertex 34.1971 11.4471 -1
    endloop
  endfacet
  facet normal -0.923879 -0.382684 0
    outer loop
      vertex 34.1971 11.4471 1
      vertex 34.9 9.75 -1
      vertex 34.9 9.75 1
    endloop
  endfacet
  facet normal 0.382684 0.923879 -0
    outer loop
      vertex 32.5 7.35 -1
      vertex 30.8029 8.05294 1
      vertex 32.5 7.35 1
    endloop
  endfacet
  facet normal 0.382684 0.923879 0
    outer loop
      vertex 30.8029 8.05294 1
      vertex 32.5 7.35 -1
      vertex 30.8029 8.05294 -1
    endloop
  endfacet
  facet normal 0.382684 -0.923879 0
    outer loop
      vertex 30.8029 11.4471 -1
      vertex 32.5 12.15 1
      vertex 30.8029 11.4471 1
    endloop
  endfacet
  facet normal 0.382684 -0.923879 0
    outer loop
      vertex 32.5 12.15 1
      vertex 30.8029 11.4471 -1
      vertex 32.5 12.15 -1
    endloop
  endfacet
  facet normal -0.382684 -0.923879 0
    outer loop
      vertex 32.5 12.15 -1
      vertex 34.1971 11.4471 1
      vertex 32.5 12.15 1
    endloop
  endfacet
  facet normal -0.382684 -0.923879 -0
    outer loop
      vertex 34.1971 11.4471 1
      vertex 32.5 12.15 -1
      vertex 34.1971 11.4471 -1
    endloop
  endfacet
  facet normal 0.923879 -0.382684 0
    outer loop
      vertex 30.1 9.75 1
      vertex 30.8029 11.4471 -1
      vertex 30.8029 11.4471 1
    endloop
  endfacet
  facet normal 0.923879 -0.382684 0
    outer loop
      vertex 30.8029 11.4471 -1
      vertex 30.1 9.75 1
      vertex 30.1 9.75 -1
    endloop
  endfacet
  facet normal -0.923879 0.382684 0
    outer loop
      vertex 34.1971 8.05294 -1
      vertex 34.9 9.75 1
      vertex 34.9 9.75 -1
    endloop
  endfacet
  facet normal -0.923879 0.382684 0
    outer loop
      vertex 34.9 9.75 1
      vertex 34.1971 8.05294 -1
      vertex 34.1971 8.05294 1
    endloop
  endfacet
  facet normal 0.923879 0.382684 0
    outer loop
      vertex 30.8029 8.05294 1
      vertex 30.1 9.75 -1
      vertex 30.1 9.75 1
    endloop
  endfacet
  facet normal 0.923879 0.382684 0
    outer loop
      vertex 30.1 9.75 -1
      vertex 30.8029 8.05294 1
      vertex 30.8029 8.05294 -1
    endloop
  endfacet
  facet normal -0.382684 0.923879 0
    outer loop
      vertex 34.1971 8.05294 -1
      vertex 32.5 7.35 1
      vertex 34.1971 8.05294 1
    endloop
  endfacet
  facet normal -0.382684 0.923879 0
    outer loop
      vertex 32.5 7.35 1
      vertex 34.1971 8.05294 -1
      vertex 32.5 7.35 -1
    endloop
  endfacet
  facet normal -0.923879 -0.382684 0
    outer loop
      vertex -30.1 9.75 -1
      vertex -30.8029 11.4471 1
      vertex -30.8029 11.4471 -1
    endloop
  endfacet
  facet normal -0.923879 -0.382684 0
    outer loop
      vertex -30.8029 11.4471 1
      vertex -30.1 9.75 -1
      vertex -30.1 9.75 1
    endloop
  endfacet
  facet normal 0.382684 -0.923879 0
    outer loop
      vertex -34.1971 11.4471 -1
      vertex -32.5 12.15 1
      vertex -34.1971 11.4471 1
    endloop
  endfacet
  facet normal 0.382684 -0.923879 0
    outer loop
      vertex -32.5 12.15 1
      vertex -34.1971 11.4471 -1
      vertex -32.5 12.15 -1
    endloop
  endfacet
  facet normal -0.382684 -0.923879 0
    outer loop
      vertex -32.5 12.15 -1
      vertex -30.8029 11.4471 1
      vertex -32.5 12.15 1
    endloop
  endfacet
  facet normal -0.382684 -0.923879 -0
    outer loop
      vertex -30.8029 11.4471 1
      vertex -32.5 12.15 -1
      vertex -30.8029 11.4471 -1
    endloop
  endfacet
  facet normal 0.923879 -0.382684 0
    outer loop
      vertex -34.9 9.75 1
      vertex -34.1971 11.4471 -1
      vertex -34.1971 11.4471 1
    endloop
  endfacet
  facet normal 0.923879 -0.382684 0
    outer loop
      vertex -34.1971 11.4471 -1
      vertex -34.9 9.75 1
      vertex -34.9 9.75 -1
    endloop
  endfacet
  facet normal -0.923879 0.382684 0
    outer loop
      vertex -30.8029 8.05294 -1
      vertex -30.1 9.75 1
      vertex -30.1 9.75 -1
    endloop
  endfacet
  facet normal -0.923879 0.382684 0
    outer loop
      vertex -30.1 9.75 1
      vertex -30.8029 8.05294 -1
      vertex -30.8029 8.05294 1
    endloop
  endfacet
  facet normal 0.382684 0.923879 -0
    outer loop
      vertex -32.5 7.35 -1
      vertex -34.1971 8.05294 1
      vertex -32.5 7.35 1
    endloop
  endfacet
  facet normal 0.382684 0.923879 0
    outer loop
      vertex -34.1971 8.05294 1
      vertex -32.5 7.35 -1
      vertex -34.1971 8.05294 -1
    endloop
  endfacet
  facet normal 0.923879 0.382684 0
    outer loop
      vertex -34.1971 8.05294 1
      vertex -34.9 9.75 -1
      vertex -34.9 9.75 1
    endloop
  endfacet
  facet normal 0.923879 0.382684 0
    outer loop
      vertex -34.9 9.75 -1
      vertex -34.1971 8.05294 1
      vertex -34.1971 8.05294 -1
    endloop
  endfacet
  facet normal -0.382684 0.923879 0
    outer loop
      vertex -30.8029 8.05294 -1
      vertex -32.5 7.35 1
      vertex -30.8029 8.05294 1
    endloop
  endfacet
  facet normal -0.382684 0.923879 0
    outer loop
      vertex -32.5 7.35 1
      vertex -30.8029 8.05294 -1
      vertex -32.5 7.35 -1
    endloop
  endfacet
  facet normal -0.923879 -0.382684 0
    outer loop
      vertex 34.9 -9.75 -1
      vertex 34.1971 -8.05294 1
      vertex 34.1971 -8.05294 -1
    endloop
  endfacet
  facet normal -0.923879 -0.382684 0
    outer loop
      vertex 34.1971 -8.05294 1
      vertex 34.9 -9.75 -1
      vertex 34.9 -9.75 1
    endloop
  endfacet
  facet normal 0.923879 -0.382684 0
    outer loop
      vertex 30.1 -9.75 1
      vertex 30.8029 -8.05294 -1
      vertex 30.8029 -8.05294 1
    endloop
  endfacet
  facet normal 0.923879 -0.382684 0
    outer loop
      vertex 30.8029 -8.05294 -1
      vertex 30.1 -9.75 1
      vertex 30.1 -9.75 -1
    endloop
  endfacet
  facet normal 0.382684 -0.923879 0
    outer loop
      vertex 30.8029 -8.05294 -1
      vertex 32.5 -7.35 1
      vertex 30.8029 -8.05294 1
    endloop
  endfacet
  facet normal 0.382684 -0.923879 0
    outer loop
      vertex 32.5 -7.35 1
      vertex 30.8029 -8.05294 -1
      vertex 32.5 -7.35 -1
    endloop
  endfacet
  facet normal -0.382684 -0.923879 0
    outer loop
      vertex 32.5 -7.35 -1
      vertex 34.1971 -8.05294 1
      vertex 32.5 -7.35 1
    endloop
  endfacet
  facet normal -0.382684 -0.923879 -0
    outer loop
      vertex 34.1971 -8.05294 1
      vertex 32.5 -7.35 -1
      vertex 34.1971 -8.05294 -1
    endloop
  endfacet
  facet normal -0.382684 0.923879 0
    outer loop
      vertex 34.1971 -11.4471 -1
      vertex 32.5 -12.15 1
      vertex 34.1971 -11.4471 1
    endloop
  endfacet
  facet normal -0.382684 0.923879 0
    outer loop
      vertex 32.5 -12.15 1
      vertex 34.1971 -11.4471 -1
      vertex 32.5 -12.15 -1
    endloop
  endfacet
  facet normal 0.923879 0.382684 0
    outer loop
      vertex 30.8029 -11.4471 1
      vertex 30.1 -9.75 -1
      vertex 30.1 -9.75 1
    endloop
  endfacet
  facet normal 0.923879 0.382684 0
    outer loop
      vertex 30.1 -9.75 -1
      vertex 30.8029 -11.4471 1
      vertex 30.8029 -11.4471 -1
    endloop
  endfacet
  facet normal -0.923879 0.382684 0
    outer loop
      vertex 34.1971 -11.4471 -1
      vertex 34.9 -9.75 1
      vertex 34.9 -9.75 -1
    endloop
  endfacet
  facet normal -0.923879 0.382684 0
    outer loop
      vertex 34.9 -9.75 1
      vertex 34.1971 -11.4471 -1
      vertex 34.1971 -11.4471 1
    endloop
  endfacet
  facet normal 0.382684 0.923879 -0
    outer loop
      vertex 32.5 -12.15 -1
      vertex 30.8029 -11.4471 1
      vertex 32.5 -12.15 1
    endloop
  endfacet
  facet normal 0.382684 0.923879 0
    outer loop
      vertex 30.8029 -11.4471 1
      vertex 32.5 -12.15 -1
      vertex 30.8029 -11.4471 -1
    endloop
  endfacet
  facet normal -0.923879 -0.382684 0
    outer loop
      vertex -30.1 -9.75 -1
      vertex -30.8029 -8.05294 1
      vertex -30.8029 -8.05294 -1
    endloop
  endfacet
  facet normal -0.923879 -0.382684 0
    outer loop
      vertex -30.8029 -8.05294 1
      vertex -30.1 -9.75 -1
      vertex -30.1 -9.75 1
    endloop
  endfacet
  facet normal 0.923879 -0.382684 0
    outer loop
      vertex -34.9 -9.75 1
      vertex -34.1971 -8.05294 -1
      vertex -34.1971 -8.05294 1
    endloop
  endfacet
  facet normal 0.923879 -0.382684 0
    outer loop
      vertex -34.1971 -8.05294 -1
      vertex -34.9 -9.75 1
      vertex -34.9 -9.75 -1
    endloop
  endfacet
  facet normal -0.382684 -0.923879 0
    outer loop
      vertex -32.5 -7.35 -1
      vertex -30.8029 -8.05294 1
      vertex -32.5 -7.35 1
    endloop
  endfacet
  facet normal -0.382684 -0.923879 -0
    outer loop
      vertex -30.8029 -8.05294 1
      vertex -32.5 -7.35 -1
      vertex -30.8029 -8.05294 -1
    endloop
  endfacet
  facet normal -0.382684 0.923879 0
    outer loop
      vertex -30.8029 -11.4471 -1
      vertex -32.5 -12.15 1
      vertex -30.8029 -11.4471 1
    endloop
  endfacet
  facet normal -0.382684 0.923879 0
    outer loop
      vertex -32.5 -12.15 1
      vertex -30.8029 -11.4471 -1
      vertex -32.5 -12.15 -1
    endloop
  endfacet
  facet normal 0.382684 -0.923879 0
    outer loop
      vertex -34.1971 -8.05294 -1
      vertex -32.5 -7.35 1
      vertex -34.1971 -8.05294 1
    endloop
  endfacet
  facet normal 0.382684 -0.923879 0
    outer loop
      vertex -32.5 -7.35 1
      vertex -34.1971 -8.05294 -1
      vertex -32.5 -7.35 -1
    endloop
  endfacet
  facet normal -0.923879 0.382684 0
    outer loop
      vertex -30.8029 -11.4471 -1
      vertex -30.1 -9.75 1
      vertex -30.1 -9.75 -1
    endloop
  endfacet
  facet normal -0.923879 0.382684 0
    outer loop
      vertex -30.1 -9.75 1
      vertex -30.8029 -11.4471 -1
      vertex -30.8029 -11.4471 1
    endloop
  endfacet
  facet normal 0.382684 0.923879 -0
    outer loop
      vertex -32.5 -12.15 -1
      vertex -34.1971 -11.4471 1
      vertex -32.5 -12.15 1
    endloop
  endfacet
  facet normal 0.382684 0.923879 0
    outer loop
      vertex -34.1971 -11.4471 1
      vertex -32.5 -12.15 -1
      vertex -34.1971 -11.4471 -1
    endloop
  endfacet
  facet normal 0.923879 0.382684 0
    outer loop
      vertex -34.1971 -11.4471 1
      vertex -34.9 -9.75 -1
      vertex -34.9 -9.75 1
    endloop
  endfacet
  facet normal 0.923879 0.382684 0
    outer loop
      vertex -34.9 -9.75 -1
      vertex -34.1971 -11.4471 1
      vertex -34.1971 -11.4471 -1
    endloop
  endfacet
endsolid OpenSCAD_Model
