solid OpenSCAD_Model
  facet normal -1 0 0
    outer loop
      vertex -21.8 50 -3.2
      vertex -21.8 20 0.7
      vertex -21.8 50 0.7
    endloop
  endfacet
  facet normal -1 0 0
    outer loop
      vertex -21.8 20 0.7
      vertex -21.8 -40 0.7
      vertex -21.8 20 3.2
    endloop
  endfacet
  facet normal -1 0 0
    outer loop
      vertex -21.8 -50 -3.2
      vertex -21.8 20 0.7
      vertex -21.8 50 -3.2
    endloop
  endfacet
  facet normal -1 -0 0
    outer loop
      vertex -21.8 20 0.7
      vertex -21.8 -50 -3.2
      vertex -21.8 -40 0.7
    endloop
  endfacet
  facet normal -1 -0 0
    outer loop
      vertex -21.8 -40 0.7
      vertex -21.8 -50 -3.2
      vertex -21.8 -50 0.7
    endloop
  endfacet
  facet normal -1 -0 0
    outer loop
      vertex -21.8 20 3.2
      vertex -21.8 -40 0.7
      vertex -21.8 -40 3.2
    endloop
  endfacet
  facet normal 0 0 1
    outer loop
      vertex -19.3 50 3.2
      vertex -21.8 20 3.2
      vertex -19.3 -50 3.2
    endloop
  endfacet
  facet normal -0 0 1
    outer loop
      vertex -31.8 50 3.2
      vertex -21.8 20 3.2
      vertex -19.3 50 3.2
    endloop
  endfacet
  facet normal 0 0 1
    outer loop
      vertex -21.8 20 3.2
      vertex -31.8 50 3.2
      vertex -31.8 20 3.2
    endloop
  endfacet
  facet normal -0 0 1
    outer loop
      vertex -21.8 -40 3.2
      vertex -19.3 -50 3.2
      vertex -21.8 20 3.2
    endloop
  endfacet
  facet normal 0 0 1
    outer loop
      vertex -31.8 -50 3.2
      vertex -21.8 -40 3.2
      vertex -31.8 -40 3.2
    endloop
  endfacet
  facet normal 0 0 1
    outer loop
      vertex -21.8 -40 3.2
      vertex -31.8 -50 3.2
      vertex -19.3 -50 3.2
    endloop
  endfacet
  facet normal 0 0 1
    outer loop
      vertex 31.8 50 3.2
      vertex 21.8 20 3.2
      vertex 31.8 20 3.2
    endloop
  endfacet
  facet normal 0 0 1
    outer loop
      vertex 19.3 -50 3.2
      vertex 21.8 20 3.2
      vertex 19.3 50 3.2
    endloop
  endfacet
  facet normal -0 0 1
    outer loop
      vertex 19.3 50 3.2
      vertex 21.8 20 3.2
      vertex 31.8 50 3.2
    endloop
  endfacet
  facet normal -0 0 1
    outer loop
      vertex 21.8 -40 3.2
      vertex 31.8 -50 3.2
      vertex 31.8 -40 3.2
    endloop
  endfacet
  facet normal 0 0 1
    outer loop
      vertex 21.8 -40 3.2
      vertex 19.3 -50 3.2
      vertex 31.8 -50 3.2
    endloop
  endfacet
  facet normal 0 0 1
    outer loop
      vertex 21.8 20 3.2
      vertex 19.3 -50 3.2
      vertex 21.8 -40 3.2
    endloop
  endfacet
  facet normal 1 0 0
    outer loop
      vertex 21.8 20 3.2
      vertex 21.8 -40 3.2
      vertex 21.8 20 0.7
    endloop
  endfacet
  facet normal 1 -0 0
    outer loop
      vertex 21.8 20 0.7
      vertex 21.8 50 -3.2
      vertex 21.8 50 0.7
    endloop
  endfacet
  facet normal 1 0 0
    outer loop
      vertex 21.8 -40 0.7
      vertex 21.8 20 0.7
      vertex 21.8 -40 3.2
    endloop
  endfacet
  facet normal 1 0 0
    outer loop
      vertex 21.8 -50 -3.2
      vertex 21.8 20 0.7
      vertex 21.8 -40 0.7
    endloop
  endfacet
  facet normal 1 0 0
    outer loop
      vertex 21.8 -50 -3.2
      vertex 21.8 -40 0.7
      vertex 21.8 -50 0.7
    endloop
  endfacet
  facet normal 1 0 0
    outer loop
      vertex 21.8 20 0.7
      vertex 21.8 -50 -3.2
      vertex 21.8 50 -3.2
    endloop
  endfacet
  facet normal 0 1 0
    outer loop
      vertex -19.3 50 3.2
      vertex -21.8 50 0.7
      vertex -31.8 50 3.2
    endloop
  endfacet
  facet normal 0 1 -0
    outer loop
      vertex -19.3 50 -0.7
      vertex -21.8 50 0.7
      vertex -19.3 50 3.2
    endloop
  endfacet
  facet normal 0 1 0
    outer loop
      vertex -21.8 50 -3.2
      vertex -19.3 50 -0.7
      vertex -19.3 50 -3.2
    endloop
  endfacet
  facet normal 0 1 0
    outer loop
      vertex -19.3 50 -0.7
      vertex -21.8 50 -3.2
      vertex -21.8 50 0.7
    endloop
  endfacet
  facet normal 0 1 0
    outer loop
      vertex -31.8 50 3.2
      vertex -21.8 50 0.7
      vertex -31.8 50 0.7
    endloop
  endfacet
  facet normal 0 1 0
    outer loop
      vertex 21.8 50 0.7
      vertex 31.8 50 3.2
      vertex 31.8 50 0.7
    endloop
  endfacet
  facet normal 0 1 0
    outer loop
      vertex 31.8 50 3.2
      vertex 21.8 50 0.7
      vertex 19.3 50 3.2
    endloop
  endfacet
  facet normal 0 1 0
    outer loop
      vertex 21.8 50 0.7
      vertex 19.3 50 -0.7
      vertex 19.3 50 3.2
    endloop
  endfacet
  facet normal 0 1 -0
    outer loop
      vertex 21.8 50 -3.2
      vertex 19.3 50 -0.7
      vertex 21.8 50 0.7
    endloop
  endfacet
  facet normal 0 1 0
    outer loop
      vertex 19.3 50 -0.7
      vertex 21.8 50 -3.2
      vertex 19.3 50 -3.2
    endloop
  endfacet
  facet normal 0 0 -1
    outer loop
      vertex 17.6314 42.15 -3.2
      vertex 21.8 50 -3.2
      vertex 21.8 -50 -3.2
    endloop
  endfacet
  facet normal -0 0 -1
    outer loop
      vertex 21.8 50 -3.2
      vertex 18.8782 45.9873 -3.2
      vertex 19.3 50 -3.2
    endloop
  endfacet
  facet normal 0 0 -1
    outer loop
      vertex 21.8 50 -3.2
      vertex 17.6314 42.15 -3.2
      vertex 18.8782 45.9873 -3.2
    endloop
  endfacet
  facet normal 0 0 -1
    outer loop
      vertex 21.8 -50 -3.2
      vertex 15.614 38.6557 -3.2
      vertex 17.6314 42.15 -3.2
    endloop
  endfacet
  facet normal 0 0 -1
    outer loop
      vertex 21.8 -50 -3.2
      vertex 12.9142 35.6573 -3.2
      vertex 15.614 38.6557 -3.2
    endloop
  endfacet
  facet normal 0 0 -1
    outer loop
      vertex 21.8 -50 -3.2
      vertex 9.65 33.2857 -3.2
      vertex 12.9142 35.6573 -3.2
    endloop
  endfacet
  facet normal 0 0 -1
    outer loop
      vertex 21.8 -50 -3.2
      vertex 5.96403 31.6446 -3.2
      vertex 9.65 33.2857 -3.2
    endloop
  endfacet
  facet normal 0 0 -1
    outer loop
      vertex 21.8 -50 -3.2
      vertex 2.0174 30.8057 -3.2
      vertex 5.96403 31.6446 -3.2
    endloop
  endfacet
  facet normal 0 0 -1
    outer loop
      vertex 21.8 -50 -3.2
      vertex -2.0174 30.8057 -3.2
      vertex 2.0174 30.8057 -3.2
    endloop
  endfacet
  facet normal 0 0 -1
    outer loop
      vertex -21.8 -50 -3.2
      vertex -2.0174 30.8057 -3.2
      vertex 21.8 -50 -3.2
    endloop
  endfacet
  facet normal -0 0 -1
    outer loop
      vertex -2.0174 30.8057 -3.2
      vertex -21.8 -50 -3.2
      vertex -5.96403 31.6446 -3.2
    endloop
  endfacet
  facet normal -0 0 -1
    outer loop
      vertex -5.96403 31.6446 -3.2
      vertex -21.8 -50 -3.2
      vertex -9.65 33.2857 -3.2
    endloop
  endfacet
  facet normal -0 0 -1
    outer loop
      vertex -9.65 33.2857 -3.2
      vertex -21.8 -50 -3.2
      vertex -12.9142 35.6573 -3.2
    endloop
  endfacet
  facet normal -0 0 -1
    outer loop
      vertex -12.9142 35.6573 -3.2
      vertex -21.8 -50 -3.2
      vertex -15.614 38.6557 -3.2
    endloop
  endfacet
  facet normal -0 0 -1
    outer loop
      vertex -15.614 38.6557 -3.2
      vertex -21.8 -50 -3.2
      vertex -17.6314 42.15 -3.2
    endloop
  endfacet
  facet normal 0 0 -1
    outer loop
      vertex -21.8 50 -3.2
      vertex -17.6314 42.15 -3.2
      vertex -21.8 -50 -3.2
    endloop
  endfacet
  facet normal 0 0 -1
    outer loop
      vertex -17.6314 42.15 -3.2
      vertex -21.8 50 -3.2
      vertex -18.8782 45.9873 -3.2
    endloop
  endfacet
  facet normal 0 0 -1
    outer loop
      vertex -18.8782 45.9873 -3.2
      vertex -21.8 50 -3.2
      vertex -19.3 50 -3.2
    endloop
  endfacet
  facet normal 0 -1 0
    outer loop
      vertex -21.8 -50 0.7
      vertex -31.8 -50 3.2
      vertex -31.8 -50 0.7
    endloop
  endfacet
  facet normal 0 -1 0
    outer loop
      vertex -31.8 -50 3.2
      vertex -21.8 -50 0.7
      vertex -19.3 -50 3.2
    endloop
  endfacet
  facet normal 0 -1 0
    outer loop
      vertex -21.8 -50 0.7
      vertex -19.3 -50 -0.7
      vertex -19.3 -50 3.2
    endloop
  endfacet
  facet normal 0 -1 -0
    outer loop
      vertex -19.3 -50 -0.7
      vertex -21.8 -50 -3.2
      vertex 19.3 -50 -0.7
    endloop
  endfacet
  facet normal 0 -1 0
    outer loop
      vertex -21.8 -50 -3.2
      vertex -19.3 -50 -0.7
      vertex -21.8 -50 0.7
    endloop
  endfacet
  facet normal 0 -1 0
    outer loop
      vertex 19.3 -50 3.2
      vertex 21.8 -50 0.7
      vertex 31.8 -50 3.2
    endloop
  endfacet
  facet normal 0 -1 0
    outer loop
      vertex 19.3 -50 -0.7
      vertex 21.8 -50 0.7
      vertex 19.3 -50 3.2
    endloop
  endfacet
  facet normal 0 -1 0
    outer loop
      vertex 19.3 -50 -0.7
      vertex 21.8 -50 -3.2
      vertex 21.8 -50 0.7
    endloop
  endfacet
  facet normal 0 -1 0
    outer loop
      vertex 21.8 -50 -3.2
      vertex 19.3 -50 -0.7
      vertex -21.8 -50 -3.2
    endloop
  endfacet
  facet normal 0 -1 -0
    outer loop
      vertex 31.8 -50 3.2
      vertex 21.8 -50 0.7
      vertex 31.8 -50 0.7
    endloop
  endfacet
  facet normal 1 -0 0
    outer loop
      vertex -19.3 -50 3.2
      vertex -19.3 50 -0.7
      vertex -19.3 50 3.2
    endloop
  endfacet
  facet normal 1 0 0
    outer loop
      vertex -19.3 50 -0.7
      vertex -19.3 -50 3.2
      vertex -19.3 -50 -0.7
    endloop
  endfacet
  facet normal -1 0 0
    outer loop
      vertex 19.3 -50 -0.7
      vertex 19.3 50 3.2
      vertex 19.3 50 -0.7
    endloop
  endfacet
  facet normal -1 -0 0
    outer loop
      vertex 19.3 50 3.2
      vertex 19.3 -50 -0.7
      vertex 19.3 -50 3.2
    endloop
  endfacet
  facet normal -0 0 1
    outer loop
      vertex 18.8782 45.9873 -0.7
      vertex 19.3 -50 -0.7
      vertex 19.3 50 -0.7
    endloop
  endfacet
  facet normal -0 0 1
    outer loop
      vertex 17.6314 42.15 -0.7
      vertex 19.3 -50 -0.7
      vertex 18.8782 45.9873 -0.7
    endloop
  endfacet
  facet normal -0 0 1
    outer loop
      vertex 15.614 38.6557 -0.7
      vertex 19.3 -50 -0.7
      vertex 17.6314 42.15 -0.7
    endloop
  endfacet
  facet normal -0 0 1
    outer loop
      vertex 12.9142 35.6573 -0.7
      vertex 19.3 -50 -0.7
      vertex 15.614 38.6557 -0.7
    endloop
  endfacet
  facet normal -0 0 1
    outer loop
      vertex 9.65 33.2857 -0.7
      vertex 19.3 -50 -0.7
      vertex 12.9142 35.6573 -0.7
    endloop
  endfacet
  facet normal -0 0 1
    outer loop
      vertex 5.96403 31.6446 -0.7
      vertex 19.3 -50 -0.7
      vertex 9.65 33.2857 -0.7
    endloop
  endfacet
  facet normal -0 0 1
    outer loop
      vertex 2.0174 30.8057 -0.7
      vertex 19.3 -50 -0.7
      vertex 5.96403 31.6446 -0.7
    endloop
  endfacet
  facet normal -0 0 1
    outer loop
      vertex -2.0174 30.8057 -0.7
      vertex 19.3 -50 -0.7
      vertex 2.0174 30.8057 -0.7
    endloop
  endfacet
  facet normal 0 0 1
    outer loop
      vertex -19.3 -50 -0.7
      vertex -2.0174 30.8057 -0.7
      vertex -5.96403 31.6446 -0.7
    endloop
  endfacet
  facet normal 0 0 1
    outer loop
      vertex -19.3 -50 -0.7
      vertex -5.96403 31.6446 -0.7
      vertex -9.65 33.2857 -0.7
    endloop
  endfacet
  facet normal 0 0 1
    outer loop
      vertex -19.3 -50 -0.7
      vertex -9.65 33.2857 -0.7
      vertex -12.9142 35.6573 -0.7
    endloop
  endfacet
  facet normal 0 0 1
    outer loop
      vertex -19.3 -50 -0.7
      vertex -12.9142 35.6573 -0.7
      vertex -15.614 38.6557 -0.7
    endloop
  endfacet
  facet normal 0 0 1
    outer loop
      vertex -19.3 -50 -0.7
      vertex -15.614 38.6557 -0.7
      vertex -17.6314 42.15 -0.7
    endloop
  endfacet
  facet normal 0 0 1
    outer loop
      vertex -2.0174 30.8057 -0.7
      vertex -19.3 -50 -0.7
      vertex 19.3 -50 -0.7
    endloop
  endfacet
  facet normal 0 0 1
    outer loop
      vertex -18.8782 45.9873 -0.7
      vertex -19.3 -50 -0.7
      vertex -17.6314 42.15 -0.7
    endloop
  endfacet
  facet normal 0 0 1
    outer loop
      vertex -19.3 -50 -0.7
      vertex -18.8782 45.9873 -0.7
      vertex -19.3 50 -0.7
    endloop
  endfacet
  facet normal -0.994522 0.104528 0
    outer loop
      vertex 18.8782 45.9873 -3.2
      vertex 19.3 50 -0.7
      vertex 19.3 50 -3.2
    endloop
  endfacet
  facet normal -0.994522 0.104528 0
    outer loop
      vertex 19.3 50 -0.7
      vertex 18.8782 45.9873 -3.2
      vertex 18.8782 45.9873 -0.7
    endloop
  endfacet
  facet normal 0.994522 0.104528 0
    outer loop
      vertex -18.8782 45.9873 -0.7
      vertex -19.3 50 -3.2
      vertex -19.3 50 -0.7
    endloop
  endfacet
  facet normal 0.994522 0.104528 0
    outer loop
      vertex -19.3 50 -3.2
      vertex -18.8782 45.9873 -0.7
      vertex -18.8782 45.9873 -3.2
    endloop
  endfacet
  facet normal -0.587785 0.809017 0
    outer loop
      vertex 12.9142 35.6573 -3.2
      vertex 9.65 33.2857 -0.7
      vertex 12.9142 35.6573 -0.7
    endloop
  endfacet
  facet normal -0.587785 0.809017 0
    outer loop
      vertex 9.65 33.2857 -0.7
      vertex 12.9142 35.6573 -3.2
      vertex 9.65 33.2857 -3.2
    endloop
  endfacet
  facet normal -0.951057 0.309017 0
    outer loop
      vertex 17.6314 42.15 -3.2
      vertex 18.8782 45.9873 -0.7
      vertex 18.8782 45.9873 -3.2
    endloop
  endfacet
  facet normal -0.951057 0.309017 0
    outer loop
      vertex 18.8782 45.9873 -0.7
      vertex 17.6314 42.15 -3.2
      vertex 17.6314 42.15 -0.7
    endloop
  endfacet
  facet normal 0 1 -0
    outer loop
      vertex 2.0174 30.8057 -3.2
      vertex -2.0174 30.8057 -0.7
      vertex 2.0174 30.8057 -0.7
    endloop
  endfacet
  facet normal 0 1 0
    outer loop
      vertex -2.0174 30.8057 -0.7
      vertex 2.0174 30.8057 -3.2
      vertex -2.0174 30.8057 -3.2
    endloop
  endfacet
  facet normal -0.406737 0.913545 0
    outer loop
      vertex 9.65 33.2857 -3.2
      vertex 5.96403 31.6446 -0.7
      vertex 9.65 33.2857 -0.7
    endloop
  endfacet
  facet normal -0.406737 0.913545 0
    outer loop
      vertex 5.96403 31.6446 -0.7
      vertex 9.65 33.2857 -3.2
      vertex 5.96403 31.6446 -3.2
    endloop
  endfacet
  facet normal -0.866025 0.5 0
    outer loop
      vertex 15.614 38.6557 -3.2
      vertex 17.6314 42.15 -0.7
      vertex 17.6314 42.15 -3.2
    endloop
  endfacet
  facet normal -0.866025 0.5 0
    outer loop
      vertex 17.6314 42.15 -0.7
      vertex 15.614 38.6557 -3.2
      vertex 15.614 38.6557 -0.7
    endloop
  endfacet
  facet normal 0.951057 0.309017 0
    outer loop
      vertex -17.6314 42.15 -0.7
      vertex -18.8782 45.9873 -3.2
      vertex -18.8782 45.9873 -0.7
    endloop
  endfacet
  facet normal 0.951057 0.309017 0
    outer loop
      vertex -18.8782 45.9873 -3.2
      vertex -17.6314 42.15 -0.7
      vertex -17.6314 42.15 -3.2
    endloop
  endfacet
  facet normal -0.743145 0.66913 0
    outer loop
      vertex 12.9142 35.6573 -3.2
      vertex 15.614 38.6557 -0.7
      vertex 15.614 38.6557 -3.2
    endloop
  endfacet
  facet normal -0.743145 0.66913 0
    outer loop
      vertex 15.614 38.6557 -0.7
      vertex 12.9142 35.6573 -3.2
      vertex 12.9142 35.6573 -0.7
    endloop
  endfacet
  facet normal 0.406737 0.913545 -0
    outer loop
      vertex -5.96403 31.6446 -3.2
      vertex -9.65 33.2857 -0.7
      vertex -5.96403 31.6446 -0.7
    endloop
  endfacet
  facet normal 0.406737 0.913545 0
    outer loop
      vertex -9.65 33.2857 -0.7
      vertex -5.96403 31.6446 -3.2
      vertex -9.65 33.2857 -3.2
    endloop
  endfacet
  facet normal -0.207911 0.978148 0
    outer loop
      vertex 5.96403 31.6446 -3.2
      vertex 2.0174 30.8057 -0.7
      vertex 5.96403 31.6446 -0.7
    endloop
  endfacet
  facet normal -0.207911 0.978148 0
    outer loop
      vertex 2.0174 30.8057 -0.7
      vertex 5.96403 31.6446 -3.2
      vertex 2.0174 30.8057 -3.2
    endloop
  endfacet
  facet normal 0.866025 0.5 0
    outer loop
      vertex -15.614 38.6557 -0.7
      vertex -17.6314 42.15 -3.2
      vertex -17.6314 42.15 -0.7
    endloop
  endfacet
  facet normal 0.866025 0.5 0
    outer loop
      vertex -17.6314 42.15 -3.2
      vertex -15.614 38.6557 -0.7
      vertex -15.614 38.6557 -3.2
    endloop
  endfacet
  facet normal 0.587785 0.809017 -0
    outer loop
      vertex -9.65 33.2857 -3.2
      vertex -12.9142 35.6573 -0.7
      vertex -9.65 33.2857 -0.7
    endloop
  endfacet
  facet normal 0.587785 0.809017 0
    outer loop
      vertex -12.9142 35.6573 -0.7
      vertex -9.65 33.2857 -3.2
      vertex -12.9142 35.6573 -3.2
    endloop
  endfacet
  facet normal 0.743145 0.66913 0
    outer loop
      vertex -12.9142 35.6573 -0.7
      vertex -15.614 38.6557 -3.2
      vertex -15.614 38.6557 -0.7
    endloop
  endfacet
  facet normal 0.743145 0.66913 0
    outer loop
      vertex -15.614 38.6557 -3.2
      vertex -12.9142 35.6573 -0.7
      vertex -12.9142 35.6573 -3.2
    endloop
  endfacet
  facet normal 0.207911 0.978148 -0
    outer loop
      vertex -2.0174 30.8057 -3.2
      vertex -5.96403 31.6446 -0.7
      vertex -2.0174 30.8057 -0.7
    endloop
  endfacet
  facet normal 0.207911 0.978148 0
    outer loop
      vertex -5.96403 31.6446 -0.7
      vertex -2.0174 30.8057 -3.2
      vertex -5.96403 31.6446 -3.2
    endloop
  endfacet
  facet normal 1 -0 0
    outer loop
      vertex 31.8 20 3.2
      vertex 31.8 50 0.7
      vertex 31.8 50 3.2
    endloop
  endfacet
  facet normal 1 0 0
    outer loop
      vertex 31.8 50 0.7
      vertex 31.8 20 3.2
      vertex 31.8 20 0.7
    endloop
  endfacet
  facet normal 0 0 -1
    outer loop
      vertex 21.8 20 0.7
      vertex 31.8 50 0.7
      vertex 31.8 20 0.7
    endloop
  endfacet
  facet normal -0 0 -1
    outer loop
      vertex 31.8 50 0.7
      vertex 21.8 20 0.7
      vertex 21.8 50 0.7
    endloop
  endfacet
  facet normal 0 -1 0
    outer loop
      vertex 21.8 20 0.7
      vertex 31.8 20 3.2
      vertex 21.8 20 3.2
    endloop
  endfacet
  facet normal 0 -1 -0
    outer loop
      vertex 31.8 20 3.2
      vertex 21.8 20 0.7
      vertex 31.8 20 0.7
    endloop
  endfacet
  facet normal -1 0 0
    outer loop
      vertex -31.8 20 0.7
      vertex -31.8 50 3.2
      vertex -31.8 50 0.7
    endloop
  endfacet
  facet normal -1 -0 0
    outer loop
      vertex -31.8 50 3.2
      vertex -31.8 20 0.7
      vertex -31.8 20 3.2
    endloop
  endfacet
  facet normal 0 0 -1
    outer loop
      vertex -31.8 20 0.7
      vertex -21.8 50 0.7
      vertex -21.8 20 0.7
    endloop
  endfacet
  facet normal -0 0 -1
    outer loop
      vertex -21.8 50 0.7
      vertex -31.8 20 0.7
      vertex -31.8 50 0.7
    endloop
  endfacet
  facet normal 0 -1 0
    outer loop
      vertex -31.8 20 0.7
      vertex -21.8 20 3.2
      vertex -31.8 20 3.2
    endloop
  endfacet
  facet normal 0 -1 -0
    outer loop
      vertex -21.8 20 3.2
      vertex -31.8 20 0.7
      vertex -21.8 20 0.7
    endloop
  endfacet
  facet normal 1 -0 0
    outer loop
      vertex 31.8 -50 3.2
      vertex 31.8 -40 0.7
      vertex 31.8 -40 3.2
    endloop
  endfacet
  facet normal 1 0 0
    outer loop
      vertex 31.8 -40 0.7
      vertex 31.8 -50 3.2
      vertex 31.8 -50 0.7
    endloop
  endfacet
  facet normal 0 0 -1
    outer loop
      vertex 21.8 -50 0.7
      vertex 31.8 -40 0.7
      vertex 31.8 -50 0.7
    endloop
  endfacet
  facet normal -0 0 -1
    outer loop
      vertex 31.8 -40 0.7
      vertex 21.8 -50 0.7
      vertex 21.8 -40 0.7
    endloop
  endfacet
  facet normal 0 1 -0
    outer loop
      vertex 31.8 -40 0.7
      vertex 21.8 -40 3.2
      vertex 31.8 -40 3.2
    endloop
  endfacet
  facet normal 0 1 0
    outer loop
      vertex 21.8 -40 3.2
      vertex 31.8 -40 0.7
      vertex 21.8 -40 0.7
    endloop
  endfacet
  facet normal -1 0 0
    outer loop
      vertex -31.8 -50 0.7
      vertex -31.8 -40 3.2
      vertex -31.8 -40 0.7
    endloop
  endfacet
  facet normal -1 -0 0
    outer loop
      vertex -31.8 -40 3.2
      vertex -31.8 -50 0.7
      vertex -31.8 -50 3.2
    endloop
  endfacet
  facet normal 0 1 -0
    outer loop
      vertex -21.8 -40 0.7
      vertex -31.8 -40 3.2
      vertex -21.8 -40 3.2
    endloop
  endfacet
  facet normal 0 1 0
    outer loop
      vertex -31.8 -40 3.2
      vertex -21.8 -40 0.7
      vertex -31.8 -40 0.7
    endloop
  endfacet
  facet normal 0 0 -1
    outer loop
      vertex -31.8 -50 0.7
      vertex -21.8 -40 0.7
      vertex -21.8 -50 0.7
    endloop
  endfacet
  facet normal -0 0 -1
    outer loop
      vertex -21.8 -40 0.7
      vertex -31.8 -50 0.7
      vertex -31.8 -40 0.7
    endloop
  endfacet
endsolid OpenSCAD_Model
