solid OpenSCAD_Model
  facet normal 1 -0 0
    outer loop
      vertex -21.8 -130 3.2
      vertex -21.8 -120.375 0.7
      vertex -21.8 -120.375 3.2
    endloop
  endfacet
  facet normal 1 0 0
    outer loop
      vertex -21.8 -120.375 0.7
      vertex -21.8 -130 3.2
      vertex -21.8 -130 0.7
    endloop
  endfacet
  facet normal -1 0 0
    outer loop
      vertex -21.8 50 -3.2
      vertex -21.8 0 0.7
      vertex -21.8 50 0.7
    endloop
  endfacet
  facet normal -1 0 0
    outer loop
      vertex -21.8 0 0.7
      vertex -21.8 -40 0.7
      vertex -21.8 0 3.2
    endloop
  endfacet
  facet normal -1 0 0
    outer loop
      vertex -21.8 -50 -3.2
      vertex -21.8 0 0.7
      vertex -21.8 50 -3.2
    endloop
  endfacet
  facet normal -1 -0 0
    outer loop
      vertex -21.8 0 0.7
      vertex -21.8 -50 -3.2
      vertex -21.8 -40 0.7
    endloop
  endfacet
  facet normal -1 -0 0
    outer loop
      vertex -21.8 -40 0.7
      vertex -21.8 -50 -3.2
      vertex -21.8 -50 0.7
    endloop
  endfacet
  facet normal -1 -0 0
    outer loop
      vertex -21.8 0 3.2
      vertex -21.8 -40 0.7
      vertex -21.8 -40 3.2
    endloop
  endfacet
  facet normal 1 -0 0
    outer loop
      vertex -21.8 -79.625 3.2
      vertex -21.8 -50 0.7
      vertex -21.8 -50 3.2
    endloop
  endfacet
  facet normal 1 0 0
    outer loop
      vertex -21.8 -50 0.7
      vertex -21.8 -79.625 3.2
      vertex -21.8 -79.625 0.7
    endloop
  endfacet
  facet normal 1 -0 0
    outer loop
      vertex -21.8 50 3.2
      vertex -21.8 80 0.7
      vertex -21.8 80 3.2
    endloop
  endfacet
  facet normal 1 0 0
    outer loop
      vertex -21.8 80 0.7
      vertex -21.8 50 3.2
      vertex -21.8 50 0.7
    endloop
  endfacet
  facet normal 0 0 1
    outer loop
      vertex -21.8 0 3.2
      vertex -20 50 3.2
      vertex -21.8 50 3.2
    endloop
  endfacet
  facet normal 0 0 1
    outer loop
      vertex -20 50 3.2
      vertex -21.8 0 3.2
      vertex -20 -50 3.2
    endloop
  endfacet
  facet normal -0 0 1
    outer loop
      vertex -21.8 -40 3.2
      vertex -20 -50 3.2
      vertex -21.8 0 3.2
    endloop
  endfacet
  facet normal 0 0 1
    outer loop
      vertex -21.8 -40 3.2
      vertex -21.8 -50 3.2
      vertex -20 -50 3.2
    endloop
  endfacet
  facet normal -0 0 1
    outer loop
      vertex -50 -40 3.2
      vertex -21.8 -50 3.2
      vertex -21.8 -40 3.2
    endloop
  endfacet
  facet normal 0 0 1
    outer loop
      vertex -21.8 -50 3.2
      vertex -42.65 -79.625 3.2
      vertex -21.8 -79.625 3.2
    endloop
  endfacet
  facet normal 0 0 1
    outer loop
      vertex -50 -130 3.2
      vertex -42.65 -79.625 3.2
      vertex -50 -40 3.2
    endloop
  endfacet
  facet normal 0 0 1
    outer loop
      vertex -21.8 -50 3.2
      vertex -50 -40 3.2
      vertex -42.65 -79.625 3.2
    endloop
  endfacet
  facet normal -0 0 1
    outer loop
      vertex -40 80 3.2
      vertex -21.8 50 3.2
      vertex -21.8 80 3.2
    endloop
  endfacet
  facet normal 0 0 1
    outer loop
      vertex -40 0 3.2
      vertex -21.8 50 3.2
      vertex -40 80 3.2
    endloop
  endfacet
  facet normal 0 0 1
    outer loop
      vertex -21.8 50 3.2
      vertex -40 0 3.2
      vertex -21.8 0 3.2
    endloop
  endfacet
  facet normal -0 0 1
    outer loop
      vertex -42.65 -120.375 3.2
      vertex -21.8 -130 3.2
      vertex -21.8 -120.375 3.2
    endloop
  endfacet
  facet normal 0 0 1
    outer loop
      vertex -42.65 -120.375 3.2
      vertex -50 -130 3.2
      vertex -21.8 -130 3.2
    endloop
  endfacet
  facet normal 0 0 1
    outer loop
      vertex -42.65 -79.625 3.2
      vertex -50 -130 3.2
      vertex -42.65 -120.375 3.2
    endloop
  endfacet
  facet normal 0 0 1
    outer loop
      vertex 21.8 50 3.2
      vertex 40 80 3.2
      vertex 21.8 80 3.2
    endloop
  endfacet
  facet normal 0 0 1
    outer loop
      vertex 40 80 3.2
      vertex 21.8 50 3.2
      vertex 40 0 3.2
    endloop
  endfacet
  facet normal 0 0 1
    outer loop
      vertex 21.8 50 3.2
      vertex 21.8 0 3.2
      vertex 40 0 3.2
    endloop
  endfacet
  facet normal -0 0 1
    outer loop
      vertex 20 50 3.2
      vertex 21.8 0 3.2
      vertex 21.8 50 3.2
    endloop
  endfacet
  facet normal 0 0 1
    outer loop
      vertex 20 -50 3.2
      vertex 21.8 0 3.2
      vertex 20 50 3.2
    endloop
  endfacet
  facet normal -0 0 1
    outer loop
      vertex 21.8 -40 3.2
      vertex 40 -50 3.2
      vertex 40 -40 3.2
    endloop
  endfacet
  facet normal 0 0 1
    outer loop
      vertex 21.8 -40 3.2
      vertex 20 -50 3.2
      vertex 40 -50 3.2
    endloop
  endfacet
  facet normal 0 0 1
    outer loop
      vertex 21.8 0 3.2
      vertex 20 -50 3.2
      vertex 21.8 -40 3.2
    endloop
  endfacet
  facet normal 1 0 0
    outer loop
      vertex 21.8 0 3.2
      vertex 21.8 -40 3.2
      vertex 21.8 0 0.7
    endloop
  endfacet
  facet normal 1 -0 0
    outer loop
      vertex 21.8 0 0.7
      vertex 21.8 50 -3.2
      vertex 21.8 50 0.7
    endloop
  endfacet
  facet normal 1 0 0
    outer loop
      vertex 21.8 -40 0.7
      vertex 21.8 0 0.7
      vertex 21.8 -40 3.2
    endloop
  endfacet
  facet normal 1 0 0
    outer loop
      vertex 21.8 -50 -3.2
      vertex 21.8 0 0.7
      vertex 21.8 -40 0.7
    endloop
  endfacet
  facet normal 1 0 0
    outer loop
      vertex 21.8 -50 -3.2
      vertex 21.8 -40 0.7
      vertex 21.8 -50 0.7
    endloop
  endfacet
  facet normal 1 0 0
    outer loop
      vertex 21.8 0 0.7
      vertex 21.8 -50 -3.2
      vertex 21.8 50 -3.2
    endloop
  endfacet
  facet normal -1 0 0
    outer loop
      vertex 21.8 50 0.7
      vertex 21.8 80 3.2
      vertex 21.8 80 0.7
    endloop
  endfacet
  facet normal -1 -0 0
    outer loop
      vertex 21.8 80 3.2
      vertex 21.8 50 0.7
      vertex 21.8 50 3.2
    endloop
  endfacet
  facet normal 0 1 -0
    outer loop
      vertex 21.8 50 0.7
      vertex 20 50 3.2
      vertex 21.8 50 3.2
    endloop
  endfacet
  facet normal 0 1 0
    outer loop
      vertex 21.8 50 0.7
      vertex 20 50 -0.7
      vertex 20 50 3.2
    endloop
  endfacet
  facet normal 0 1 -0
    outer loop
      vertex 21.8 50 -3.2
      vertex 20 50 -0.7
      vertex 21.8 50 0.7
    endloop
  endfacet
  facet normal 0 1 0
    outer loop
      vertex 19.3 50 -3.2
      vertex 20 50 -0.7
      vertex 21.8 50 -3.2
    endloop
  endfacet
  facet normal 0 1 0
    outer loop
      vertex 20 50 -0.7
      vertex 19.3 50 -3.2
      vertex 19.3 50 -0.7
    endloop
  endfacet
  facet normal 0 1 0
    outer loop
      vertex -19.3 50 -0.7
      vertex -19.3 50 -3.2
      vertex -20 50 -0.7
    endloop
  endfacet
  facet normal 0 1 0
    outer loop
      vertex -20 50 3.2
      vertex -21.8 50 0.7
      vertex -21.8 50 3.2
    endloop
  endfacet
  facet normal 0 1 -0
    outer loop
      vertex -20 50 -0.7
      vertex -21.8 50 0.7
      vertex -20 50 3.2
    endloop
  endfacet
  facet normal 0 1 0
    outer loop
      vertex -21.8 50 -3.2
      vertex -20 50 -0.7
      vertex -19.3 50 -3.2
    endloop
  endfacet
  facet normal 0 1 0
    outer loop
      vertex -20 50 -0.7
      vertex -21.8 50 -3.2
      vertex -21.8 50 0.7
    endloop
  endfacet
  facet normal 0 0 -1
    outer loop
      vertex 17.4632 41.7825 -3.2
      vertex 21.8 50 -3.2
      vertex 21.8 -50 -3.2
    endloop
  endfacet
  facet normal -0 0 -1
    outer loop
      vertex 21.8 50 -3.2
      vertex 19.2619 48.7881 -3.2
      vertex 19.3 50 -3.2
    endloop
  endfacet
  facet normal 0 0 -1
    outer loop
      vertex 21.8 50 -3.2
      vertex 19.1478 47.5811 -3.2
      vertex 19.2619 48.7881 -3.2
    endloop
  endfacet
  facet normal 0 0 -1
    outer loop
      vertex 21.8 50 -3.2
      vertex 18.9581 46.3835 -3.2
      vertex 19.1478 47.5811 -3.2
    endloop
  endfacet
  facet normal 0 0 -1
    outer loop
      vertex 21.8 50 -3.2
      vertex 18.6937 45.2003 -3.2
      vertex 18.9581 46.3835 -3.2
    endloop
  endfacet
  facet normal 0 0 -1
    outer loop
      vertex 21.8 50 -3.2
      vertex 18.3554 44.036 -3.2
      vertex 18.6937 45.2003 -3.2
    endloop
  endfacet
  facet normal 0 0 -1
    outer loop
      vertex 21.8 50 -3.2
      vertex 17.9447 42.8952 -3.2
      vertex 18.3554 44.036 -3.2
    endloop
  endfacet
  facet normal 0 0 -1
    outer loop
      vertex 21.8 50 -3.2
      vertex 17.4632 41.7825 -3.2
      vertex 17.9447 42.8952 -3.2
    endloop
  endfacet
  facet normal 0 0 -1
    outer loop
      vertex 21.8 -50 -3.2
      vertex 16.9127 40.7022 -3.2
      vertex 17.4632 41.7825 -3.2
    endloop
  endfacet
  facet normal 0 0 -1
    outer loop
      vertex 21.8 -50 -3.2
      vertex 16.2955 39.6585 -3.2
      vertex 16.9127 40.7022 -3.2
    endloop
  endfacet
  facet normal 0 0 -1
    outer loop
      vertex 21.8 -50 -3.2
      vertex 15.614 38.6557 -3.2
      vertex 16.2955 39.6585 -3.2
    endloop
  endfacet
  facet normal 0 0 -1
    outer loop
      vertex 21.8 -50 -3.2
      vertex 14.8709 37.6977 -3.2
      vertex 15.614 38.6557 -3.2
    endloop
  endfacet
  facet normal 0 0 -1
    outer loop
      vertex 21.8 -50 -3.2
      vertex 14.0691 36.7882 -3.2
      vertex 14.8709 37.6977 -3.2
    endloop
  endfacet
  facet normal 0 0 -1
    outer loop
      vertex 21.8 -50 -3.2
      vertex 13.2118 35.9309 -3.2
      vertex 14.0691 36.7882 -3.2
    endloop
  endfacet
  facet normal 0 0 -1
    outer loop
      vertex 21.8 -50 -3.2
      vertex 12.3023 35.1291 -3.2
      vertex 13.2118 35.9309 -3.2
    endloop
  endfacet
  facet normal 0 0 -1
    outer loop
      vertex 21.8 -50 -3.2
      vertex 11.3443 34.386 -3.2
      vertex 12.3023 35.1291 -3.2
    endloop
  endfacet
  facet normal 0 0 -1
    outer loop
      vertex 21.8 -50 -3.2
      vertex 10.3415 33.7045 -3.2
      vertex 11.3443 34.386 -3.2
    endloop
  endfacet
  facet normal 0 0 -1
    outer loop
      vertex 21.8 -50 -3.2
      vertex 9.29785 33.0873 -3.2
      vertex 10.3415 33.7045 -3.2
    endloop
  endfacet
  facet normal 0 0 -1
    outer loop
      vertex 21.8 -50 -3.2
      vertex 8.21754 32.5368 -3.2
      vertex 9.29785 33.0873 -3.2
    endloop
  endfacet
  facet normal 0 0 -1
    outer loop
      vertex 21.8 -50 -3.2
      vertex 7.1048 32.0553 -3.2
      vertex 8.21754 32.5368 -3.2
    endloop
  endfacet
  facet normal 0 0 -1
    outer loop
      vertex 21.8 -50 -3.2
      vertex 5.96403 31.6446 -3.2
      vertex 7.1048 32.0553 -3.2
    endloop
  endfacet
  facet normal 0 0 -1
    outer loop
      vertex 21.8 -50 -3.2
      vertex 4.79971 31.3063 -3.2
      vertex 5.96403 31.6446 -3.2
    endloop
  endfacet
  facet normal 0 0 -1
    outer loop
      vertex 21.8 -50 -3.2
      vertex 3.61646 31.0419 -3.2
      vertex 4.79971 31.3063 -3.2
    endloop
  endfacet
  facet normal 0 0 -1
    outer loop
      vertex 21.8 -50 -3.2
      vertex 2.41893 30.8522 -3.2
      vertex 3.61646 31.0419 -3.2
    endloop
  endfacet
  facet normal 0 0 -1
    outer loop
      vertex 21.8 -50 -3.2
      vertex 1.21186 30.7381 -3.2
      vertex 2.41893 30.8522 -3.2
    endloop
  endfacet
  facet normal 0 0 -1
    outer loop
      vertex 21.8 -50 -3.2
      vertex 0 30.7 -3.2
      vertex 1.21186 30.7381 -3.2
    endloop
  endfacet
  facet normal 0 0 -1
    outer loop
      vertex -21.8 -50 -3.2
      vertex 0 30.7 -3.2
      vertex 21.8 -50 -3.2
    endloop
  endfacet
  facet normal -0 0 -1
    outer loop
      vertex 0 30.7 -3.2
      vertex -21.8 -50 -3.2
      vertex -1.21186 30.7381 -3.2
    endloop
  endfacet
  facet normal -0 0 -1
    outer loop
      vertex -1.21186 30.7381 -3.2
      vertex -21.8 -50 -3.2
      vertex -2.41893 30.8522 -3.2
    endloop
  endfacet
  facet normal -0 0 -1
    outer loop
      vertex -2.41893 30.8522 -3.2
      vertex -21.8 -50 -3.2
      vertex -3.61646 31.0419 -3.2
    endloop
  endfacet
  facet normal -0 0 -1
    outer loop
      vertex -3.61646 31.0419 -3.2
      vertex -21.8 -50 -3.2
      vertex -4.79971 31.3063 -3.2
    endloop
  endfacet
  facet normal -0 0 -1
    outer loop
      vertex -4.79971 31.3063 -3.2
      vertex -21.8 -50 -3.2
      vertex -5.96403 31.6446 -3.2
    endloop
  endfacet
  facet normal -0 0 -1
    outer loop
      vertex -5.96403 31.6446 -3.2
      vertex -21.8 -50 -3.2
      vertex -7.1048 32.0553 -3.2
    endloop
  endfacet
  facet normal -0 0 -1
    outer loop
      vertex -7.1048 32.0553 -3.2
      vertex -21.8 -50 -3.2
      vertex -8.21754 32.5368 -3.2
    endloop
  endfacet
  facet normal -0 0 -1
    outer loop
      vertex -8.21754 32.5368 -3.2
      vertex -21.8 -50 -3.2
      vertex -9.29785 33.0873 -3.2
    endloop
  endfacet
  facet normal -0 0 -1
    outer loop
      vertex -9.29785 33.0873 -3.2
      vertex -21.8 -50 -3.2
      vertex -10.3415 33.7045 -3.2
    endloop
  endfacet
  facet normal -0 0 -1
    outer loop
      vertex -10.3415 33.7045 -3.2
      vertex -21.8 -50 -3.2
      vertex -11.3443 34.386 -3.2
    endloop
  endfacet
  facet normal -0 0 -1
    outer loop
      vertex -11.3443 34.386 -3.2
      vertex -21.8 -50 -3.2
      vertex -12.3023 35.1291 -3.2
    endloop
  endfacet
  facet normal -0 0 -1
    outer loop
      vertex -12.3023 35.1291 -3.2
      vertex -21.8 -50 -3.2
      vertex -13.2118 35.9309 -3.2
    endloop
  endfacet
  facet normal -0 0 -1
    outer loop
      vertex -13.2118 35.9309 -3.2
      vertex -21.8 -50 -3.2
      vertex -14.0691 36.7882 -3.2
    endloop
  endfacet
  facet normal -0 0 -1
    outer loop
      vertex -14.0691 36.7882 -3.2
      vertex -21.8 -50 -3.2
      vertex -14.8709 37.6977 -3.2
    endloop
  endfacet
  facet normal -0 0 -1
    outer loop
      vertex -14.8709 37.6977 -3.2
      vertex -21.8 -50 -3.2
      vertex -15.614 38.6557 -3.2
    endloop
  endfacet
  facet normal -0 0 -1
    outer loop
      vertex -15.614 38.6557 -3.2
      vertex -21.8 -50 -3.2
      vertex -16.2955 39.6585 -3.2
    endloop
  endfacet
  facet normal -0 0 -1
    outer loop
      vertex -16.2955 39.6585 -3.2
      vertex -21.8 -50 -3.2
      vertex -16.9127 40.7022 -3.2
    endloop
  endfacet
  facet normal -0 0 -1
    outer loop
      vertex -16.9127 40.7022 -3.2
      vertex -21.8 -50 -3.2
      vertex -17.4632 41.7825 -3.2
    endloop
  endfacet
  facet normal 0 0 -1
    outer loop
      vertex -21.8 50 -3.2
      vertex -17.4632 41.7825 -3.2
      vertex -21.8 -50 -3.2
    endloop
  endfacet
  facet normal 0 0 -1
    outer loop
      vertex -17.4632 41.7825 -3.2
      vertex -21.8 50 -3.2
      vertex -17.9447 42.8952 -3.2
    endloop
  endfacet
  facet normal 0 0 -1
    outer loop
      vertex -17.9447 42.8952 -3.2
      vertex -21.8 50 -3.2
      vertex -18.3554 44.036 -3.2
    endloop
  endfacet
  facet normal 0 0 -1
    outer loop
      vertex -18.3554 44.036 -3.2
      vertex -21.8 50 -3.2
      vertex -18.6937 45.2003 -3.2
    endloop
  endfacet
  facet normal 0 0 -1
    outer loop
      vertex -18.6937 45.2003 -3.2
      vertex -21.8 50 -3.2
      vertex -18.9581 46.3835 -3.2
    endloop
  endfacet
  facet normal 0 0 -1
    outer loop
      vertex -18.9581 46.3835 -3.2
      vertex -21.8 50 -3.2
      vertex -19.1478 47.5811 -3.2
    endloop
  endfacet
  facet normal 0 0 -1
    outer loop
      vertex -19.1478 47.5811 -3.2
      vertex -21.8 50 -3.2
      vertex -19.2619 48.7881 -3.2
    endloop
  endfacet
  facet normal 0 0 -1
    outer loop
      vertex -19.2619 48.7881 -3.2
      vertex -21.8 50 -3.2
      vertex -19.3 50 -3.2
    endloop
  endfacet
  facet normal 0 -1 0
    outer loop
      vertex -21.8 -50 0.7
      vertex -20 -50 3.2
      vertex -21.8 -50 3.2
    endloop
  endfacet
  facet normal 0 -1 0
    outer loop
      vertex -21.8 -50 0.7
      vertex -20 -50 -0.7
      vertex -20 -50 3.2
    endloop
  endfacet
  facet normal 0 -1 -0
    outer loop
      vertex -20 -50 -0.7
      vertex -21.8 -50 -3.2
      vertex 20 -50 -0.7
    endloop
  endfacet
  facet normal 0 -1 0
    outer loop
      vertex -21.8 -50 -3.2
      vertex -20 -50 -0.7
      vertex -21.8 -50 0.7
    endloop
  endfacet
  facet normal 0 -1 0
    outer loop
      vertex 20 -50 3.2
      vertex 21.8 -50 0.7
      vertex 40 -50 3.2
    endloop
  endfacet
  facet normal 0 -1 0
    outer loop
      vertex 20 -50 -0.7
      vertex 21.8 -50 0.7
      vertex 20 -50 3.2
    endloop
  endfacet
  facet normal 0 -1 0
    outer loop
      vertex 20 -50 -0.7
      vertex 21.8 -50 -3.2
      vertex 21.8 -50 0.7
    endloop
  endfacet
  facet normal 0 -1 0
    outer loop
      vertex 21.8 -50 -3.2
      vertex 20 -50 -0.7
      vertex -21.8 -50 -3.2
    endloop
  endfacet
  facet normal 0 -1 -0
    outer loop
      vertex 40 -50 3.2
      vertex 21.8 -50 0.7
      vertex 40 -50 0.7
    endloop
  endfacet
  facet normal 1 -0 0
    outer loop
      vertex -20 -50 3.2
      vertex -20 50 -0.7
      vertex -20 50 3.2
    endloop
  endfacet
  facet normal 1 0 0
    outer loop
      vertex -20 50 -0.7
      vertex -20 -50 3.2
      vertex -20 -50 -0.7
    endloop
  endfacet
  facet normal -1 0 0
    outer loop
      vertex 20 -50 -0.7
      vertex 20 50 3.2
      vertex 20 50 -0.7
    endloop
  endfacet
  facet normal -1 -0 0
    outer loop
      vertex 20 50 3.2
      vertex 20 -50 -0.7
      vertex 20 -50 3.2
    endloop
  endfacet
  facet normal 0 0 1
    outer loop
      vertex 19.2619 48.7881 -0.7
      vertex 20 50 -0.7
      vertex 19.3 50 -0.7
    endloop
  endfacet
  facet normal 0 0 1
    outer loop
      vertex 19.1478 47.5811 -0.7
      vertex 20 50 -0.7
      vertex 19.2619 48.7881 -0.7
    endloop
  endfacet
  facet normal 0 0 1
    outer loop
      vertex 18.9581 46.3835 -0.7
      vertex 20 50 -0.7
      vertex 19.1478 47.5811 -0.7
    endloop
  endfacet
  facet normal 0 0 1
    outer loop
      vertex 18.6937 45.2003 -0.7
      vertex 20 50 -0.7
      vertex 18.9581 46.3835 -0.7
    endloop
  endfacet
  facet normal 0 0 1
    outer loop
      vertex 20 50 -0.7
      vertex 18.6937 45.2003 -0.7
      vertex 20 -50 -0.7
    endloop
  endfacet
  facet normal -0 0 1
    outer loop
      vertex 18.3554 44.036 -0.7
      vertex 20 -50 -0.7
      vertex 18.6937 45.2003 -0.7
    endloop
  endfacet
  facet normal -0 0 1
    outer loop
      vertex 17.9447 42.8952 -0.7
      vertex 20 -50 -0.7
      vertex 18.3554 44.036 -0.7
    endloop
  endfacet
  facet normal -0 0 1
    outer loop
      vertex 17.4632 41.7825 -0.7
      vertex 20 -50 -0.7
      vertex 17.9447 42.8952 -0.7
    endloop
  endfacet
  facet normal -0 0 1
    outer loop
      vertex 16.9127 40.7022 -0.7
      vertex 20 -50 -0.7
      vertex 17.4632 41.7825 -0.7
    endloop
  endfacet
  facet normal -0 0 1
    outer loop
      vertex 16.2955 39.6585 -0.7
      vertex 20 -50 -0.7
      vertex 16.9127 40.7022 -0.7
    endloop
  endfacet
  facet normal -0 0 1
    outer loop
      vertex 15.614 38.6557 -0.7
      vertex 20 -50 -0.7
      vertex 16.2955 39.6585 -0.7
    endloop
  endfacet
  facet normal -0 0 1
    outer loop
      vertex 14.8709 37.6977 -0.7
      vertex 20 -50 -0.7
      vertex 15.614 38.6557 -0.7
    endloop
  endfacet
  facet normal -0 0 1
    outer loop
      vertex 14.0691 36.7882 -0.7
      vertex 20 -50 -0.7
      vertex 14.8709 37.6977 -0.7
    endloop
  endfacet
  facet normal -0 0 1
    outer loop
      vertex 13.2118 35.9309 -0.7
      vertex 20 -50 -0.7
      vertex 14.0691 36.7882 -0.7
    endloop
  endfacet
  facet normal -0 0 1
    outer loop
      vertex 12.3023 35.1291 -0.7
      vertex 20 -50 -0.7
      vertex 13.2118 35.9309 -0.7
    endloop
  endfacet
  facet normal -0 0 1
    outer loop
      vertex 11.3443 34.386 -0.7
      vertex 20 -50 -0.7
      vertex 12.3023 35.1291 -0.7
    endloop
  endfacet
  facet normal -0 0 1
    outer loop
      vertex 10.3415 33.7045 -0.7
      vertex 20 -50 -0.7
      vertex 11.3443 34.386 -0.7
    endloop
  endfacet
  facet normal -0 0 1
    outer loop
      vertex 9.29785 33.0873 -0.7
      vertex 20 -50 -0.7
      vertex 10.3415 33.7045 -0.7
    endloop
  endfacet
  facet normal -0 0 1
    outer loop
      vertex 8.21754 32.5368 -0.7
      vertex 20 -50 -0.7
      vertex 9.29785 33.0873 -0.7
    endloop
  endfacet
  facet normal -0 0 1
    outer loop
      vertex 7.1048 32.0553 -0.7
      vertex 20 -50 -0.7
      vertex 8.21754 32.5368 -0.7
    endloop
  endfacet
  facet normal -0 0 1
    outer loop
      vertex 5.96403 31.6446 -0.7
      vertex 20 -50 -0.7
      vertex 7.1048 32.0553 -0.7
    endloop
  endfacet
  facet normal -0 0 1
    outer loop
      vertex 4.79971 31.3063 -0.7
      vertex 20 -50 -0.7
      vertex 5.96403 31.6446 -0.7
    endloop
  endfacet
  facet normal -0 0 1
    outer loop
      vertex 3.61646 31.0419 -0.7
      vertex 20 -50 -0.7
      vertex 4.79971 31.3063 -0.7
    endloop
  endfacet
  facet normal -0 0 1
    outer loop
      vertex 2.41893 30.8522 -0.7
      vertex 20 -50 -0.7
      vertex 3.61646 31.0419 -0.7
    endloop
  endfacet
  facet normal -0 0 1
    outer loop
      vertex 1.21186 30.7381 -0.7
      vertex 20 -50 -0.7
      vertex 2.41893 30.8522 -0.7
    endloop
  endfacet
  facet normal -0 0 1
    outer loop
      vertex 0 30.7 -0.7
      vertex 20 -50 -0.7
      vertex 1.21186 30.7381 -0.7
    endloop
  endfacet
  facet normal 0 0 1
    outer loop
      vertex -20 -50 -0.7
      vertex 0 30.7 -0.7
      vertex -1.21186 30.7381 -0.7
    endloop
  endfacet
  facet normal 0 0 1
    outer loop
      vertex -20 -50 -0.7
      vertex -1.21186 30.7381 -0.7
      vertex -2.41893 30.8522 -0.7
    endloop
  endfacet
  facet normal 0 0 1
    outer loop
      vertex -20 -50 -0.7
      vertex -2.41893 30.8522 -0.7
      vertex -3.61646 31.0419 -0.7
    endloop
  endfacet
  facet normal 0 0 1
    outer loop
      vertex -20 -50 -0.7
      vertex -3.61646 31.0419 -0.7
      vertex -4.79971 31.3063 -0.7
    endloop
  endfacet
  facet normal 0 0 1
    outer loop
      vertex -20 -50 -0.7
      vertex -4.79971 31.3063 -0.7
      vertex -5.96403 31.6446 -0.7
    endloop
  endfacet
  facet normal 0 0 1
    outer loop
      vertex -20 -50 -0.7
      vertex -5.96403 31.6446 -0.7
      vertex -7.1048 32.0553 -0.7
    endloop
  endfacet
  facet normal 0 0 1
    outer loop
      vertex -20 -50 -0.7
      vertex -7.1048 32.0553 -0.7
      vertex -8.21754 32.5368 -0.7
    endloop
  endfacet
  facet normal 0 0 1
    outer loop
      vertex -20 -50 -0.7
      vertex -8.21754 32.5368 -0.7
      vertex -9.29785 33.0873 -0.7
    endloop
  endfacet
  facet normal 0 0 1
    outer loop
      vertex -20 -50 -0.7
      vertex -9.29785 33.0873 -0.7
      vertex -10.3415 33.7045 -0.7
    endloop
  endfacet
  facet normal 0 0 1
    outer loop
      vertex -20 -50 -0.7
      vertex -10.3415 33.7045 -0.7
      vertex -11.3443 34.386 -0.7
    endloop
  endfacet
  facet normal 0 0 1
    outer loop
      vertex -20 -50 -0.7
      vertex -11.3443 34.386 -0.7
      vertex -12.3023 35.1291 -0.7
    endloop
  endfacet
  facet normal 0 0 1
    outer loop
      vertex -20 -50 -0.7
      vertex -12.3023 35.1291 -0.7
      vertex -13.2118 35.9309 -0.7
    endloop
  endfacet
  facet normal 0 0 1
    outer loop
      vertex -20 -50 -0.7
      vertex -13.2118 35.9309 -0.7
      vertex -14.0691 36.7882 -0.7
    endloop
  endfacet
  facet normal 0 0 1
    outer loop
      vertex -20 -50 -0.7
      vertex -14.0691 36.7882 -0.7
      vertex -14.8709 37.6977 -0.7
    endloop
  endfacet
  facet normal 0 0 1
    outer loop
      vertex -20 -50 -0.7
      vertex -14.8709 37.6977 -0.7
      vertex -15.614 38.6557 -0.7
    endloop
  endfacet
  facet normal 0 0 1
    outer loop
      vertex -20 -50 -0.7
      vertex -15.614 38.6557 -0.7
      vertex -16.2955 39.6585 -0.7
    endloop
  endfacet
  facet normal 0 0 1
    outer loop
      vertex -20 -50 -0.7
      vertex -16.2955 39.6585 -0.7
      vertex -16.9127 40.7022 -0.7
    endloop
  endfacet
  facet normal 0 0 1
    outer loop
      vertex -20 -50 -0.7
      vertex -16.9127 40.7022 -0.7
      vertex -17.4632 41.7825 -0.7
    endloop
  endfacet
  facet normal 0 0 1
    outer loop
      vertex -20 -50 -0.7
      vertex -17.4632 41.7825 -0.7
      vertex -17.9447 42.8952 -0.7
    endloop
  endfacet
  facet normal -0 0 1
    outer loop
      vertex -20 50 -0.7
      vertex -19.2619 48.7881 -0.7
      vertex -19.3 50 -0.7
    endloop
  endfacet
  facet normal 0 0 1
    outer loop
      vertex -20 50 -0.7
      vertex -19.1478 47.5811 -0.7
      vertex -19.2619 48.7881 -0.7
    endloop
  endfacet
  facet normal 0 0 1
    outer loop
      vertex -20 50 -0.7
      vertex -18.9581 46.3835 -0.7
      vertex -19.1478 47.5811 -0.7
    endloop
  endfacet
  facet normal 0 0 1
    outer loop
      vertex -20 50 -0.7
      vertex -18.6937 45.2003 -0.7
      vertex -18.9581 46.3835 -0.7
    endloop
  endfacet
  facet normal 0 0 1
    outer loop
      vertex 0 30.7 -0.7
      vertex -20 -50 -0.7
      vertex 20 -50 -0.7
    endloop
  endfacet
  facet normal 0 0 1
    outer loop
      vertex -18.3554 44.036 -0.7
      vertex -20 -50 -0.7
      vertex -17.9447 42.8952 -0.7
    endloop
  endfacet
  facet normal 0 0 1
    outer loop
      vertex -18.6937 45.2003 -0.7
      vertex -20 -50 -0.7
      vertex -18.3554 44.036 -0.7
    endloop
  endfacet
  facet normal 0 0 1
    outer loop
      vertex -20 -50 -0.7
      vertex -18.6937 45.2003 -0.7
      vertex -20 50 -0.7
    endloop
  endfacet
  facet normal 0.940881 0.338737 0
    outer loop
      vertex -17.9447 42.8952 -0.7
      vertex -18.3554 44.036 -3.2
      vertex -18.3554 44.036 -0.7
    endloop
  endfacet
  facet normal 0.940881 0.338737 0
    outer loop
      vertex -18.3554 44.036 -3.2
      vertex -17.9447 42.8952 -0.7
      vertex -17.9447 42.8952 -3.2
    endloop
  endfacet
  facet normal -0.891007 0.453989 0
    outer loop
      vertex 16.9127 40.7022 -3.2
      vertex 17.4632 41.7825 -0.7
      vertex 17.4632 41.7825 -3.2
    endloop
  endfacet
  facet normal -0.891007 0.453989 0
    outer loop
      vertex 17.4632 41.7825 -0.7
      vertex 16.9127 40.7022 -3.2
      vertex 16.9127 40.7022 -0.7
    endloop
  endfacet
  facet normal -0.338739 0.94088 0
    outer loop
      vertex 7.1048 32.0553 -3.2
      vertex 5.96403 31.6446 -0.7
      vertex 7.1048 32.0553 -0.7
    endloop
  endfacet
  facet normal -0.338739 0.94088 0
    outer loop
      vertex 5.96403 31.6446 -0.7
      vertex 7.1048 32.0553 -3.2
      vertex 5.96403 31.6446 -3.2
    endloop
  endfacet
  facet normal -0.707106 0.707107 0
    outer loop
      vertex 14.0691 36.7882 -3.2
      vertex 13.2118 35.9309 -0.7
      vertex 14.0691 36.7882 -0.7
    endloop
  endfacet
  facet normal -0.707106 0.707107 0
    outer loop
      vertex 13.2118 35.9309 -0.7
      vertex 14.0691 36.7882 -3.2
      vertex 13.2118 35.9309 -3.2
    endloop
  endfacet
  facet normal 0.27899 0.960294 -0
    outer loop
      vertex -4.79971 31.3063 -3.2
      vertex -5.96403 31.6446 -0.7
      vertex -4.79971 31.3063 -0.7
    endloop
  endfacet
  facet normal 0.27899 0.960294 0
    outer loop
      vertex -5.96403 31.6446 -0.7
      vertex -4.79971 31.3063 -3.2
      vertex -5.96403 31.6446 -3.2
    endloop
  endfacet
  facet normal 0.661312 0.750111 -0
    outer loop
      vertex -12.3023 35.1291 -3.2
      vertex -13.2118 35.9309 -0.7
      vertex -12.3023 35.1291 -0.7
    endloop
  endfacet
  facet normal 0.661312 0.750111 0
    outer loop
      vertex -13.2118 35.9309 -0.7
      vertex -12.3023 35.1291 -3.2
      vertex -13.2118 35.9309 -3.2
    endloop
  endfacet
  facet normal 0.750111 0.661311 0
    outer loop
      vertex -14.0691 36.7882 -0.7
      vertex -14.8709 37.6977 -3.2
      vertex -14.8709 37.6977 -0.7
    endloop
  endfacet
  facet normal 0.750111 0.661311 0
    outer loop
      vertex -14.8709 37.6977 -3.2
      vertex -14.0691 36.7882 -0.7
      vertex -14.0691 36.7882 -3.2
    endloop
  endfacet
  facet normal -0.562083 0.827081 0
    outer loop
      vertex 11.3443 34.386 -3.2
      vertex 10.3415 33.7045 -0.7
      vertex 11.3443 34.386 -0.7
    endloop
  endfacet
  facet normal -0.562083 0.827081 0
    outer loop
      vertex 10.3415 33.7045 -0.7
      vertex 11.3443 34.386 -3.2
      vertex 10.3415 33.7045 -3.2
    endloop
  endfacet
  facet normal -0.661312 0.750111 0
    outer loop
      vertex 13.2118 35.9309 -3.2
      vertex 12.3023 35.1291 -0.7
      vertex 13.2118 35.9309 -0.7
    endloop
  endfacet
  facet normal -0.661312 0.750111 0
    outer loop
      vertex 12.3023 35.1291 -0.7
      vertex 13.2118 35.9309 -3.2
      vertex 12.3023 35.1291 -3.2
    endloop
  endfacet
  facet normal -0.790156 0.612906 0
    outer loop
      vertex 14.8709 37.6977 -3.2
      vertex 15.614 38.6557 -0.7
      vertex 15.614 38.6557 -3.2
    endloop
  endfacet
  facet normal -0.790156 0.612906 0
    outer loop
      vertex 15.614 38.6557 -0.7
      vertex 14.8709 37.6977 -3.2
      vertex 14.8709 37.6977 -0.7
    endloop
  endfacet
  facet normal -0.987689 0.156433 0
    outer loop
      vertex 18.9581 46.3835 -3.2
      vertex 19.1478 47.5811 -0.7
      vertex 19.1478 47.5811 -3.2
    endloop
  endfacet
  facet normal -0.987689 0.156433 0
    outer loop
      vertex 19.1478 47.5811 -0.7
      vertex 18.9581 46.3835 -3.2
      vertex 18.9581 46.3835 -0.7
    endloop
  endfacet
  facet normal 0.612907 0.790155 -0
    outer loop
      vertex -11.3443 34.386 -3.2
      vertex -12.3023 35.1291 -0.7
      vertex -11.3443 34.386 -0.7
    endloop
  endfacet
  facet normal 0.612907 0.790155 0
    outer loop
      vertex -12.3023 35.1291 -0.7
      vertex -11.3443 34.386 -3.2
      vertex -12.3023 35.1291 -3.2
    endloop
  endfacet
  facet normal 0.0941093 0.995562 -0
    outer loop
      vertex -1.21186 30.7381 -3.2
      vertex -2.41893 30.8522 -0.7
      vertex -1.21186 30.7381 -0.7
    endloop
  endfacet
  facet normal 0.0941093 0.995562 0
    outer loop
      vertex -2.41893 30.8522 -0.7
      vertex -1.21186 30.7381 -3.2
      vertex -2.41893 30.8522 -3.2
    endloop
  endfacet
  facet normal 0.860741 0.509043 0
    outer loop
      vertex -16.2955 39.6585 -0.7
      vertex -16.9127 40.7022 -3.2
      vertex -16.9127 40.7022 -0.7
    endloop
  endfacet
  facet normal 0.860741 0.509043 0
    outer loop
      vertex -16.9127 40.7022 -3.2
      vertex -16.2955 39.6585 -0.7
      vertex -16.2955 39.6585 -3.2
    endloop
  endfacet
  facet normal 0.891007 0.453989 0
    outer loop
      vertex -16.9127 40.7022 -0.7
      vertex -17.4632 41.7825 -3.2
      vertex -17.4632 41.7825 -0.7
    endloop
  endfacet
  facet normal 0.891007 0.453989 0
    outer loop
      vertex -17.4632 41.7825 -3.2
      vertex -16.9127 40.7022 -0.7
      vertex -16.9127 40.7022 -3.2
    endloop
  endfacet
  facet normal -0.999507 0.0314107 0
    outer loop
      vertex 19.2619 48.7881 -3.2
      vertex 19.3 50 -0.7
      vertex 19.3 50 -3.2
    endloop
  endfacet
  facet normal -0.999507 0.0314107 0
    outer loop
      vertex 19.3 50 -0.7
      vertex 19.2619 48.7881 -3.2
      vertex 19.2619 48.7881 -0.7
    endloop
  endfacet
  facet normal -0.0941093 0.995562 0
    outer loop
      vertex 2.41893 30.8522 -3.2
      vertex 1.21186 30.7381 -0.7
      vertex 2.41893 30.8522 -0.7
    endloop
  endfacet
  facet normal -0.0941093 0.995562 0
    outer loop
      vertex 1.21186 30.7381 -0.7
      vertex 2.41893 30.8522 -3.2
      vertex 1.21186 30.7381 -3.2
    endloop
  endfacet
  facet normal -0.27899 0.960294 0
    outer loop
      vertex 5.96403 31.6446 -3.2
      vertex 4.79971 31.3063 -0.7
      vertex 5.96403 31.6446 -0.7
    endloop
  endfacet
  facet normal -0.27899 0.960294 0
    outer loop
      vertex 4.79971 31.3063 -0.7
      vertex 5.96403 31.6446 -3.2
      vertex 4.79971 31.3063 -3.2
    endloop
  endfacet
  facet normal -0.218144 0.975917 0
    outer loop
      vertex 4.79971 31.3063 -3.2
      vertex 3.61646 31.0419 -0.7
      vertex 4.79971 31.3063 -0.7
    endloop
  endfacet
  facet normal -0.218144 0.975917 0
    outer loop
      vertex 3.61646 31.0419 -0.7
      vertex 4.79971 31.3063 -3.2
      vertex 3.61646 31.0419 -3.2
    endloop
  endfacet
  facet normal -0.397149 0.917754 0
    outer loop
      vertex 8.21754 32.5368 -3.2
      vertex 7.1048 32.0553 -0.7
      vertex 8.21754 32.5368 -0.7
    endloop
  endfacet
  facet normal -0.397149 0.917754 0
    outer loop
      vertex 7.1048 32.0553 -0.7
      vertex 8.21754 32.5368 -3.2
      vertex 7.1048 32.0553 -3.2
    endloop
  endfacet
  facet normal -0.453989 0.891007 0
    outer loop
      vertex 9.29785 33.0873 -3.2
      vertex 8.21754 32.5368 -0.7
      vertex 9.29785 33.0873 -0.7
    endloop
  endfacet
  facet normal -0.453989 0.891007 0
    outer loop
      vertex 8.21754 32.5368 -0.7
      vertex 9.29785 33.0873 -3.2
      vertex 8.21754 32.5368 -3.2
    endloop
  endfacet
  facet normal -0.750111 0.661311 0
    outer loop
      vertex 14.0691 36.7882 -3.2
      vertex 14.8709 37.6977 -0.7
      vertex 14.8709 37.6977 -3.2
    endloop
  endfacet
  facet normal -0.750111 0.661311 0
    outer loop
      vertex 14.8709 37.6977 -0.7
      vertex 14.0691 36.7882 -3.2
      vertex 14.0691 36.7882 -0.7
    endloop
  endfacet
  facet normal -0.612907 0.790155 0
    outer loop
      vertex 12.3023 35.1291 -3.2
      vertex 11.3443 34.386 -0.7
      vertex 12.3023 35.1291 -0.7
    endloop
  endfacet
  facet normal -0.612907 0.790155 0
    outer loop
      vertex 11.3443 34.386 -0.7
      vertex 12.3023 35.1291 -3.2
      vertex 11.3443 34.386 -3.2
    endloop
  endfacet
  facet normal -0.509042 0.860741 0
    outer loop
      vertex 10.3415 33.7045 -3.2
      vertex 9.29785 33.0873 -0.7
      vertex 10.3415 33.7045 -0.7
    endloop
  endfacet
  facet normal -0.509042 0.860741 0
    outer loop
      vertex 9.29785 33.0873 -0.7
      vertex 10.3415 33.7045 -3.2
      vertex 9.29785 33.0873 -3.2
    endloop
  endfacet
  facet normal -0.82708 0.562084 0
    outer loop
      vertex 15.614 38.6557 -3.2
      vertex 16.2955 39.6585 -0.7
      vertex 16.2955 39.6585 -3.2
    endloop
  endfacet
  facet normal -0.82708 0.562084 0
    outer loop
      vertex 16.2955 39.6585 -0.7
      vertex 15.614 38.6557 -3.2
      vertex 15.614 38.6557 -0.7
    endloop
  endfacet
  facet normal -0.940881 0.338737 0
    outer loop
      vertex 17.9447 42.8952 -3.2
      vertex 18.3554 44.036 -0.7
      vertex 18.3554 44.036 -3.2
    endloop
  endfacet
  facet normal -0.940881 0.338737 0
    outer loop
      vertex 18.3554 44.036 -0.7
      vertex 17.9447 42.8952 -3.2
      vertex 17.9447 42.8952 -0.7
    endloop
  endfacet
  facet normal -0.960294 0.27899 0
    outer loop
      vertex 18.3554 44.036 -3.2
      vertex 18.6937 45.2003 -0.7
      vertex 18.6937 45.2003 -3.2
    endloop
  endfacet
  facet normal -0.960294 0.27899 0
    outer loop
      vertex 18.6937 45.2003 -0.7
      vertex 18.3554 44.036 -3.2
      vertex 18.3554 44.036 -0.7
    endloop
  endfacet
  facet normal 0.562083 0.827081 -0
    outer loop
      vertex -10.3415 33.7045 -3.2
      vertex -11.3443 34.386 -0.7
      vertex -10.3415 33.7045 -0.7
    endloop
  endfacet
  facet normal 0.562083 0.827081 0
    outer loop
      vertex -11.3443 34.386 -0.7
      vertex -10.3415 33.7045 -3.2
      vertex -11.3443 34.386 -3.2
    endloop
  endfacet
  facet normal 0.338739 0.94088 -0
    outer loop
      vertex -5.96403 31.6446 -3.2
      vertex -7.1048 32.0553 -0.7
      vertex -5.96403 31.6446 -0.7
    endloop
  endfacet
  facet normal 0.338739 0.94088 0
    outer loop
      vertex -7.1048 32.0553 -0.7
      vertex -5.96403 31.6446 -3.2
      vertex -7.1048 32.0553 -3.2
    endloop
  endfacet
  facet normal 0.453989 0.891007 -0
    outer loop
      vertex -8.21754 32.5368 -3.2
      vertex -9.29785 33.0873 -0.7
      vertex -8.21754 32.5368 -0.7
    endloop
  endfacet
  facet normal 0.453989 0.891007 0
    outer loop
      vertex -9.29785 33.0873 -0.7
      vertex -8.21754 32.5368 -3.2
      vertex -9.29785 33.0873 -3.2
    endloop
  endfacet
  facet normal 0.156434 0.987688 -0
    outer loop
      vertex -2.41893 30.8522 -3.2
      vertex -3.61646 31.0419 -0.7
      vertex -2.41893 30.8522 -0.7
    endloop
  endfacet
  facet normal 0.156434 0.987688 0
    outer loop
      vertex -3.61646 31.0419 -0.7
      vertex -2.41893 30.8522 -3.2
      vertex -3.61646 31.0419 -3.2
    endloop
  endfacet
  facet normal 0.0314091 0.999507 -0
    outer loop
      vertex 0 30.7 -3.2
      vertex -1.21186 30.7381 -0.7
      vertex 0 30.7 -0.7
    endloop
  endfacet
  facet normal 0.0314091 0.999507 0
    outer loop
      vertex -1.21186 30.7381 -0.7
      vertex 0 30.7 -3.2
      vertex -1.21186 30.7381 -3.2
    endloop
  endfacet
  facet normal 0.790156 0.612906 0
    outer loop
      vertex -14.8709 37.6977 -0.7
      vertex -15.614 38.6557 -3.2
      vertex -15.614 38.6557 -0.7
    endloop
  endfacet
  facet normal 0.790156 0.612906 0
    outer loop
      vertex -15.614 38.6557 -3.2
      vertex -14.8709 37.6977 -0.7
      vertex -14.8709 37.6977 -3.2
    endloop
  endfacet
  facet normal 0.707106 0.707107 -0
    outer loop
      vertex -13.2118 35.9309 -3.2
      vertex -14.0691 36.7882 -0.7
      vertex -13.2118 35.9309 -0.7
    endloop
  endfacet
  facet normal 0.707106 0.707107 0
    outer loop
      vertex -14.0691 36.7882 -0.7
      vertex -13.2118 35.9309 -3.2
      vertex -14.0691 36.7882 -3.2
    endloop
  endfacet
  facet normal 0.82708 0.562084 0
    outer loop
      vertex -15.614 38.6557 -0.7
      vertex -16.2955 39.6585 -3.2
      vertex -16.2955 39.6585 -0.7
    endloop
  endfacet
  facet normal 0.82708 0.562084 0
    outer loop
      vertex -16.2955 39.6585 -3.2
      vertex -15.614 38.6557 -0.7
      vertex -15.614 38.6557 -3.2
    endloop
  endfacet
  facet normal 0.917754 0.397149 0
    outer loop
      vertex -17.4632 41.7825 -0.7
      vertex -17.9447 42.8952 -3.2
      vertex -17.9447 42.8952 -0.7
    endloop
  endfacet
  facet normal 0.917754 0.397149 0
    outer loop
      vertex -17.9447 42.8952 -3.2
      vertex -17.4632 41.7825 -0.7
      vertex -17.4632 41.7825 -3.2
    endloop
  endfacet
  facet normal 0.975917 0.218144 0
    outer loop
      vertex -18.6937 45.2003 -0.7
      vertex -18.9581 46.3835 -3.2
      vertex -18.9581 46.3835 -0.7
    endloop
  endfacet
  facet normal 0.975917 0.218144 0
    outer loop
      vertex -18.9581 46.3835 -3.2
      vertex -18.6937 45.2003 -0.7
      vertex -18.6937 45.2003 -3.2
    endloop
  endfacet
  facet normal 0.960294 0.27899 0
    outer loop
      vertex -18.3554 44.036 -0.7
      vertex -18.6937 45.2003 -3.2
      vertex -18.6937 45.2003 -0.7
    endloop
  endfacet
  facet normal 0.960294 0.27899 0
    outer loop
      vertex -18.6937 45.2003 -3.2
      vertex -18.3554 44.036 -0.7
      vertex -18.3554 44.036 -3.2
    endloop
  endfacet
  facet normal 0.995562 0.0941094 0
    outer loop
      vertex -19.1478 47.5811 -0.7
      vertex -19.2619 48.7881 -3.2
      vertex -19.2619 48.7881 -0.7
    endloop
  endfacet
  facet normal 0.995562 0.0941094 0
    outer loop
      vertex -19.2619 48.7881 -3.2
      vertex -19.1478 47.5811 -0.7
      vertex -19.1478 47.5811 -3.2
    endloop
  endfacet
  facet normal 0.999507 0.0314107 0
    outer loop
      vertex -19.2619 48.7881 -0.7
      vertex -19.3 50 -3.2
      vertex -19.3 50 -0.7
    endloop
  endfacet
  facet normal 0.999507 0.0314107 0
    outer loop
      vertex -19.3 50 -3.2
      vertex -19.2619 48.7881 -0.7
      vertex -19.2619 48.7881 -3.2
    endloop
  endfacet
  facet normal -0.156434 0.987688 0
    outer loop
      vertex 3.61646 31.0419 -3.2
      vertex 2.41893 30.8522 -0.7
      vertex 3.61646 31.0419 -0.7
    endloop
  endfacet
  facet normal -0.156434 0.987688 0
    outer loop
      vertex 2.41893 30.8522 -0.7
      vertex 3.61646 31.0419 -3.2
      vertex 2.41893 30.8522 -3.2
    endloop
  endfacet
  facet normal -0.860741 0.509043 0
    outer loop
      vertex 16.2955 39.6585 -3.2
      vertex 16.9127 40.7022 -0.7
      vertex 16.9127 40.7022 -3.2
    endloop
  endfacet
  facet normal -0.860741 0.509043 0
    outer loop
      vertex 16.9127 40.7022 -0.7
      vertex 16.2955 39.6585 -3.2
      vertex 16.2955 39.6585 -0.7
    endloop
  endfacet
  facet normal -0.917754 0.397149 0
    outer loop
      vertex 17.4632 41.7825 -3.2
      vertex 17.9447 42.8952 -0.7
      vertex 17.9447 42.8952 -3.2
    endloop
  endfacet
  facet normal -0.917754 0.397149 0
    outer loop
      vertex 17.9447 42.8952 -0.7
      vertex 17.4632 41.7825 -3.2
      vertex 17.4632 41.7825 -0.7
    endloop
  endfacet
  facet normal 0.509042 0.860741 -0
    outer loop
      vertex -9.29785 33.0873 -3.2
      vertex -10.3415 33.7045 -0.7
      vertex -9.29785 33.0873 -0.7
    endloop
  endfacet
  facet normal 0.509042 0.860741 0
    outer loop
      vertex -10.3415 33.7045 -0.7
      vertex -9.29785 33.0873 -3.2
      vertex -10.3415 33.7045 -3.2
    endloop
  endfacet
  facet normal 0.397149 0.917754 -0
    outer loop
      vertex -7.1048 32.0553 -3.2
      vertex -8.21754 32.5368 -0.7
      vertex -7.1048 32.0553 -0.7
    endloop
  endfacet
  facet normal 0.397149 0.917754 0
    outer loop
      vertex -8.21754 32.5368 -0.7
      vertex -7.1048 32.0553 -3.2
      vertex -8.21754 32.5368 -3.2
    endloop
  endfacet
  facet normal 0.218144 0.975917 -0
    outer loop
      vertex -3.61646 31.0419 -3.2
      vertex -4.79971 31.3063 -0.7
      vertex -3.61646 31.0419 -0.7
    endloop
  endfacet
  facet normal 0.218144 0.975917 0
    outer loop
      vertex -4.79971 31.3063 -0.7
      vertex -3.61646 31.0419 -3.2
      vertex -4.79971 31.3063 -3.2
    endloop
  endfacet
  facet normal -0.0314091 0.999507 0
    outer loop
      vertex 1.21186 30.7381 -3.2
      vertex 0 30.7 -0.7
      vertex 1.21186 30.7381 -0.7
    endloop
  endfacet
  facet normal -0.0314091 0.999507 0
    outer loop
      vertex 0 30.7 -0.7
      vertex 1.21186 30.7381 -3.2
      vertex 0 30.7 -3.2
    endloop
  endfacet
  facet normal 0.987689 0.156433 0
    outer loop
      vertex -18.9581 46.3835 -0.7
      vertex -19.1478 47.5811 -3.2
      vertex -19.1478 47.5811 -0.7
    endloop
  endfacet
  facet normal 0.987689 0.156433 0
    outer loop
      vertex -19.1478 47.5811 -3.2
      vertex -18.9581 46.3835 -0.7
      vertex -18.9581 46.3835 -3.2
    endloop
  endfacet
  facet normal -0.995562 0.0941094 0
    outer loop
      vertex 19.1478 47.5811 -3.2
      vertex 19.2619 48.7881 -0.7
      vertex 19.2619 48.7881 -3.2
    endloop
  endfacet
  facet normal -0.995562 0.0941094 0
    outer loop
      vertex 19.2619 48.7881 -0.7
      vertex 19.1478 47.5811 -3.2
      vertex 19.1478 47.5811 -0.7
    endloop
  endfacet
  facet normal -0.975917 0.218144 0
    outer loop
      vertex 18.6937 45.2003 -3.2
      vertex 18.9581 46.3835 -0.7
      vertex 18.9581 46.3835 -3.2
    endloop
  endfacet
  facet normal -0.975917 0.218144 0
    outer loop
      vertex 18.9581 46.3835 -0.7
      vertex 18.6937 45.2003 -3.2
      vertex 18.6937 45.2003 -0.7
    endloop
  endfacet
  facet normal -1 0 0
    outer loop
      vertex -50 -130 0.7
      vertex -50 -40 3.2
      vertex -50 -40 0.7
    endloop
  endfacet
  facet normal -1 -0 0
    outer loop
      vertex -50 -40 3.2
      vertex -50 -130 0.7
      vertex -50 -130 3.2
    endloop
  endfacet
  facet normal 0 1 -0
    outer loop
      vertex -21.8 -40 0.7
      vertex -50 -40 3.2
      vertex -21.8 -40 3.2
    endloop
  endfacet
  facet normal 0 1 0
    outer loop
      vertex -50 -40 3.2
      vertex -21.8 -40 0.7
      vertex -50 -40 0.7
    endloop
  endfacet
  facet normal 0 0 -1
    outer loop
      vertex -21.8 -130 0.7
      vertex -42.65 -120.375 0.7
      vertex -21.8 -120.375 0.7
    endloop
  endfacet
  facet normal -0 0 -1
    outer loop
      vertex -42.65 -120.375 0.7
      vertex -50 -130 0.7
      vertex -42.65 -79.625 0.7
    endloop
  endfacet
  facet normal 0 0 -1
    outer loop
      vertex -50 -130 0.7
      vertex -42.65 -120.375 0.7
      vertex -21.8 -130 0.7
    endloop
  endfacet
  facet normal 0 0 -1
    outer loop
      vertex -42.65 -79.625 0.7
      vertex -21.8 -50 0.7
      vertex -21.8 -79.625 0.7
    endloop
  endfacet
  facet normal 0 0 -1
    outer loop
      vertex -50 -40 0.7
      vertex -21.8 -50 0.7
      vertex -42.65 -79.625 0.7
    endloop
  endfacet
  facet normal 0 0 -1
    outer loop
      vertex -21.8 -50 0.7
      vertex -50 -40 0.7
      vertex -21.8 -40 0.7
    endloop
  endfacet
  facet normal 0 0 -1
    outer loop
      vertex -50 -40 0.7
      vertex -42.65 -79.625 0.7
      vertex -50 -130 0.7
    endloop
  endfacet
  facet normal 0 -1 0
    outer loop
      vertex -50 -130 0.7
      vertex -21.8 -130 3.2
      vertex -50 -130 3.2
    endloop
  endfacet
  facet normal 0 -1 -0
    outer loop
      vertex -21.8 -130 3.2
      vertex -50 -130 0.7
      vertex -21.8 -130 0.7
    endloop
  endfacet
  facet normal 1 -0 0
    outer loop
      vertex -42.65 -120.375 3.2
      vertex -42.65 -79.625 0.7
      vertex -42.65 -79.625 3.2
    endloop
  endfacet
  facet normal 1 0 0
    outer loop
      vertex -42.65 -79.625 0.7
      vertex -42.65 -120.375 3.2
      vertex -42.65 -120.375 0.7
    endloop
  endfacet
  facet normal 0 1 -0
    outer loop
      vertex -21.8 -120.375 0.7
      vertex -42.65 -120.375 3.2
      vertex -21.8 -120.375 3.2
    endloop
  endfacet
  facet normal 0 1 0
    outer loop
      vertex -42.65 -120.375 3.2
      vertex -21.8 -120.375 0.7
      vertex -42.65 -120.375 0.7
    endloop
  endfacet
  facet normal 0 -1 0
    outer loop
      vertex -42.65 -79.625 0.7
      vertex -21.8 -79.625 3.2
      vertex -42.65 -79.625 3.2
    endloop
  endfacet
  facet normal 0 -1 -0
    outer loop
      vertex -21.8 -79.625 3.2
      vertex -42.65 -79.625 0.7
      vertex -21.8 -79.625 0.7
    endloop
  endfacet
  facet normal 1 -0 0
    outer loop
      vertex 40 0 3.2
      vertex 40 80 0.7
      vertex 40 80 3.2
    endloop
  endfacet
  facet normal 1 0 0
    outer loop
      vertex 40 80 0.7
      vertex 40 0 3.2
      vertex 40 0 0.7
    endloop
  endfacet
  facet normal 0 1 -0
    outer loop
      vertex 40 80 0.7
      vertex 21.8 80 3.2
      vertex 40 80 3.2
    endloop
  endfacet
  facet normal 0 1 0
    outer loop
      vertex 21.8 80 3.2
      vertex 40 80 0.7
      vertex 21.8 80 0.7
    endloop
  endfacet
  facet normal 0 0 -1
    outer loop
      vertex 21.8 50 0.7
      vertex 40 0 0.7
      vertex 21.8 0 0.7
    endloop
  endfacet
  facet normal 0 0 -1
    outer loop
      vertex 40 0 0.7
      vertex 21.8 50 0.7
      vertex 40 80 0.7
    endloop
  endfacet
  facet normal -0 0 -1
    outer loop
      vertex 40 80 0.7
      vertex 21.8 50 0.7
      vertex 21.8 80 0.7
    endloop
  endfacet
  facet normal 0 -1 0
    outer loop
      vertex 21.8 0 0.7
      vertex 40 0 3.2
      vertex 21.8 0 3.2
    endloop
  endfacet
  facet normal 0 -1 -0
    outer loop
      vertex 40 0 3.2
      vertex 21.8 0 0.7
      vertex 40 0 0.7
    endloop
  endfacet
  facet normal -1 0 0
    outer loop
      vertex -40 0 0.7
      vertex -40 80 3.2
      vertex -40 80 0.7
    endloop
  endfacet
  facet normal -1 -0 0
    outer loop
      vertex -40 80 3.2
      vertex -40 0 0.7
      vertex -40 0 3.2
    endloop
  endfacet
  facet normal 0 0 -1
    outer loop
      vertex -40 0 0.7
      vertex -21.8 50 0.7
      vertex -21.8 0 0.7
    endloop
  endfacet
  facet normal 0 0 -1
    outer loop
      vertex -40 80 0.7
      vertex -21.8 50 0.7
      vertex -40 0 0.7
    endloop
  endfacet
  facet normal 0 0 -1
    outer loop
      vertex -21.8 50 0.7
      vertex -40 80 0.7
      vertex -21.8 80 0.7
    endloop
  endfacet
  facet normal 0 -1 0
    outer loop
      vertex -40 0 0.7
      vertex -21.8 0 3.2
      vertex -40 0 3.2
    endloop
  endfacet
  facet normal 0 -1 -0
    outer loop
      vertex -21.8 0 3.2
      vertex -40 0 0.7
      vertex -21.8 0 0.7
    endloop
  endfacet
  facet normal 0 1 -0
    outer loop
      vertex -21.8 80 0.7
      vertex -40 80 3.2
      vertex -21.8 80 3.2
    endloop
  endfacet
  facet normal 0 1 0
    outer loop
      vertex -40 80 3.2
      vertex -21.8 80 0.7
      vertex -40 80 0.7
    endloop
  endfacet
  facet normal 1 -0 0
    outer loop
      vertex 40 -50 3.2
      vertex 40 -40 0.7
      vertex 40 -40 3.2
    endloop
  endfacet
  facet normal 1 0 0
    outer loop
      vertex 40 -40 0.7
      vertex 40 -50 3.2
      vertex 40 -50 0.7
    endloop
  endfacet
  facet normal 0 0 -1
    outer loop
      vertex 21.8 -50 0.7
      vertex 40 -40 0.7
      vertex 40 -50 0.7
    endloop
  endfacet
  facet normal -0 0 -1
    outer loop
      vertex 40 -40 0.7
      vertex 21.8 -50 0.7
      vertex 21.8 -40 0.7
    endloop
  endfacet
  facet normal 0 1 -0
    outer loop
      vertex 40 -40 0.7
      vertex 21.8 -40 3.2
      vertex 40 -40 3.2
    endloop
  endfacet
  facet normal 0 1 0
    outer loop
      vertex 21.8 -40 3.2
      vertex 40 -40 0.7
      vertex 21.8 -40 0.7
    endloop
  endfacet
endsolid OpenSCAD_Model
