solid OpenSCAD_Model
  facet normal -1 0 0
    outer loop
      vertex -30 -30 -1.75
      vertex -30 30 1.75
      vertex -30 30 -1.75
    endloop
  endfacet
  facet normal -1 -0 0
    outer loop
      vertex -30 30 1.75
      vertex -30 -30 -1.75
      vertex -30 -30 1.75
    endloop
  endfacet
  facet normal 0 0 1
    outer loop
      vertex 30 30 1.75
      vertex 26.5 0 1.75
      vertex 30 -30 1.75
    endloop
  endfacet
  facet normal 0 0 1
    outer loop
      vertex 30 30 1.75
      vertex 25.9209 5.50966 1.75
      vertex 26.5 0 1.75
    endloop
  endfacet
  facet normal 0 0 1
    outer loop
      vertex 30 30 1.75
      vertex 24.209 10.7785 1.75
      vertex 25.9209 5.50966 1.75
    endloop
  endfacet
  facet normal 0 0 1
    outer loop
      vertex 30 30 1.75
      vertex 21.4389 15.5763 1.75
      vertex 24.209 10.7785 1.75
    endloop
  endfacet
  facet normal 0 0 1
    outer loop
      vertex 30 30 1.75
      vertex 17.732 19.6933 1.75
      vertex 21.4389 15.5763 1.75
    endloop
  endfacet
  facet normal 0 0 1
    outer loop
      vertex 30 30 1.75
      vertex 13.25 22.9497 1.75
      vertex 17.732 19.6933 1.75
    endloop
  endfacet
  facet normal 0 0 1
    outer loop
      vertex 30 30 1.75
      vertex 8.18895 25.203 1.75
      vertex 13.25 22.9497 1.75
    endloop
  endfacet
  facet normal 0 0 1
    outer loop
      vertex 30 30 1.75
      vertex 2.77 26.3548 1.75
      vertex 8.18895 25.203 1.75
    endloop
  endfacet
  facet normal 0 0 1
    outer loop
      vertex 30 30 1.75
      vertex -2.77 26.3548 1.75
      vertex 2.77 26.3548 1.75
    endloop
  endfacet
  facet normal 0 0 1
    outer loop
      vertex -25.9209 5.50966 1.75
      vertex -30 30 1.75
      vertex -26.5 0 1.75
    endloop
  endfacet
  facet normal 0 0 1
    outer loop
      vertex -24.209 10.7785 1.75
      vertex -30 30 1.75
      vertex -25.9209 5.50966 1.75
    endloop
  endfacet
  facet normal 0 0 1
    outer loop
      vertex -21.4389 15.5763 1.75
      vertex -30 30 1.75
      vertex -24.209 10.7785 1.75
    endloop
  endfacet
  facet normal 0 0 1
    outer loop
      vertex -17.732 19.6933 1.75
      vertex -30 30 1.75
      vertex -21.4389 15.5763 1.75
    endloop
  endfacet
  facet normal 0 0 1
    outer loop
      vertex -13.25 22.9497 1.75
      vertex -30 30 1.75
      vertex -17.732 19.6933 1.75
    endloop
  endfacet
  facet normal 0 0 1
    outer loop
      vertex -8.18895 25.203 1.75
      vertex -30 30 1.75
      vertex -13.25 22.9497 1.75
    endloop
  endfacet
  facet normal 0 0 1
    outer loop
      vertex -2.77 26.3548 1.75
      vertex -30 30 1.75
      vertex -8.18895 25.203 1.75
    endloop
  endfacet
  facet normal -0 0 1
    outer loop
      vertex -30 30 1.75
      vertex -2.77 26.3548 1.75
      vertex 30 30 1.75
    endloop
  endfacet
  facet normal -0 0 1
    outer loop
      vertex 25.9209 -5.50966 1.75
      vertex 30 -30 1.75
      vertex 26.5 0 1.75
    endloop
  endfacet
  facet normal -0 0 1
    outer loop
      vertex 24.209 -10.7785 1.75
      vertex 30 -30 1.75
      vertex 25.9209 -5.50966 1.75
    endloop
  endfacet
  facet normal -0 0 1
    outer loop
      vertex 21.4389 -15.5763 1.75
      vertex 30 -30 1.75
      vertex 24.209 -10.7785 1.75
    endloop
  endfacet
  facet normal -0 0 1
    outer loop
      vertex 17.732 -19.6933 1.75
      vertex 30 -30 1.75
      vertex 21.4389 -15.5763 1.75
    endloop
  endfacet
  facet normal -0 0 1
    outer loop
      vertex 13.25 -22.9497 1.75
      vertex 30 -30 1.75
      vertex 17.732 -19.6933 1.75
    endloop
  endfacet
  facet normal -0 0 1
    outer loop
      vertex 8.18895 -25.203 1.75
      vertex 30 -30 1.75
      vertex 13.25 -22.9497 1.75
    endloop
  endfacet
  facet normal -0 0 1
    outer loop
      vertex 2.77 -26.3548 1.75
      vertex 30 -30 1.75
      vertex 8.18895 -25.203 1.75
    endloop
  endfacet
  facet normal -0 0 1
    outer loop
      vertex -2.77 -26.3548 1.75
      vertex 30 -30 1.75
      vertex 2.77 -26.3548 1.75
    endloop
  endfacet
  facet normal 0 0 1
    outer loop
      vertex -30 -30 1.75
      vertex -26.5 0 1.75
      vertex -30 30 1.75
    endloop
  endfacet
  facet normal 0 0 1
    outer loop
      vertex -2.77 -26.3548 1.75
      vertex -30 -30 1.75
      vertex 30 -30 1.75
    endloop
  endfacet
  facet normal 0 0 1
    outer loop
      vertex -8.18895 -25.203 1.75
      vertex -30 -30 1.75
      vertex -2.77 -26.3548 1.75
    endloop
  endfacet
  facet normal 0 0 1
    outer loop
      vertex -13.25 -22.9497 1.75
      vertex -30 -30 1.75
      vertex -8.18895 -25.203 1.75
    endloop
  endfacet
  facet normal 0 0 1
    outer loop
      vertex -17.732 -19.6933 1.75
      vertex -30 -30 1.75
      vertex -13.25 -22.9497 1.75
    endloop
  endfacet
  facet normal 0 0 1
    outer loop
      vertex -21.4389 -15.5763 1.75
      vertex -30 -30 1.75
      vertex -17.732 -19.6933 1.75
    endloop
  endfacet
  facet normal 0 0 1
    outer loop
      vertex -24.209 -10.7785 1.75
      vertex -30 -30 1.75
      vertex -21.4389 -15.5763 1.75
    endloop
  endfacet
  facet normal 0 0 1
    outer loop
      vertex -25.9209 -5.50966 1.75
      vertex -30 -30 1.75
      vertex -24.209 -10.7785 1.75
    endloop
  endfacet
  facet normal 0 0 1
    outer loop
      vertex -26.5 0 1.75
      vertex -30 -30 1.75
      vertex -25.9209 -5.50966 1.75
    endloop
  endfacet
  facet normal 1 -0 0
    outer loop
      vertex 30 -30 1.75
      vertex 30 30 -1.75
      vertex 30 30 1.75
    endloop
  endfacet
  facet normal 1 0 0
    outer loop
      vertex 30 30 -1.75
      vertex 30 -30 1.75
      vertex 30 -30 -1.75
    endloop
  endfacet
  facet normal 0 0 -1
    outer loop
      vertex 30 -30 -1.75
      vertex 20 0 -1.75
      vertex 30 30 -1.75
    endloop
  endfacet
  facet normal 0 0 -1
    outer loop
      vertex 30 -30 -1.75
      vertex 19.563 -4.15823 -1.75
      vertex 20 0 -1.75
    endloop
  endfacet
  facet normal 0 0 -1
    outer loop
      vertex 30 -30 -1.75
      vertex 18.2709 -8.13473 -1.75
      vertex 19.563 -4.15823 -1.75
    endloop
  endfacet
  facet normal 0 0 -1
    outer loop
      vertex 30 -30 -1.75
      vertex 16.1803 -11.7557 -1.75
      vertex 18.2709 -8.13473 -1.75
    endloop
  endfacet
  facet normal 0 0 -1
    outer loop
      vertex 30 -30 -1.75
      vertex 13.3826 -14.8629 -1.75
      vertex 16.1803 -11.7557 -1.75
    endloop
  endfacet
  facet normal 0 0 -1
    outer loop
      vertex 30 -30 -1.75
      vertex 10 -17.3205 -1.75
      vertex 13.3826 -14.8629 -1.75
    endloop
  endfacet
  facet normal 0 0 -1
    outer loop
      vertex 30 -30 -1.75
      vertex 6.18034 -19.0211 -1.75
      vertex 10 -17.3205 -1.75
    endloop
  endfacet
  facet normal 0 0 -1
    outer loop
      vertex 30 -30 -1.75
      vertex 2.09057 -19.8904 -1.75
      vertex 6.18034 -19.0211 -1.75
    endloop
  endfacet
  facet normal 0 0 -1
    outer loop
      vertex 30 -30 -1.75
      vertex -2.09057 -19.8904 -1.75
      vertex 2.09057 -19.8904 -1.75
    endloop
  endfacet
  facet normal 0 0 -1
    outer loop
      vertex -30 -30 -1.75
      vertex -2.09057 -19.8904 -1.75
      vertex 30 -30 -1.75
    endloop
  endfacet
  facet normal -0 0 -1
    outer loop
      vertex -19.563 -4.15823 -1.75
      vertex -30 -30 -1.75
      vertex -20 0 -1.75
    endloop
  endfacet
  facet normal -0 0 -1
    outer loop
      vertex -18.2709 -8.13473 -1.75
      vertex -30 -30 -1.75
      vertex -19.563 -4.15823 -1.75
    endloop
  endfacet
  facet normal -0 0 -1
    outer loop
      vertex -16.1803 -11.7557 -1.75
      vertex -30 -30 -1.75
      vertex -18.2709 -8.13473 -1.75
    endloop
  endfacet
  facet normal -0 0 -1
    outer loop
      vertex -13.3826 -14.8629 -1.75
      vertex -30 -30 -1.75
      vertex -16.1803 -11.7557 -1.75
    endloop
  endfacet
  facet normal -0 0 -1
    outer loop
      vertex -10 -17.3205 -1.75
      vertex -30 -30 -1.75
      vertex -13.3826 -14.8629 -1.75
    endloop
  endfacet
  facet normal -0 0 -1
    outer loop
      vertex -6.18034 -19.0211 -1.75
      vertex -30 -30 -1.75
      vertex -10 -17.3205 -1.75
    endloop
  endfacet
  facet normal -0 0 -1
    outer loop
      vertex -2.09057 -19.8904 -1.75
      vertex -30 -30 -1.75
      vertex -6.18034 -19.0211 -1.75
    endloop
  endfacet
  facet normal 0 0 -1
    outer loop
      vertex 19.563 4.15823 -1.75
      vertex 30 30 -1.75
      vertex 20 0 -1.75
    endloop
  endfacet
  facet normal 0 0 -1
    outer loop
      vertex 18.2709 8.13473 -1.75
      vertex 30 30 -1.75
      vertex 19.563 4.15823 -1.75
    endloop
  endfacet
  facet normal 0 0 -1
    outer loop
      vertex 16.1803 11.7557 -1.75
      vertex 30 30 -1.75
      vertex 18.2709 8.13473 -1.75
    endloop
  endfacet
  facet normal 0 0 -1
    outer loop
      vertex 13.3826 14.8629 -1.75
      vertex 30 30 -1.75
      vertex 16.1803 11.7557 -1.75
    endloop
  endfacet
  facet normal 0 0 -1
    outer loop
      vertex 10 17.3205 -1.75
      vertex 30 30 -1.75
      vertex 13.3826 14.8629 -1.75
    endloop
  endfacet
  facet normal 0 0 -1
    outer loop
      vertex 6.18034 19.0211 -1.75
      vertex 30 30 -1.75
      vertex 10 17.3205 -1.75
    endloop
  endfacet
  facet normal 0 0 -1
    outer loop
      vertex 2.09057 19.8904 -1.75
      vertex 30 30 -1.75
      vertex 6.18034 19.0211 -1.75
    endloop
  endfacet
  facet normal 0 0 -1
    outer loop
      vertex -2.09057 19.8904 -1.75
      vertex 30 30 -1.75
      vertex 2.09057 19.8904 -1.75
    endloop
  endfacet
  facet normal 0 0 -1
    outer loop
      vertex -30 30 -1.75
      vertex -2.09057 19.8904 -1.75
      vertex -6.18034 19.0211 -1.75
    endloop
  endfacet
  facet normal 0 0 -1
    outer loop
      vertex -30 30 -1.75
      vertex -20 0 -1.75
      vertex -30 -30 -1.75
    endloop
  endfacet
  facet normal 0 0 -1
    outer loop
      vertex -2.09057 19.8904 -1.75
      vertex -30 30 -1.75
      vertex 30 30 -1.75
    endloop
  endfacet
  facet normal 0 0 -1
    outer loop
      vertex -10 17.3205 -1.75
      vertex -30 30 -1.75
      vertex -6.18034 19.0211 -1.75
    endloop
  endfacet
  facet normal 0 0 -1
    outer loop
      vertex -13.3826 14.8629 -1.75
      vertex -30 30 -1.75
      vertex -10 17.3205 -1.75
    endloop
  endfacet
  facet normal 0 0 -1
    outer loop
      vertex -16.1803 11.7557 -1.75
      vertex -30 30 -1.75
      vertex -13.3826 14.8629 -1.75
    endloop
  endfacet
  facet normal 0 0 -1
    outer loop
      vertex -18.2709 8.13473 -1.75
      vertex -30 30 -1.75
      vertex -16.1803 11.7557 -1.75
    endloop
  endfacet
  facet normal 0 0 -1
    outer loop
      vertex -19.563 4.15823 -1.75
      vertex -30 30 -1.75
      vertex -18.2709 8.13473 -1.75
    endloop
  endfacet
  facet normal 0 0 -1
    outer loop
      vertex -20 0 -1.75
      vertex -30 30 -1.75
      vertex -19.563 4.15823 -1.75
    endloop
  endfacet
  facet normal 0 -1 0
    outer loop
      vertex -30 -30 -1.75
      vertex 30 -30 1.75
      vertex -30 -30 1.75
    endloop
  endfacet
  facet normal 0 -1 -0
    outer loop
      vertex 30 -30 1.75
      vertex -30 -30 -1.75
      vertex 30 -30 -1.75
    endloop
  endfacet
  facet normal 0 1 -0
    outer loop
      vertex 30 30 -1.75
      vertex -30 30 1.75
      vertex 30 30 1.75
    endloop
  endfacet
  facet normal 0 1 0
    outer loop
      vertex -30 30 1.75
      vertex 30 30 -1.75
      vertex -30 30 -1.75
    endloop
  endfacet
  facet normal 0.866025 0.5 0
    outer loop
      vertex 24.209 10.7785 14.75
      vertex 21.4389 15.5763 1.75
      vertex 21.4389 15.5763 14.75
    endloop
  endfacet
  facet normal 0.866025 0.5 0
    outer loop
      vertex 21.4389 15.5763 1.75
      vertex 24.209 10.7785 14.75
      vertex 24.209 10.7785 1.75
    endloop
  endfacet
  facet normal 0 1 -0
    outer loop
      vertex 2.77 26.3548 1.75
      vertex -2.77 26.3548 14.75
      vertex 2.77 26.3548 14.75
    endloop
  endfacet
  facet normal 0 1 0
    outer loop
      vertex -2.77 26.3548 14.75
      vertex 2.77 26.3548 1.75
      vertex -2.77 26.3548 1.75
    endloop
  endfacet
  facet normal 0.743145 0.669131 0
    outer loop
      vertex 21.4389 15.5763 14.75
      vertex 17.732 19.6933 1.75
      vertex 17.732 19.6933 14.75
    endloop
  endfacet
  facet normal 0.743145 0.669131 0
    outer loop
      vertex 17.732 19.6933 1.75
      vertex 21.4389 15.5763 14.75
      vertex 21.4389 15.5763 1.75
    endloop
  endfacet
  facet normal 0.207912 0.978148 -0
    outer loop
      vertex 8.18895 25.203 1.75
      vertex 2.77 26.3548 14.75
      vertex 8.18895 25.203 14.75
    endloop
  endfacet
  facet normal 0.207912 0.978148 0
    outer loop
      vertex 2.77 26.3548 14.75
      vertex 8.18895 25.203 1.75
      vertex 2.77 26.3548 1.75
    endloop
  endfacet
  facet normal -0.406737 0.913545 0
    outer loop
      vertex -8.18895 25.203 1.75
      vertex -13.25 22.9497 14.75
      vertex -8.18895 25.203 14.75
    endloop
  endfacet
  facet normal -0.406737 0.913545 0
    outer loop
      vertex -13.25 22.9497 14.75
      vertex -8.18895 25.203 1.75
      vertex -13.25 22.9497 1.75
    endloop
  endfacet
  facet normal -0.866025 0.5 0
    outer loop
      vertex -24.209 10.7785 1.75
      vertex -21.4389 15.5763 14.75
      vertex -21.4389 15.5763 1.75
    endloop
  endfacet
  facet normal -0.866025 0.5 0
    outer loop
      vertex -21.4389 15.5763 14.75
      vertex -24.209 10.7785 1.75
      vertex -24.209 10.7785 14.75
    endloop
  endfacet
  facet normal -0.587785 0.809017 0
    outer loop
      vertex -13.25 22.9497 1.75
      vertex -17.732 19.6933 14.75
      vertex -13.25 22.9497 14.75
    endloop
  endfacet
  facet normal -0.587785 0.809017 0
    outer loop
      vertex -17.732 19.6933 14.75
      vertex -13.25 22.9497 1.75
      vertex -17.732 19.6933 1.75
    endloop
  endfacet
  facet normal 0.994522 -0.104529 0
    outer loop
      vertex 25.9209 -5.50966 14.75
      vertex 26.5 0 1.75
      vertex 26.5 0 14.75
    endloop
  endfacet
  facet normal 0.994522 -0.104529 0
    outer loop
      vertex 26.5 0 1.75
      vertex 25.9209 -5.50966 14.75
      vertex 25.9209 -5.50966 1.75
    endloop
  endfacet
  facet normal 0.207912 -0.978148 0
    outer loop
      vertex 2.77 -26.3548 1.75
      vertex 8.18895 -25.203 14.75
      vertex 2.77 -26.3548 14.75
    endloop
  endfacet
  facet normal 0.207912 -0.978148 0
    outer loop
      vertex 8.18895 -25.203 14.75
      vertex 2.77 -26.3548 1.75
      vertex 8.18895 -25.203 1.75
    endloop
  endfacet
  facet normal 0.951057 0.309017 0
    outer loop
      vertex 25.9209 5.50966 14.75
      vertex 24.209 10.7785 1.75
      vertex 24.209 10.7785 14.75
    endloop
  endfacet
  facet normal 0.951057 0.309017 0
    outer loop
      vertex 24.209 10.7785 1.75
      vertex 25.9209 5.50966 14.75
      vertex 25.9209 5.50966 1.75
    endloop
  endfacet
  facet normal 0.587785 0.809017 -0
    outer loop
      vertex 17.732 19.6933 1.75
      vertex 13.25 22.9497 14.75
      vertex 17.732 19.6933 14.75
    endloop
  endfacet
  facet normal 0.587785 0.809017 0
    outer loop
      vertex 13.25 22.9497 14.75
      vertex 17.732 19.6933 1.75
      vertex 13.25 22.9497 1.75
    endloop
  endfacet
  facet normal 0.406737 0.913545 -0
    outer loop
      vertex 13.25 22.9497 1.75
      vertex 8.18895 25.203 14.75
      vertex 13.25 22.9497 14.75
    endloop
  endfacet
  facet normal 0.406737 0.913545 0
    outer loop
      vertex 8.18895 25.203 14.75
      vertex 13.25 22.9497 1.75
      vertex 8.18895 25.203 1.75
    endloop
  endfacet
  facet normal -0.994522 0.104529 0
    outer loop
      vertex -26.5 0 1.75
      vertex -25.9209 5.50966 14.75
      vertex -25.9209 5.50966 1.75
    endloop
  endfacet
  facet normal -0.994522 0.104529 0
    outer loop
      vertex -25.9209 5.50966 14.75
      vertex -26.5 0 1.75
      vertex -26.5 0 14.75
    endloop
  endfacet
  facet normal -0.743145 0.669131 0
    outer loop
      vertex -21.4389 15.5763 1.75
      vertex -17.732 19.6933 14.75
      vertex -17.732 19.6933 1.75
    endloop
  endfacet
  facet normal -0.743145 0.669131 0
    outer loop
      vertex -17.732 19.6933 14.75
      vertex -21.4389 15.5763 1.75
      vertex -21.4389 15.5763 14.75
    endloop
  endfacet
  facet normal -0.207912 0.978148 0
    outer loop
      vertex -2.77 26.3548 1.75
      vertex -8.18895 25.203 14.75
      vertex -2.77 26.3548 14.75
    endloop
  endfacet
  facet normal -0.207912 0.978148 0
    outer loop
      vertex -8.18895 25.203 14.75
      vertex -2.77 26.3548 1.75
      vertex -8.18895 25.203 1.75
    endloop
  endfacet
  facet normal 0.994522 0.104529 0
    outer loop
      vertex 26.5 0 14.75
      vertex 25.9209 5.50966 1.75
      vertex 25.9209 5.50966 14.75
    endloop
  endfacet
  facet normal 0.994522 0.104529 0
    outer loop
      vertex 25.9209 5.50966 1.75
      vertex 26.5 0 14.75
      vertex 26.5 0 1.75
    endloop
  endfacet
  facet normal -0.587785 -0.809017 0
    outer loop
      vertex -17.732 -19.6933 1.75
      vertex -13.25 -22.9497 14.75
      vertex -17.732 -19.6933 14.75
    endloop
  endfacet
  facet normal -0.587785 -0.809017 -0
    outer loop
      vertex -13.25 -22.9497 14.75
      vertex -17.732 -19.6933 1.75
      vertex -13.25 -22.9497 1.75
    endloop
  endfacet
  facet normal -0.866025 -0.5 0
    outer loop
      vertex -21.4389 -15.5763 1.75
      vertex -24.209 -10.7785 14.75
      vertex -24.209 -10.7785 1.75
    endloop
  endfacet
  facet normal -0.866025 -0.5 0
    outer loop
      vertex -24.209 -10.7785 14.75
      vertex -21.4389 -15.5763 1.75
      vertex -21.4389 -15.5763 14.75
    endloop
  endfacet
  facet normal 0.587785 -0.809017 0
    outer loop
      vertex 13.25 -22.9497 1.75
      vertex 17.732 -19.6933 14.75
      vertex 13.25 -22.9497 14.75
    endloop
  endfacet
  facet normal 0.587785 -0.809017 0
    outer loop
      vertex 17.732 -19.6933 14.75
      vertex 13.25 -22.9497 1.75
      vertex 17.732 -19.6933 1.75
    endloop
  endfacet
  facet normal 0 0 1
    outer loop
      vertex 24.25 0 14.75
      vertex 26.5 0 14.75
      vertex 25.9209 5.50966 14.75
    endloop
  endfacet
  facet normal 0 0 1
    outer loop
      vertex 26.5 0 14.75
      vertex 24.25 0 14.75
      vertex 25.9209 -5.50966 14.75
    endloop
  endfacet
  facet normal 0 0 1
    outer loop
      vertex 23.7201 5.04186 14.75
      vertex 25.9209 5.50966 14.75
      vertex 24.209 10.7785 14.75
    endloop
  endfacet
  facet normal 0 0 1
    outer loop
      vertex 25.9209 5.50966 14.75
      vertex 23.7201 5.04186 14.75
      vertex 24.25 0 14.75
    endloop
  endfacet
  facet normal 0 0 1
    outer loop
      vertex 24.209 10.7785 14.75
      vertex 22.1535 9.86336 14.75
      vertex 23.7201 5.04186 14.75
    endloop
  endfacet
  facet normal 0 0 1
    outer loop
      vertex 21.4389 15.5763 14.75
      vertex 22.1535 9.86336 14.75
      vertex 24.209 10.7785 14.75
    endloop
  endfacet
  facet normal 0 0 1
    outer loop
      vertex 21.4389 15.5763 14.75
      vertex 19.6187 14.2538 14.75
      vertex 22.1535 9.86336 14.75
    endloop
  endfacet
  facet normal 0 0 1
    outer loop
      vertex 17.732 19.6933 14.75
      vertex 19.6187 14.2538 14.75
      vertex 21.4389 15.5763 14.75
    endloop
  endfacet
  facet normal 0 0 1
    outer loop
      vertex 17.732 19.6933 14.75
      vertex 16.2264 18.0213 14.75
      vertex 19.6187 14.2538 14.75
    endloop
  endfacet
  facet normal 0 0 1
    outer loop
      vertex 13.25 22.9497 14.75
      vertex 16.2264 18.0213 14.75
      vertex 17.732 19.6933 14.75
    endloop
  endfacet
  facet normal 0 0 1
    outer loop
      vertex 13.25 22.9497 14.75
      vertex 12.125 21.0011 14.75
      vertex 16.2264 18.0213 14.75
    endloop
  endfacet
  facet normal 0 0 1
    outer loop
      vertex 8.18895 25.203 14.75
      vertex 12.125 21.0011 14.75
      vertex 13.25 22.9497 14.75
    endloop
  endfacet
  facet normal 0 0 1
    outer loop
      vertex 8.18895 25.203 14.75
      vertex 7.49366 23.0631 14.75
      vertex 12.125 21.0011 14.75
    endloop
  endfacet
  facet normal 0 0 1
    outer loop
      vertex 2.77 26.3548 14.75
      vertex 7.49366 23.0631 14.75
      vertex 8.18895 25.203 14.75
    endloop
  endfacet
  facet normal 0 0 1
    outer loop
      vertex 2.77 26.3548 14.75
      vertex 2.53481 24.1172 14.75
      vertex 7.49366 23.0631 14.75
    endloop
  endfacet
  facet normal 0 0 1
    outer loop
      vertex 2.77 26.3548 14.75
      vertex -2.53481 24.1172 14.75
      vertex 2.53481 24.1172 14.75
    endloop
  endfacet
  facet normal -0 0 1
    outer loop
      vertex -2.77 26.3548 14.75
      vertex -2.53481 24.1172 14.75
      vertex 2.77 26.3548 14.75
    endloop
  endfacet
  facet normal 0 0 1
    outer loop
      vertex -2.77 26.3548 14.75
      vertex -7.49366 23.0631 14.75
      vertex -2.53481 24.1172 14.75
    endloop
  endfacet
  facet normal -0 0 1
    outer loop
      vertex -8.18895 25.203 14.75
      vertex -7.49366 23.0631 14.75
      vertex -2.77 26.3548 14.75
    endloop
  endfacet
  facet normal 0 0 1
    outer loop
      vertex -8.18895 25.203 14.75
      vertex -12.125 21.0011 14.75
      vertex -7.49366 23.0631 14.75
    endloop
  endfacet
  facet normal -0 0 1
    outer loop
      vertex -13.25 22.9497 14.75
      vertex -12.125 21.0011 14.75
      vertex -8.18895 25.203 14.75
    endloop
  endfacet
  facet normal 0 0 1
    outer loop
      vertex -13.25 22.9497 14.75
      vertex -16.2264 18.0213 14.75
      vertex -12.125 21.0011 14.75
    endloop
  endfacet
  facet normal -0 0 1
    outer loop
      vertex -17.732 19.6933 14.75
      vertex -16.2264 18.0213 14.75
      vertex -13.25 22.9497 14.75
    endloop
  endfacet
  facet normal 0 0 1
    outer loop
      vertex -17.732 19.6933 14.75
      vertex -19.6187 14.2538 14.75
      vertex -16.2264 18.0213 14.75
    endloop
  endfacet
  facet normal -0 0 1
    outer loop
      vertex -21.4389 15.5763 14.75
      vertex -19.6187 14.2538 14.75
      vertex -17.732 19.6933 14.75
    endloop
  endfacet
  facet normal 0 0 1
    outer loop
      vertex -21.4389 15.5763 14.75
      vertex -22.1535 9.86336 14.75
      vertex -19.6187 14.2538 14.75
    endloop
  endfacet
  facet normal -0 0 1
    outer loop
      vertex -24.209 10.7785 14.75
      vertex -22.1535 9.86336 14.75
      vertex -21.4389 15.5763 14.75
    endloop
  endfacet
  facet normal 0 0 1
    outer loop
      vertex -22.1535 9.86336 14.75
      vertex -24.209 10.7785 14.75
      vertex -23.7201 5.04186 14.75
    endloop
  endfacet
  facet normal -0 0 1
    outer loop
      vertex -25.9209 5.50966 14.75
      vertex -23.7201 5.04186 14.75
      vertex -24.209 10.7785 14.75
    endloop
  endfacet
  facet normal 0 0 1
    outer loop
      vertex -23.7201 5.04186 14.75
      vertex -25.9209 5.50966 14.75
      vertex -24.25 0 14.75
    endloop
  endfacet
  facet normal -0 0 1
    outer loop
      vertex 23.7201 -5.04186 14.75
      vertex 25.9209 -5.50966 14.75
      vertex 24.25 0 14.75
    endloop
  endfacet
  facet normal 0 0 1
    outer loop
      vertex 25.9209 -5.50966 14.75
      vertex 23.7201 -5.04186 14.75
      vertex 24.209 -10.7785 14.75
    endloop
  endfacet
  facet normal -0 0 1
    outer loop
      vertex 22.1535 -9.86336 14.75
      vertex 24.209 -10.7785 14.75
      vertex 23.7201 -5.04186 14.75
    endloop
  endfacet
  facet normal 0 0 1
    outer loop
      vertex 22.1535 -9.86336 14.75
      vertex 21.4389 -15.5763 14.75
      vertex 24.209 -10.7785 14.75
    endloop
  endfacet
  facet normal -0 0 1
    outer loop
      vertex 19.6187 -14.2538 14.75
      vertex 21.4389 -15.5763 14.75
      vertex 22.1535 -9.86336 14.75
    endloop
  endfacet
  facet normal 0 0 1
    outer loop
      vertex 19.6187 -14.2538 14.75
      vertex 17.732 -19.6933 14.75
      vertex 21.4389 -15.5763 14.75
    endloop
  endfacet
  facet normal -0 0 1
    outer loop
      vertex 16.2264 -18.0213 14.75
      vertex 17.732 -19.6933 14.75
      vertex 19.6187 -14.2538 14.75
    endloop
  endfacet
  facet normal 0 0 1
    outer loop
      vertex 16.2264 -18.0213 14.75
      vertex 13.25 -22.9497 14.75
      vertex 17.732 -19.6933 14.75
    endloop
  endfacet
  facet normal -0 0 1
    outer loop
      vertex 12.125 -21.0011 14.75
      vertex 13.25 -22.9497 14.75
      vertex 16.2264 -18.0213 14.75
    endloop
  endfacet
  facet normal 0 0 1
    outer loop
      vertex 12.125 -21.0011 14.75
      vertex 8.18895 -25.203 14.75
      vertex 13.25 -22.9497 14.75
    endloop
  endfacet
  facet normal -0 0 1
    outer loop
      vertex 7.49366 -23.0631 14.75
      vertex 8.18895 -25.203 14.75
      vertex 12.125 -21.0011 14.75
    endloop
  endfacet
  facet normal 0 0 1
    outer loop
      vertex 7.49366 -23.0631 14.75
      vertex 2.77 -26.3548 14.75
      vertex 8.18895 -25.203 14.75
    endloop
  endfacet
  facet normal -0 0 1
    outer loop
      vertex 2.53481 -24.1172 14.75
      vertex 2.77 -26.3548 14.75
      vertex 7.49366 -23.0631 14.75
    endloop
  endfacet
  facet normal -0 0 1
    outer loop
      vertex -2.53481 -24.1172 14.75
      vertex 2.77 -26.3548 14.75
      vertex 2.53481 -24.1172 14.75
    endloop
  endfacet
  facet normal 0 0 1
    outer loop
      vertex -2.53481 -24.1172 14.75
      vertex -2.77 -26.3548 14.75
      vertex 2.77 -26.3548 14.75
    endloop
  endfacet
  facet normal 0 0 1
    outer loop
      vertex -7.49366 -23.0631 14.75
      vertex -2.77 -26.3548 14.75
      vertex -2.53481 -24.1172 14.75
    endloop
  endfacet
  facet normal 0 0 1
    outer loop
      vertex -7.49366 -23.0631 14.75
      vertex -8.18895 -25.203 14.75
      vertex -2.77 -26.3548 14.75
    endloop
  endfacet
  facet normal 0 0 1
    outer loop
      vertex -12.125 -21.0011 14.75
      vertex -8.18895 -25.203 14.75
      vertex -7.49366 -23.0631 14.75
    endloop
  endfacet
  facet normal 0 0 1
    outer loop
      vertex -12.125 -21.0011 14.75
      vertex -13.25 -22.9497 14.75
      vertex -8.18895 -25.203 14.75
    endloop
  endfacet
  facet normal 0 0 1
    outer loop
      vertex -16.2264 -18.0213 14.75
      vertex -13.25 -22.9497 14.75
      vertex -12.125 -21.0011 14.75
    endloop
  endfacet
  facet normal 0 0 1
    outer loop
      vertex -16.2264 -18.0213 14.75
      vertex -17.732 -19.6933 14.75
      vertex -13.25 -22.9497 14.75
    endloop
  endfacet
  facet normal 0 0 1
    outer loop
      vertex -19.6187 -14.2538 14.75
      vertex -17.732 -19.6933 14.75
      vertex -16.2264 -18.0213 14.75
    endloop
  endfacet
  facet normal 0 0 1
    outer loop
      vertex -19.6187 -14.2538 14.75
      vertex -21.4389 -15.5763 14.75
      vertex -17.732 -19.6933 14.75
    endloop
  endfacet
  facet normal 0 0 1
    outer loop
      vertex -22.1535 -9.86336 14.75
      vertex -21.4389 -15.5763 14.75
      vertex -19.6187 -14.2538 14.75
    endloop
  endfacet
  facet normal 0 0 1
    outer loop
      vertex -24.209 -10.7785 14.75
      vertex -22.1535 -9.86336 14.75
      vertex -23.7201 -5.04186 14.75
    endloop
  endfacet
  facet normal 0 0 1
    outer loop
      vertex -22.1535 -9.86336 14.75
      vertex -24.209 -10.7785 14.75
      vertex -21.4389 -15.5763 14.75
    endloop
  endfacet
  facet normal 0 0 1
    outer loop
      vertex -25.9209 -5.50966 14.75
      vertex -23.7201 -5.04186 14.75
      vertex -24.25 0 14.75
    endloop
  endfacet
  facet normal 0 0 1
    outer loop
      vertex -26.5 0 14.75
      vertex -24.25 0 14.75
      vertex -25.9209 5.50966 14.75
    endloop
  endfacet
  facet normal 0 0 1
    outer loop
      vertex -23.7201 -5.04186 14.75
      vertex -25.9209 -5.50966 14.75
      vertex -24.209 -10.7785 14.75
    endloop
  endfacet
  facet normal 0 0 1
    outer loop
      vertex -24.25 0 14.75
      vertex -26.5 0 14.75
      vertex -25.9209 -5.50966 14.75
    endloop
  endfacet
  facet normal -0.951057 0.309017 0
    outer loop
      vertex -25.9209 5.50966 1.75
      vertex -24.209 10.7785 14.75
      vertex -24.209 10.7785 1.75
    endloop
  endfacet
  facet normal -0.951057 0.309017 0
    outer loop
      vertex -24.209 10.7785 14.75
      vertex -25.9209 5.50966 1.75
      vertex -25.9209 5.50966 14.75
    endloop
  endfacet
  facet normal 0.866025 -0.5 0
    outer loop
      vertex 21.4389 -15.5763 14.75
      vertex 24.209 -10.7785 1.75
      vertex 24.209 -10.7785 14.75
    endloop
  endfacet
  facet normal 0.866025 -0.5 0
    outer loop
      vertex 24.209 -10.7785 1.75
      vertex 21.4389 -15.5763 14.75
      vertex 21.4389 -15.5763 1.75
    endloop
  endfacet
  facet normal 0 -1 0
    outer loop
      vertex -2.77 -26.3548 1.75
      vertex 2.77 -26.3548 14.75
      vertex -2.77 -26.3548 14.75
    endloop
  endfacet
  facet normal 0 -1 -0
    outer loop
      vertex 2.77 -26.3548 14.75
      vertex -2.77 -26.3548 1.75
      vertex 2.77 -26.3548 1.75
    endloop
  endfacet
  facet normal -0.994522 -0.104529 0
    outer loop
      vertex -25.9209 -5.50966 1.75
      vertex -26.5 0 14.75
      vertex -26.5 0 1.75
    endloop
  endfacet
  facet normal -0.994522 -0.104529 0
    outer loop
      vertex -26.5 0 14.75
      vertex -25.9209 -5.50966 1.75
      vertex -25.9209 -5.50966 14.75
    endloop
  endfacet
  facet normal -0.743145 -0.669131 0
    outer loop
      vertex -17.732 -19.6933 1.75
      vertex -21.4389 -15.5763 14.75
      vertex -21.4389 -15.5763 1.75
    endloop
  endfacet
  facet normal -0.743145 -0.669131 0
    outer loop
      vertex -21.4389 -15.5763 14.75
      vertex -17.732 -19.6933 1.75
      vertex -17.732 -19.6933 14.75
    endloop
  endfacet
  facet normal 0.406737 -0.913545 0
    outer loop
      vertex 8.18895 -25.203 1.75
      vertex 13.25 -22.9497 14.75
      vertex 8.18895 -25.203 14.75
    endloop
  endfacet
  facet normal 0.406737 -0.913545 0
    outer loop
      vertex 13.25 -22.9497 14.75
      vertex 8.18895 -25.203 1.75
      vertex 13.25 -22.9497 1.75
    endloop
  endfacet
  facet normal 0.951057 -0.309017 0
    outer loop
      vertex 24.209 -10.7785 14.75
      vertex 25.9209 -5.50966 1.75
      vertex 25.9209 -5.50966 14.75
    endloop
  endfacet
  facet normal 0.951057 -0.309017 0
    outer loop
      vertex 25.9209 -5.50966 1.75
      vertex 24.209 -10.7785 14.75
      vertex 24.209 -10.7785 1.75
    endloop
  endfacet
  facet normal -0.406737 -0.913545 0
    outer loop
      vertex -13.25 -22.9497 1.75
      vertex -8.18895 -25.203 14.75
      vertex -13.25 -22.9497 14.75
    endloop
  endfacet
  facet normal -0.406737 -0.913545 -0
    outer loop
      vertex -8.18895 -25.203 14.75
      vertex -13.25 -22.9497 1.75
      vertex -8.18895 -25.203 1.75
    endloop
  endfacet
  facet normal -0.951057 -0.309017 0
    outer loop
      vertex -24.209 -10.7785 1.75
      vertex -25.9209 -5.50966 14.75
      vertex -25.9209 -5.50966 1.75
    endloop
  endfacet
  facet normal -0.951057 -0.309017 0
    outer loop
      vertex -25.9209 -5.50966 14.75
      vertex -24.209 -10.7785 1.75
      vertex -24.209 -10.7785 14.75
    endloop
  endfacet
  facet normal 0.743145 -0.669131 0
    outer loop
      vertex 17.732 -19.6933 14.75
      vertex 21.4389 -15.5763 1.75
      vertex 21.4389 -15.5763 14.75
    endloop
  endfacet
  facet normal 0.743145 -0.669131 0
    outer loop
      vertex 21.4389 -15.5763 1.75
      vertex 17.732 -19.6933 14.75
      vertex 17.732 -19.6933 1.75
    endloop
  endfacet
  facet normal -0.207912 -0.978148 0
    outer loop
      vertex -8.18895 -25.203 1.75
      vertex -2.77 -26.3548 14.75
      vertex -8.18895 -25.203 14.75
    endloop
  endfacet
  facet normal -0.207912 -0.978148 -0
    outer loop
      vertex -2.77 -26.3548 14.75
      vertex -8.18895 -25.203 1.75
      vertex -2.77 -26.3548 1.75
    endloop
  endfacet
  facet normal -0.866025 -0.5 0
    outer loop
      vertex 22.1535 9.86336 0.75
      vertex 19.6187 14.2538 14.75
      vertex 19.6187 14.2538 0.75
    endloop
  endfacet
  facet normal -0.866025 -0.5 0
    outer loop
      vertex 19.6187 14.2538 14.75
      vertex 22.1535 9.86336 0.75
      vertex 22.1535 9.86336 14.75
    endloop
  endfacet
  facet normal -0.743145 -0.669131 0
    outer loop
      vertex 19.6187 14.2538 0.75
      vertex 16.2264 18.0213 14.75
      vertex 16.2264 18.0213 0.75
    endloop
  endfacet
  facet normal -0.743145 -0.669131 0
    outer loop
      vertex 16.2264 18.0213 14.75
      vertex 19.6187 14.2538 0.75
      vertex 19.6187 14.2538 14.75
    endloop
  endfacet
  facet normal 0.406737 -0.913545 0
    outer loop
      vertex -12.125 21.0011 0.75
      vertex -7.49366 23.0631 14.75
      vertex -12.125 21.0011 14.75
    endloop
  endfacet
  facet normal 0.406737 -0.913545 0
    outer loop
      vertex -7.49366 23.0631 14.75
      vertex -12.125 21.0011 0.75
      vertex -7.49366 23.0631 0.75
    endloop
  endfacet
  facet normal 0.866025 -0.5 0
    outer loop
      vertex -22.1535 9.86336 14.75
      vertex -19.6187 14.2538 0.75
      vertex -19.6187 14.2538 14.75
    endloop
  endfacet
  facet normal 0.866025 -0.5 0
    outer loop
      vertex -19.6187 14.2538 0.75
      vertex -22.1535 9.86336 14.75
      vertex -22.1535 9.86336 0.75
    endloop
  endfacet
  facet normal -0.994522 0.104529 0
    outer loop
      vertex 23.7201 -5.04186 0.75
      vertex 24.25 0 14.75
      vertex 24.25 0 0.75
    endloop
  endfacet
  facet normal -0.994522 0.104529 0
    outer loop
      vertex 24.25 0 14.75
      vertex 23.7201 -5.04186 0.75
      vertex 23.7201 -5.04186 14.75
    endloop
  endfacet
  facet normal -0.587785 -0.809017 0
    outer loop
      vertex 12.125 21.0011 0.75
      vertex 16.2264 18.0213 14.75
      vertex 12.125 21.0011 14.75
    endloop
  endfacet
  facet normal -0.587785 -0.809017 -0
    outer loop
      vertex 16.2264 18.0213 14.75
      vertex 12.125 21.0011 0.75
      vertex 16.2264 18.0213 0.75
    endloop
  endfacet
  facet normal 0 -1 0
    outer loop
      vertex -2.53481 24.1172 0.75
      vertex 2.53481 24.1172 14.75
      vertex -2.53481 24.1172 14.75
    endloop
  endfacet
  facet normal 0 -1 -0
    outer loop
      vertex 2.53481 24.1172 14.75
      vertex -2.53481 24.1172 0.75
      vertex 2.53481 24.1172 0.75
    endloop
  endfacet
  facet normal -0.406737 -0.913545 0
    outer loop
      vertex 7.49366 23.0631 0.75
      vertex 12.125 21.0011 14.75
      vertex 7.49366 23.0631 14.75
    endloop
  endfacet
  facet normal -0.406737 -0.913545 -0
    outer loop
      vertex 12.125 21.0011 14.75
      vertex 7.49366 23.0631 0.75
      vertex 12.125 21.0011 0.75
    endloop
  endfacet
  facet normal 0.994522 -0.104529 0
    outer loop
      vertex -24.25 0 14.75
      vertex -23.7201 5.04186 0.75
      vertex -23.7201 5.04186 14.75
    endloop
  endfacet
  facet normal 0.994522 -0.104529 0
    outer loop
      vertex -23.7201 5.04186 0.75
      vertex -24.25 0 14.75
      vertex -24.25 0 0.75
    endloop
  endfacet
  facet normal 0.587785 -0.809017 0
    outer loop
      vertex -16.2264 18.0213 0.75
      vertex -12.125 21.0011 14.75
      vertex -16.2264 18.0213 14.75
    endloop
  endfacet
  facet normal 0.587785 -0.809017 0
    outer loop
      vertex -12.125 21.0011 14.75
      vertex -16.2264 18.0213 0.75
      vertex -12.125 21.0011 0.75
    endloop
  endfacet
  facet normal 0.207912 -0.978148 0
    outer loop
      vertex -7.49366 23.0631 0.75
      vertex -2.53481 24.1172 14.75
      vertex -7.49366 23.0631 14.75
    endloop
  endfacet
  facet normal 0.207912 -0.978148 0
    outer loop
      vertex -2.53481 24.1172 14.75
      vertex -7.49366 23.0631 0.75
      vertex -2.53481 24.1172 0.75
    endloop
  endfacet
  facet normal 0.743145 -0.669131 0
    outer loop
      vertex -19.6187 14.2538 14.75
      vertex -16.2264 18.0213 0.75
      vertex -16.2264 18.0213 14.75
    endloop
  endfacet
  facet normal 0.743145 -0.669131 0
    outer loop
      vertex -16.2264 18.0213 0.75
      vertex -19.6187 14.2538 14.75
      vertex -19.6187 14.2538 0.75
    endloop
  endfacet
  facet normal -0.994522 -0.104529 0
    outer loop
      vertex 24.25 0 0.75
      vertex 23.7201 5.04186 14.75
      vertex 23.7201 5.04186 0.75
    endloop
  endfacet
  facet normal -0.994522 -0.104529 0
    outer loop
      vertex 23.7201 5.04186 14.75
      vertex 24.25 0 0.75
      vertex 24.25 0 14.75
    endloop
  endfacet
  facet normal 0.866025 0.5 0
    outer loop
      vertex -19.6187 -14.2538 14.75
      vertex -22.1535 -9.86336 0.75
      vertex -22.1535 -9.86336 14.75
    endloop
  endfacet
  facet normal 0.866025 0.5 0
    outer loop
      vertex -22.1535 -9.86336 0.75
      vertex -19.6187 -14.2538 14.75
      vertex -19.6187 -14.2538 0.75
    endloop
  endfacet
  facet normal -0.587785 0.809017 0
    outer loop
      vertex 16.2264 -18.0213 0.75
      vertex 12.125 -21.0011 14.75
      vertex 16.2264 -18.0213 14.75
    endloop
  endfacet
  facet normal -0.587785 0.809017 0
    outer loop
      vertex 12.125 -21.0011 14.75
      vertex 16.2264 -18.0213 0.75
      vertex 12.125 -21.0011 0.75
    endloop
  endfacet
  facet normal -0.951057 -0.309017 0
    outer loop
      vertex 23.7201 5.04186 0.75
      vertex 22.1535 9.86336 14.75
      vertex 22.1535 9.86336 0.75
    endloop
  endfacet
  facet normal -0.951057 -0.309017 0
    outer loop
      vertex 22.1535 9.86336 14.75
      vertex 23.7201 5.04186 0.75
      vertex 23.7201 5.04186 14.75
    endloop
  endfacet
  facet normal -0.207912 -0.978148 0
    outer loop
      vertex 2.53481 24.1172 0.75
      vertex 7.49366 23.0631 14.75
      vertex 2.53481 24.1172 14.75
    endloop
  endfacet
  facet normal -0.207912 -0.978148 -0
    outer loop
      vertex 7.49366 23.0631 14.75
      vertex 2.53481 24.1172 0.75
      vertex 7.49366 23.0631 0.75
    endloop
  endfacet
  facet normal 0.951057 -0.309017 0
    outer loop
      vertex -23.7201 5.04186 14.75
      vertex -22.1535 9.86336 0.75
      vertex -22.1535 9.86336 14.75
    endloop
  endfacet
  facet normal 0.951057 -0.309017 0
    outer loop
      vertex -22.1535 9.86336 0.75
      vertex -23.7201 5.04186 14.75
      vertex -23.7201 5.04186 0.75
    endloop
  endfacet
  facet normal -0.866025 0.5 0
    outer loop
      vertex 19.6187 -14.2538 0.75
      vertex 22.1535 -9.86336 14.75
      vertex 22.1535 -9.86336 0.75
    endloop
  endfacet
  facet normal -0.866025 0.5 0
    outer loop
      vertex 22.1535 -9.86336 14.75
      vertex 19.6187 -14.2538 0.75
      vertex 19.6187 -14.2538 14.75
    endloop
  endfacet
  facet normal 0 1 -0
    outer loop
      vertex 2.53481 -24.1172 0.75
      vertex -2.53481 -24.1172 14.75
      vertex 2.53481 -24.1172 14.75
    endloop
  endfacet
  facet normal 0 1 0
    outer loop
      vertex -2.53481 -24.1172 14.75
      vertex 2.53481 -24.1172 0.75
      vertex -2.53481 -24.1172 0.75
    endloop
  endfacet
  facet normal 0.994522 0.104529 0
    outer loop
      vertex -23.7201 -5.04186 14.75
      vertex -24.25 0 0.75
      vertex -24.25 0 14.75
    endloop
  endfacet
  facet normal 0.994522 0.104529 0
    outer loop
      vertex -24.25 0 0.75
      vertex -23.7201 -5.04186 14.75
      vertex -23.7201 -5.04186 0.75
    endloop
  endfacet
  facet normal 0 0 1
    outer loop
      vertex 20 0 0.75
      vertex 24.25 0 0.75
      vertex 23.7201 5.04186 0.75
    endloop
  endfacet
  facet normal 0 0 1
    outer loop
      vertex 19.563 4.15823 0.75
      vertex 23.7201 5.04186 0.75
      vertex 22.1535 9.86336 0.75
    endloop
  endfacet
  facet normal 0 0 1
    outer loop
      vertex 24.25 0 0.75
      vertex 20 0 0.75
      vertex 23.7201 -5.04186 0.75
    endloop
  endfacet
  facet normal -0 0 1
    outer loop
      vertex 19.563 -4.15823 0.75
      vertex 23.7201 -5.04186 0.75
      vertex 20 0 0.75
    endloop
  endfacet
  facet normal 0 0 1
    outer loop
      vertex 18.2709 8.13473 0.75
      vertex 22.1535 9.86336 0.75
      vertex 19.6187 14.2538 0.75
    endloop
  endfacet
  facet normal 0 0 1
    outer loop
      vertex 23.7201 5.04186 0.75
      vertex 19.563 4.15823 0.75
      vertex 20 0 0.75
    endloop
  endfacet
  facet normal 0 0 1
    outer loop
      vertex 22.1535 9.86336 0.75
      vertex 18.2709 8.13473 0.75
      vertex 19.563 4.15823 0.75
    endloop
  endfacet
  facet normal 0 0 1
    outer loop
      vertex 16.1803 11.7557 0.75
      vertex 19.6187 14.2538 0.75
      vertex 16.2264 18.0213 0.75
    endloop
  endfacet
  facet normal 0 0 1
    outer loop
      vertex 19.6187 14.2538 0.75
      vertex 16.1803 11.7557 0.75
      vertex 18.2709 8.13473 0.75
    endloop
  endfacet
  facet normal 0 0 1
    outer loop
      vertex 16.2264 18.0213 0.75
      vertex 13.3826 14.8629 0.75
      vertex 16.1803 11.7557 0.75
    endloop
  endfacet
  facet normal 0 0 1
    outer loop
      vertex 12.125 21.0011 0.75
      vertex 13.3826 14.8629 0.75
      vertex 16.2264 18.0213 0.75
    endloop
  endfacet
  facet normal 0 0 1
    outer loop
      vertex 12.125 21.0011 0.75
      vertex 10 17.3205 0.75
      vertex 13.3826 14.8629 0.75
    endloop
  endfacet
  facet normal 0 0 1
    outer loop
      vertex 7.49366 23.0631 0.75
      vertex 10 17.3205 0.75
      vertex 12.125 21.0011 0.75
    endloop
  endfacet
  facet normal 0 0 1
    outer loop
      vertex 7.49366 23.0631 0.75
      vertex 6.18034 19.0211 0.75
      vertex 10 17.3205 0.75
    endloop
  endfacet
  facet normal 0 0 1
    outer loop
      vertex 2.53481 24.1172 0.75
      vertex 6.18034 19.0211 0.75
      vertex 7.49366 23.0631 0.75
    endloop
  endfacet
  facet normal 0 0 1
    outer loop
      vertex 2.53481 24.1172 0.75
      vertex 2.09057 19.8904 0.75
      vertex 6.18034 19.0211 0.75
    endloop
  endfacet
  facet normal 0 0 1
    outer loop
      vertex 2.53481 24.1172 0.75
      vertex -2.09057 19.8904 0.75
      vertex 2.09057 19.8904 0.75
    endloop
  endfacet
  facet normal -0 0 1
    outer loop
      vertex -2.53481 24.1172 0.75
      vertex -2.09057 19.8904 0.75
      vertex 2.53481 24.1172 0.75
    endloop
  endfacet
  facet normal 0 0 1
    outer loop
      vertex -2.53481 24.1172 0.75
      vertex -6.18034 19.0211 0.75
      vertex -2.09057 19.8904 0.75
    endloop
  endfacet
  facet normal -0 0 1
    outer loop
      vertex -7.49366 23.0631 0.75
      vertex -6.18034 19.0211 0.75
      vertex -2.53481 24.1172 0.75
    endloop
  endfacet
  facet normal 0 0 1
    outer loop
      vertex -7.49366 23.0631 0.75
      vertex -10 17.3205 0.75
      vertex -6.18034 19.0211 0.75
    endloop
  endfacet
  facet normal -0 0 1
    outer loop
      vertex -12.125 21.0011 0.75
      vertex -10 17.3205 0.75
      vertex -7.49366 23.0631 0.75
    endloop
  endfacet
  facet normal 0 0 1
    outer loop
      vertex -12.125 21.0011 0.75
      vertex -13.3826 14.8629 0.75
      vertex -10 17.3205 0.75
    endloop
  endfacet
  facet normal -0 0 1
    outer loop
      vertex -16.2264 18.0213 0.75
      vertex -13.3826 14.8629 0.75
      vertex -12.125 21.0011 0.75
    endloop
  endfacet
  facet normal 0 0 1
    outer loop
      vertex -13.3826 14.8629 0.75
      vertex -16.2264 18.0213 0.75
      vertex -16.1803 11.7557 0.75
    endloop
  endfacet
  facet normal -0 0 1
    outer loop
      vertex -19.6187 14.2538 0.75
      vertex -16.1803 11.7557 0.75
      vertex -16.2264 18.0213 0.75
    endloop
  endfacet
  facet normal 0 0 1
    outer loop
      vertex -16.1803 11.7557 0.75
      vertex -19.6187 14.2538 0.75
      vertex -18.2709 8.13473 0.75
    endloop
  endfacet
  facet normal -0 0 1
    outer loop
      vertex -22.1535 9.86336 0.75
      vertex -18.2709 8.13473 0.75
      vertex -19.6187 14.2538 0.75
    endloop
  endfacet
  facet normal 0 0 1
    outer loop
      vertex -18.2709 8.13473 0.75
      vertex -22.1535 9.86336 0.75
      vertex -19.563 4.15823 0.75
    endloop
  endfacet
  facet normal -0 0 1
    outer loop
      vertex -23.7201 5.04186 0.75
      vertex -19.563 4.15823 0.75
      vertex -22.1535 9.86336 0.75
    endloop
  endfacet
  facet normal 0 0 1
    outer loop
      vertex 23.7201 -5.04186 0.75
      vertex 19.563 -4.15823 0.75
      vertex 22.1535 -9.86336 0.75
    endloop
  endfacet
  facet normal -0 0 1
    outer loop
      vertex 18.2709 -8.13473 0.75
      vertex 22.1535 -9.86336 0.75
      vertex 19.563 -4.15823 0.75
    endloop
  endfacet
  facet normal 0 0 1
    outer loop
      vertex 22.1535 -9.86336 0.75
      vertex 18.2709 -8.13473 0.75
      vertex 19.6187 -14.2538 0.75
    endloop
  endfacet
  facet normal -0 0 1
    outer loop
      vertex 16.1803 -11.7557 0.75
      vertex 19.6187 -14.2538 0.75
      vertex 18.2709 -8.13473 0.75
    endloop
  endfacet
  facet normal 0 0 1
    outer loop
      vertex 19.6187 -14.2538 0.75
      vertex 16.1803 -11.7557 0.75
      vertex 16.2264 -18.0213 0.75
    endloop
  endfacet
  facet normal -0 0 1
    outer loop
      vertex 13.3826 -14.8629 0.75
      vertex 16.2264 -18.0213 0.75
      vertex 16.1803 -11.7557 0.75
    endloop
  endfacet
  facet normal 0 0 1
    outer loop
      vertex 13.3826 -14.8629 0.75
      vertex 12.125 -21.0011 0.75
      vertex 16.2264 -18.0213 0.75
    endloop
  endfacet
  facet normal -0 0 1
    outer loop
      vertex 10 -17.3205 0.75
      vertex 12.125 -21.0011 0.75
      vertex 13.3826 -14.8629 0.75
    endloop
  endfacet
  facet normal 0 0 1
    outer loop
      vertex 10 -17.3205 0.75
      vertex 7.49366 -23.0631 0.75
      vertex 12.125 -21.0011 0.75
    endloop
  endfacet
  facet normal -0 0 1
    outer loop
      vertex 6.18034 -19.0211 0.75
      vertex 7.49366 -23.0631 0.75
      vertex 10 -17.3205 0.75
    endloop
  endfacet
  facet normal 0 0 1
    outer loop
      vertex 6.18034 -19.0211 0.75
      vertex 2.53481 -24.1172 0.75
      vertex 7.49366 -23.0631 0.75
    endloop
  endfacet
  facet normal -0 0 1
    outer loop
      vertex 2.09057 -19.8904 0.75
      vertex 2.53481 -24.1172 0.75
      vertex 6.18034 -19.0211 0.75
    endloop
  endfacet
  facet normal -0 0 1
    outer loop
      vertex -2.09057 -19.8904 0.75
      vertex 2.53481 -24.1172 0.75
      vertex 2.09057 -19.8904 0.75
    endloop
  endfacet
  facet normal 0 0 1
    outer loop
      vertex -2.09057 -19.8904 0.75
      vertex -2.53481 -24.1172 0.75
      vertex 2.53481 -24.1172 0.75
    endloop
  endfacet
  facet normal 0 0 1
    outer loop
      vertex -6.18034 -19.0211 0.75
      vertex -2.53481 -24.1172 0.75
      vertex -2.09057 -19.8904 0.75
    endloop
  endfacet
  facet normal 0 0 1
    outer loop
      vertex -6.18034 -19.0211 0.75
      vertex -7.49366 -23.0631 0.75
      vertex -2.53481 -24.1172 0.75
    endloop
  endfacet
  facet normal 0 0 1
    outer loop
      vertex -10 -17.3205 0.75
      vertex -7.49366 -23.0631 0.75
      vertex -6.18034 -19.0211 0.75
    endloop
  endfacet
  facet normal 0 0 1
    outer loop
      vertex -10 -17.3205 0.75
      vertex -12.125 -21.0011 0.75
      vertex -7.49366 -23.0631 0.75
    endloop
  endfacet
  facet normal 0 0 1
    outer loop
      vertex -13.3826 -14.8629 0.75
      vertex -12.125 -21.0011 0.75
      vertex -10 -17.3205 0.75
    endloop
  endfacet
  facet normal 0 0 1
    outer loop
      vertex -16.2264 -18.0213 0.75
      vertex -13.3826 -14.8629 0.75
      vertex -16.1803 -11.7557 0.75
    endloop
  endfacet
  facet normal 0 0 1
    outer loop
      vertex -13.3826 -14.8629 0.75
      vertex -16.2264 -18.0213 0.75
      vertex -12.125 -21.0011 0.75
    endloop
  endfacet
  facet normal 0 0 1
    outer loop
      vertex -19.6187 -14.2538 0.75
      vertex -16.1803 -11.7557 0.75
      vertex -18.2709 -8.13473 0.75
    endloop
  endfacet
  facet normal 0 0 1
    outer loop
      vertex -22.1535 -9.86336 0.75
      vertex -18.2709 -8.13473 0.75
      vertex -19.563 -4.15823 0.75
    endloop
  endfacet
  facet normal 0 0 1
    outer loop
      vertex -16.1803 -11.7557 0.75
      vertex -19.6187 -14.2538 0.75
      vertex -16.2264 -18.0213 0.75
    endloop
  endfacet
  facet normal 0 0 1
    outer loop
      vertex -23.7201 -5.04186 0.75
      vertex -19.563 -4.15823 0.75
      vertex -20 0 0.75
    endloop
  endfacet
  facet normal 0 0 1
    outer loop
      vertex -19.563 4.15823 0.75
      vertex -23.7201 5.04186 0.75
      vertex -20 0 0.75
    endloop
  endfacet
  facet normal 0 0 1
    outer loop
      vertex -18.2709 -8.13473 0.75
      vertex -22.1535 -9.86336 0.75
      vertex -19.6187 -14.2538 0.75
    endloop
  endfacet
  facet normal 0 0 1
    outer loop
      vertex -24.25 0 0.75
      vertex -20 0 0.75
      vertex -23.7201 5.04186 0.75
    endloop
  endfacet
  facet normal 0 0 1
    outer loop
      vertex -19.563 -4.15823 0.75
      vertex -23.7201 -5.04186 0.75
      vertex -22.1535 -9.86336 0.75
    endloop
  endfacet
  facet normal 0 0 1
    outer loop
      vertex -20 0 0.75
      vertex -24.25 0 0.75
      vertex -23.7201 -5.04186 0.75
    endloop
  endfacet
  facet normal -0.207912 0.978148 0
    outer loop
      vertex 7.49366 -23.0631 0.75
      vertex 2.53481 -24.1172 14.75
      vertex 7.49366 -23.0631 14.75
    endloop
  endfacet
  facet normal -0.207912 0.978148 0
    outer loop
      vertex 2.53481 -24.1172 14.75
      vertex 7.49366 -23.0631 0.75
      vertex 2.53481 -24.1172 0.75
    endloop
  endfacet
  facet normal -0.406737 0.913545 0
    outer loop
      vertex 12.125 -21.0011 0.75
      vertex 7.49366 -23.0631 14.75
      vertex 12.125 -21.0011 14.75
    endloop
  endfacet
  facet normal -0.406737 0.913545 0
    outer loop
      vertex 7.49366 -23.0631 14.75
      vertex 12.125 -21.0011 0.75
      vertex 7.49366 -23.0631 0.75
    endloop
  endfacet
  facet normal -0.951057 0.309017 0
    outer loop
      vertex 22.1535 -9.86336 0.75
      vertex 23.7201 -5.04186 14.75
      vertex 23.7201 -5.04186 0.75
    endloop
  endfacet
  facet normal -0.951057 0.309017 0
    outer loop
      vertex 23.7201 -5.04186 14.75
      vertex 22.1535 -9.86336 0.75
      vertex 22.1535 -9.86336 14.75
    endloop
  endfacet
  facet normal 0.207912 0.978148 -0
    outer loop
      vertex -2.53481 -24.1172 0.75
      vertex -7.49366 -23.0631 14.75
      vertex -2.53481 -24.1172 14.75
    endloop
  endfacet
  facet normal 0.207912 0.978148 0
    outer loop
      vertex -7.49366 -23.0631 14.75
      vertex -2.53481 -24.1172 0.75
      vertex -7.49366 -23.0631 0.75
    endloop
  endfacet
  facet normal 0.951057 0.309017 0
    outer loop
      vertex -22.1535 -9.86336 14.75
      vertex -23.7201 -5.04186 0.75
      vertex -23.7201 -5.04186 14.75
    endloop
  endfacet
  facet normal 0.951057 0.309017 0
    outer loop
      vertex -23.7201 -5.04186 0.75
      vertex -22.1535 -9.86336 14.75
      vertex -22.1535 -9.86336 0.75
    endloop
  endfacet
  facet normal 0.743145 0.669131 0
    outer loop
      vertex -16.2264 -18.0213 14.75
      vertex -19.6187 -14.2538 0.75
      vertex -19.6187 -14.2538 14.75
    endloop
  endfacet
  facet normal 0.743145 0.669131 0
    outer loop
      vertex -19.6187 -14.2538 0.75
      vertex -16.2264 -18.0213 14.75
      vertex -16.2264 -18.0213 0.75
    endloop
  endfacet
  facet normal -0.743145 0.669131 0
    outer loop
      vertex 16.2264 -18.0213 0.75
      vertex 19.6187 -14.2538 14.75
      vertex 19.6187 -14.2538 0.75
    endloop
  endfacet
  facet normal -0.743145 0.669131 0
    outer loop
      vertex 19.6187 -14.2538 14.75
      vertex 16.2264 -18.0213 0.75
      vertex 16.2264 -18.0213 14.75
    endloop
  endfacet
  facet normal 0.587785 0.809017 -0
    outer loop
      vertex -12.125 -21.0011 0.75
      vertex -16.2264 -18.0213 14.75
      vertex -12.125 -21.0011 14.75
    endloop
  endfacet
  facet normal 0.587785 0.809017 0
    outer loop
      vertex -16.2264 -18.0213 14.75
      vertex -12.125 -21.0011 0.75
      vertex -16.2264 -18.0213 0.75
    endloop
  endfacet
  facet normal 0.406737 0.913545 -0
    outer loop
      vertex -7.49366 -23.0631 0.75
      vertex -12.125 -21.0011 14.75
      vertex -7.49366 -23.0631 14.75
    endloop
  endfacet
  facet normal 0.406737 0.913545 0
    outer loop
      vertex -12.125 -21.0011 14.75
      vertex -7.49366 -23.0631 0.75
      vertex -12.125 -21.0011 0.75
    endloop
  endfacet
  facet normal -0.994522 -0.104529 0
    outer loop
      vertex 20 0 -1.75
      vertex 19.563 4.15823 0.75
      vertex 19.563 4.15823 -1.75
    endloop
  endfacet
  facet normal -0.994522 -0.104529 0
    outer loop
      vertex 19.563 4.15823 0.75
      vertex 20 0 -1.75
      vertex 20 0 0.75
    endloop
  endfacet
  facet normal 0.994522 -0.104529 0
    outer loop
      vertex -20 0 0.75
      vertex -19.563 4.15823 -1.75
      vertex -19.563 4.15823 0.75
    endloop
  endfacet
  facet normal 0.994522 -0.104529 0
    outer loop
      vertex -19.563 4.15823 -1.75
      vertex -20 0 0.75
      vertex -20 0 -1.75
    endloop
  endfacet
  facet normal 0 -1 0
    outer loop
      vertex -2.09057 19.8904 -1.75
      vertex 2.09057 19.8904 0.75
      vertex -2.09057 19.8904 0.75
    endloop
  endfacet
  facet normal 0 -1 -0
    outer loop
      vertex 2.09057 19.8904 0.75
      vertex -2.09057 19.8904 -1.75
      vertex 2.09057 19.8904 -1.75
    endloop
  endfacet
  facet normal -0.587785 -0.809017 0
    outer loop
      vertex 10 17.3205 -1.75
      vertex 13.3826 14.8629 0.75
      vertex 10 17.3205 0.75
    endloop
  endfacet
  facet normal -0.587785 -0.809017 -0
    outer loop
      vertex 13.3826 14.8629 0.75
      vertex 10 17.3205 -1.75
      vertex 13.3826 14.8629 -1.75
    endloop
  endfacet
  facet normal -0.406737 -0.913545 0
    outer loop
      vertex 6.18034 19.0211 -1.75
      vertex 10 17.3205 0.75
      vertex 6.18034 19.0211 0.75
    endloop
  endfacet
  facet normal -0.406737 -0.913545 -0
    outer loop
      vertex 10 17.3205 0.75
      vertex 6.18034 19.0211 -1.75
      vertex 10 17.3205 -1.75
    endloop
  endfacet
  facet normal 0.743145 -0.669131 0
    outer loop
      vertex -16.1803 11.7557 0.75
      vertex -13.3826 14.8629 -1.75
      vertex -13.3826 14.8629 0.75
    endloop
  endfacet
  facet normal 0.743145 -0.669131 0
    outer loop
      vertex -13.3826 14.8629 -1.75
      vertex -16.1803 11.7557 0.75
      vertex -16.1803 11.7557 -1.75
    endloop
  endfacet
  facet normal 0.866026 -0.5 0
    outer loop
      vertex -18.2709 8.13473 0.75
      vertex -16.1803 11.7557 -1.75
      vertex -16.1803 11.7557 0.75
    endloop
  endfacet
  facet normal 0.866026 -0.5 0
    outer loop
      vertex -16.1803 11.7557 -1.75
      vertex -18.2709 8.13473 0.75
      vertex -18.2709 8.13473 -1.75
    endloop
  endfacet
  facet normal 0.406737 -0.913545 0
    outer loop
      vertex -10 17.3205 -1.75
      vertex -6.18034 19.0211 0.75
      vertex -10 17.3205 0.75
    endloop
  endfacet
  facet normal 0.406737 -0.913545 0
    outer loop
      vertex -6.18034 19.0211 0.75
      vertex -10 17.3205 -1.75
      vertex -6.18034 19.0211 -1.75
    endloop
  endfacet
  facet normal -0.866026 -0.5 0
    outer loop
      vertex 18.2709 8.13473 -1.75
      vertex 16.1803 11.7557 0.75
      vertex 16.1803 11.7557 -1.75
    endloop
  endfacet
  facet normal -0.866026 -0.5 0
    outer loop
      vertex 16.1803 11.7557 0.75
      vertex 18.2709 8.13473 -1.75
      vertex 18.2709 8.13473 0.75
    endloop
  endfacet
  facet normal -0.951057 -0.309017 0
    outer loop
      vertex 19.563 4.15823 -1.75
      vertex 18.2709 8.13473 0.75
      vertex 18.2709 8.13473 -1.75
    endloop
  endfacet
  facet normal -0.951057 -0.309017 0
    outer loop
      vertex 18.2709 8.13473 0.75
      vertex 19.563 4.15823 -1.75
      vertex 19.563 4.15823 0.75
    endloop
  endfacet
  facet normal -0.743145 -0.669131 0
    outer loop
      vertex 16.1803 11.7557 -1.75
      vertex 13.3826 14.8629 0.75
      vertex 13.3826 14.8629 -1.75
    endloop
  endfacet
  facet normal -0.743145 -0.669131 0
    outer loop
      vertex 13.3826 14.8629 0.75
      vertex 16.1803 11.7557 -1.75
      vertex 16.1803 11.7557 0.75
    endloop
  endfacet
  facet normal -0.207912 -0.978148 0
    outer loop
      vertex 2.09057 19.8904 -1.75
      vertex 6.18034 19.0211 0.75
      vertex 2.09057 19.8904 0.75
    endloop
  endfacet
  facet normal -0.207912 -0.978148 -0
    outer loop
      vertex 6.18034 19.0211 0.75
      vertex 2.09057 19.8904 -1.75
      vertex 6.18034 19.0211 -1.75
    endloop
  endfacet
  facet normal 0.951057 -0.309017 0
    outer loop
      vertex -19.563 4.15823 0.75
      vertex -18.2709 8.13473 -1.75
      vertex -18.2709 8.13473 0.75
    endloop
  endfacet
  facet normal 0.951057 -0.309017 0
    outer loop
      vertex -18.2709 8.13473 -1.75
      vertex -19.563 4.15823 0.75
      vertex -19.563 4.15823 -1.75
    endloop
  endfacet
  facet normal 0.587785 -0.809017 0
    outer loop
      vertex -13.3826 14.8629 -1.75
      vertex -10 17.3205 0.75
      vertex -13.3826 14.8629 0.75
    endloop
  endfacet
  facet normal 0.587785 -0.809017 0
    outer loop
      vertex -10 17.3205 0.75
      vertex -13.3826 14.8629 -1.75
      vertex -10 17.3205 -1.75
    endloop
  endfacet
  facet normal 0.207912 -0.978148 0
    outer loop
      vertex -6.18034 19.0211 -1.75
      vertex -2.09057 19.8904 0.75
      vertex -6.18034 19.0211 0.75
    endloop
  endfacet
  facet normal 0.207912 -0.978148 0
    outer loop
      vertex -2.09057 19.8904 0.75
      vertex -6.18034 19.0211 -1.75
      vertex -2.09057 19.8904 -1.75
    endloop
  endfacet
  facet normal -0.994522 0.104529 0
    outer loop
      vertex 19.563 -4.15823 -1.75
      vertex 20 0 0.75
      vertex 20 0 -1.75
    endloop
  endfacet
  facet normal -0.994522 0.104529 0
    outer loop
      vertex 20 0 0.75
      vertex 19.563 -4.15823 -1.75
      vertex 19.563 -4.15823 0.75
    endloop
  endfacet
  facet normal 0.207912 0.978148 -0
    outer loop
      vertex -2.09057 -19.8904 -1.75
      vertex -6.18034 -19.0211 0.75
      vertex -2.09057 -19.8904 0.75
    endloop
  endfacet
  facet normal 0.207912 0.978148 0
    outer loop
      vertex -6.18034 -19.0211 0.75
      vertex -2.09057 -19.8904 -1.75
      vertex -6.18034 -19.0211 -1.75
    endloop
  endfacet
  facet normal -0.207912 0.978148 0
    outer loop
      vertex 6.18034 -19.0211 -1.75
      vertex 2.09057 -19.8904 0.75
      vertex 6.18034 -19.0211 0.75
    endloop
  endfacet
  facet normal -0.207912 0.978148 0
    outer loop
      vertex 2.09057 -19.8904 0.75
      vertex 6.18034 -19.0211 -1.75
      vertex 2.09057 -19.8904 -1.75
    endloop
  endfacet
  facet normal -0.743145 0.669131 0
    outer loop
      vertex 13.3826 -14.8629 -1.75
      vertex 16.1803 -11.7557 0.75
      vertex 16.1803 -11.7557 -1.75
    endloop
  endfacet
  facet normal -0.743145 0.669131 0
    outer loop
      vertex 16.1803 -11.7557 0.75
      vertex 13.3826 -14.8629 -1.75
      vertex 13.3826 -14.8629 0.75
    endloop
  endfacet
  facet normal -0.951057 0.309017 0
    outer loop
      vertex 18.2709 -8.13473 -1.75
      vertex 19.563 -4.15823 0.75
      vertex 19.563 -4.15823 -1.75
    endloop
  endfacet
  facet normal -0.951057 0.309017 0
    outer loop
      vertex 19.563 -4.15823 0.75
      vertex 18.2709 -8.13473 -1.75
      vertex 18.2709 -8.13473 0.75
    endloop
  endfacet
  facet normal -0.866026 0.5 0
    outer loop
      vertex 16.1803 -11.7557 -1.75
      vertex 18.2709 -8.13473 0.75
      vertex 18.2709 -8.13473 -1.75
    endloop
  endfacet
  facet normal -0.866026 0.5 0
    outer loop
      vertex 18.2709 -8.13473 0.75
      vertex 16.1803 -11.7557 -1.75
      vertex 16.1803 -11.7557 0.75
    endloop
  endfacet
  facet normal 0.866026 0.5 0
    outer loop
      vertex -16.1803 -11.7557 0.75
      vertex -18.2709 -8.13473 -1.75
      vertex -18.2709 -8.13473 0.75
    endloop
  endfacet
  facet normal 0.866026 0.5 0
    outer loop
      vertex -18.2709 -8.13473 -1.75
      vertex -16.1803 -11.7557 0.75
      vertex -16.1803 -11.7557 -1.75
    endloop
  endfacet
  facet normal 0.994522 0.104529 0
    outer loop
      vertex -19.563 -4.15823 0.75
      vertex -20 0 -1.75
      vertex -20 0 0.75
    endloop
  endfacet
  facet normal 0.994522 0.104529 0
    outer loop
      vertex -20 0 -1.75
      vertex -19.563 -4.15823 0.75
      vertex -19.563 -4.15823 -1.75
    endloop
  endfacet
  facet normal 0.951057 0.309017 0
    outer loop
      vertex -18.2709 -8.13473 0.75
      vertex -19.563 -4.15823 -1.75
      vertex -19.563 -4.15823 0.75
    endloop
  endfacet
  facet normal 0.951057 0.309017 0
    outer loop
      vertex -19.563 -4.15823 -1.75
      vertex -18.2709 -8.13473 0.75
      vertex -18.2709 -8.13473 -1.75
    endloop
  endfacet
  facet normal -0.587785 0.809017 0
    outer loop
      vertex 13.3826 -14.8629 -1.75
      vertex 10 -17.3205 0.75
      vertex 13.3826 -14.8629 0.75
    endloop
  endfacet
  facet normal -0.587785 0.809017 0
    outer loop
      vertex 10 -17.3205 0.75
      vertex 13.3826 -14.8629 -1.75
      vertex 10 -17.3205 -1.75
    endloop
  endfacet
  facet normal -0.406737 0.913545 0
    outer loop
      vertex 10 -17.3205 -1.75
      vertex 6.18034 -19.0211 0.75
      vertex 10 -17.3205 0.75
    endloop
  endfacet
  facet normal -0.406737 0.913545 0
    outer loop
      vertex 6.18034 -19.0211 0.75
      vertex 10 -17.3205 -1.75
      vertex 6.18034 -19.0211 -1.75
    endloop
  endfacet
  facet normal 0 1 -0
    outer loop
      vertex 2.09057 -19.8904 -1.75
      vertex -2.09057 -19.8904 0.75
      vertex 2.09057 -19.8904 0.75
    endloop
  endfacet
  facet normal 0 1 0
    outer loop
      vertex -2.09057 -19.8904 0.75
      vertex 2.09057 -19.8904 -1.75
      vertex -2.09057 -19.8904 -1.75
    endloop
  endfacet
  facet normal 0.406737 0.913545 -0
    outer loop
      vertex -6.18034 -19.0211 -1.75
      vertex -10 -17.3205 0.75
      vertex -6.18034 -19.0211 0.75
    endloop
  endfacet
  facet normal 0.406737 0.913545 0
    outer loop
      vertex -10 -17.3205 0.75
      vertex -6.18034 -19.0211 -1.75
      vertex -10 -17.3205 -1.75
    endloop
  endfacet
  facet normal 0.743145 0.669131 0
    outer loop
      vertex -13.3826 -14.8629 0.75
      vertex -16.1803 -11.7557 -1.75
      vertex -16.1803 -11.7557 0.75
    endloop
  endfacet
  facet normal 0.743145 0.669131 0
    outer loop
      vertex -16.1803 -11.7557 -1.75
      vertex -13.3826 -14.8629 0.75
      vertex -13.3826 -14.8629 -1.75
    endloop
  endfacet
  facet normal 0.587785 0.809017 -0
    outer loop
      vertex -10 -17.3205 -1.75
      vertex -13.3826 -14.8629 0.75
      vertex -10 -17.3205 0.75
    endloop
  endfacet
  facet normal 0.587785 0.809017 0
    outer loop
      vertex -13.3826 -14.8629 0.75
      vertex -10 -17.3205 -1.75
      vertex -13.3826 -14.8629 -1.75
    endloop
  endfacet
endsolid OpenSCAD_Model
