solid OpenSCAD_Model
  facet normal -1 0 0
    outer loop
      vertex 125 26.7 0
      vertex 125 2.5 12
      vertex 125 26.7 12
    endloop
  endfacet
  facet normal -1 0 0
    outer loop
      vertex 125 2.5 12
      vertex 125 -2.5 12
      vertex 125 2.5 27
    endloop
  endfacet
  facet normal -1 0 0
    outer loop
      vertex 125 26.7 0
      vertex 125 -2.5 12
      vertex 125 2.5 12
    endloop
  endfacet
  facet normal -1 0 0
    outer loop
      vertex 125 -26.7 0
      vertex 125 -2.5 12
      vertex 125 26.7 0
    endloop
  endfacet
  facet normal -1 -0 0
    outer loop
      vertex 125 -2.5 12
      vertex 125 -26.7 0
      vertex 125 -26.7 12
    endloop
  endfacet
  facet normal -1 -0 0
    outer loop
      vertex 125 2.5 27
      vertex 125 -2.5 12
      vertex 125 -2.5 27
    endloop
  endfacet
  facet normal -0 0 1
    outer loop
      vertex 125 2.5 27
      vertex 140 -2.5 27
      vertex 140 2.5 27
    endloop
  endfacet
  facet normal 0 0 1
    outer loop
      vertex 140 -2.5 27
      vertex 125 2.5 27
      vertex 125 -2.5 27
    endloop
  endfacet
  facet normal 1 -0 0
    outer loop
      vertex 140 -2.5 27
      vertex 140 2.5 12
      vertex 140 2.5 27
    endloop
  endfacet
  facet normal 1 0 0
    outer loop
      vertex 140 2.5 12
      vertex 140 -2.5 27
      vertex 140 -2.5 12
    endloop
  endfacet
  facet normal 0 1 0
    outer loop
      vertex 140 2.5 27
      vertex 132.5 2.5 20.375
      vertex 125 2.5 27
    endloop
  endfacet
  facet normal 0 1 0
    outer loop
      vertex 140 2.5 27
      vertex 132.543 2.5 20.3737
      vertex 132.5 2.5 20.375
    endloop
  endfacet
  facet normal 0 1 0
    outer loop
      vertex 140 2.5 27
      vertex 132.555 2.5 20.3733
      vertex 132.543 2.5 20.3737
    endloop
  endfacet
  facet normal 0 1 0
    outer loop
      vertex 140 2.5 27
      vertex 132.61 2.5 20.3681
      vertex 132.555 2.5 20.3733
    endloop
  endfacet
  facet normal 0 1 0
    outer loop
      vertex 140 2.5 27
      vertex 132.664 2.5 20.3595
      vertex 132.61 2.5 20.3681
    endloop
  endfacet
  facet normal 0 1 0
    outer loop
      vertex 140 2.5 27
      vertex 132.718 2.5 20.3475
      vertex 132.664 2.5 20.3595
    endloop
  endfacet
  facet normal 0 1 0
    outer loop
      vertex 140 2.5 27
      vertex 132.77 2.5 20.3322
      vertex 132.718 2.5 20.3475
    endloop
  endfacet
  facet normal 0 1 0
    outer loop
      vertex 140 2.5 27
      vertex 132.822 2.5 20.3136
      vertex 132.77 2.5 20.3322
    endloop
  endfacet
  facet normal 0 1 0
    outer loop
      vertex 140 2.5 27
      vertex 132.873 2.5 20.2917
      vertex 132.822 2.5 20.3136
    endloop
  endfacet
  facet normal 0 1 0
    outer loop
      vertex 140 2.5 27
      vertex 132.922 2.5 20.2668
      vertex 132.873 2.5 20.2917
    endloop
  endfacet
  facet normal 0 1 0
    outer loop
      vertex 140 2.5 27
      vertex 132.969 2.5 20.2388
      vertex 132.922 2.5 20.2668
    endloop
  endfacet
  facet normal 0 1 0
    outer loop
      vertex 140 2.5 27
      vertex 133.014 2.5 20.2079
      vertex 132.969 2.5 20.2388
    endloop
  endfacet
  facet normal 0 1 0
    outer loop
      vertex 140 2.5 27
      vertex 133.058 2.5 20.1742
      vertex 133.014 2.5 20.2079
    endloop
  endfacet
  facet normal 0 1 0
    outer loop
      vertex 140 2.5 27
      vertex 133.099 2.5 20.1378
      vertex 133.058 2.5 20.1742
    endloop
  endfacet
  facet normal 0 1 0
    outer loop
      vertex 140 2.5 27
      vertex 133.138 2.5 20.099
      vertex 133.099 2.5 20.1378
    endloop
  endfacet
  facet normal 0 1 0
    outer loop
      vertex 140 2.5 27
      vertex 133.174 2.5 20.0577
      vertex 133.138 2.5 20.099
    endloop
  endfacet
  facet normal 0 1 0
    outer loop
      vertex 140 2.5 27
      vertex 133.208 2.5 20.0143
      vertex 133.174 2.5 20.0577
    endloop
  endfacet
  facet normal 0 1 0
    outer loop
      vertex 140 2.5 27
      vertex 133.239 2.5 19.9688
      vertex 133.208 2.5 20.0143
    endloop
  endfacet
  facet normal 0 1 0
    outer loop
      vertex 140 2.5 27
      vertex 133.267 2.5 19.9215
      vertex 133.239 2.5 19.9688
    endloop
  endfacet
  facet normal 0 1 0
    outer loop
      vertex 140 2.5 27
      vertex 133.292 2.5 19.8726
      vertex 133.267 2.5 19.9215
    endloop
  endfacet
  facet normal 0 1 0
    outer loop
      vertex 140 2.5 27
      vertex 133.314 2.5 19.8221
      vertex 133.292 2.5 19.8726
    endloop
  endfacet
  facet normal 0 1 0
    outer loop
      vertex 140 2.5 27
      vertex 133.332 2.5 19.7704
      vertex 133.314 2.5 19.8221
    endloop
  endfacet
  facet normal 0 1 0
    outer loop
      vertex 140 2.5 27
      vertex 133.348 2.5 19.7176
      vertex 133.332 2.5 19.7704
    endloop
  endfacet
  facet normal 0 1 0
    outer loop
      vertex 140 2.5 27
      vertex 133.359 2.5 19.664
      vertex 133.348 2.5 19.7176
    endloop
  endfacet
  facet normal 0 1 0
    outer loop
      vertex 140 2.5 27
      vertex 133.368 2.5 19.6097
      vertex 133.359 2.5 19.664
    endloop
  endfacet
  facet normal 0 1 0
    outer loop
      vertex 140 2.5 27
      vertex 133.373 2.5 19.5549
      vertex 133.368 2.5 19.6097
    endloop
  endfacet
  facet normal 0 1 0
    outer loop
      vertex 140 2.5 27
      vertex 133.375 2.5 19.5
      vertex 133.373 2.5 19.5549
    endloop
  endfacet
  facet normal 0 1 -0
    outer loop
      vertex 140 2.5 12
      vertex 133.375 2.5 19.5
      vertex 140 2.5 27
    endloop
  endfacet
  facet normal 0 1 0
    outer loop
      vertex 133.375 2.5 19.5
      vertex 140 2.5 12
      vertex 133.373 2.5 19.4451
    endloop
  endfacet
  facet normal 0 1 0
    outer loop
      vertex 133.373 2.5 19.4451
      vertex 140 2.5 12
      vertex 133.368 2.5 19.3903
    endloop
  endfacet
  facet normal 0 1 0
    outer loop
      vertex 133.368 2.5 19.3903
      vertex 140 2.5 12
      vertex 133.359 2.5 19.336
    endloop
  endfacet
  facet normal 0 1 0
    outer loop
      vertex 133.359 2.5 19.336
      vertex 140 2.5 12
      vertex 133.348 2.5 19.2824
    endloop
  endfacet
  facet normal 0 1 0
    outer loop
      vertex 133.348 2.5 19.2824
      vertex 140 2.5 12
      vertex 133.332 2.5 19.2296
    endloop
  endfacet
  facet normal 0 1 0
    outer loop
      vertex 133.332 2.5 19.2296
      vertex 140 2.5 12
      vertex 133.314 2.5 19.1779
    endloop
  endfacet
  facet normal 0 1 0
    outer loop
      vertex 133.314 2.5 19.1779
      vertex 140 2.5 12
      vertex 133.292 2.5 19.1274
    endloop
  endfacet
  facet normal 0 1 0
    outer loop
      vertex 133.292 2.5 19.1274
      vertex 140 2.5 12
      vertex 133.267 2.5 19.0785
    endloop
  endfacet
  facet normal 0 1 0
    outer loop
      vertex 133.267 2.5 19.0785
      vertex 140 2.5 12
      vertex 133.239 2.5 19.0312
    endloop
  endfacet
  facet normal 0 1 0
    outer loop
      vertex 133.239 2.5 19.0312
      vertex 140 2.5 12
      vertex 133.208 2.5 18.9857
    endloop
  endfacet
  facet normal 0 1 0
    outer loop
      vertex 132.512 2.5 18.6254
      vertex 140 2.5 12
      vertex 132.5 2.5 18.625
    endloop
  endfacet
  facet normal 0 1 0
    outer loop
      vertex 132.555 2.5 18.6267
      vertex 140 2.5 12
      vertex 132.512 2.5 18.6254
    endloop
  endfacet
  facet normal 0 1 0
    outer loop
      vertex 132.61 2.5 18.6319
      vertex 140 2.5 12
      vertex 132.555 2.5 18.6267
    endloop
  endfacet
  facet normal 0 1 0
    outer loop
      vertex 132.664 2.5 18.6405
      vertex 140 2.5 12
      vertex 132.61 2.5 18.6319
    endloop
  endfacet
  facet normal 0 1 0
    outer loop
      vertex 132.718 2.5 18.6525
      vertex 140 2.5 12
      vertex 132.664 2.5 18.6405
    endloop
  endfacet
  facet normal 0 1 0
    outer loop
      vertex 132.77 2.5 18.6678
      vertex 140 2.5 12
      vertex 132.718 2.5 18.6525
    endloop
  endfacet
  facet normal 0 1 0
    outer loop
      vertex 132.822 2.5 18.6864
      vertex 140 2.5 12
      vertex 132.77 2.5 18.6678
    endloop
  endfacet
  facet normal 0 1 0
    outer loop
      vertex 132.873 2.5 18.7083
      vertex 140 2.5 12
      vertex 132.822 2.5 18.6864
    endloop
  endfacet
  facet normal 0 1 0
    outer loop
      vertex 132.922 2.5 18.7332
      vertex 140 2.5 12
      vertex 132.873 2.5 18.7083
    endloop
  endfacet
  facet normal 0 1 0
    outer loop
      vertex 132.969 2.5 18.7612
      vertex 140 2.5 12
      vertex 132.922 2.5 18.7332
    endloop
  endfacet
  facet normal 0 1 0
    outer loop
      vertex 133.014 2.5 18.7921
      vertex 140 2.5 12
      vertex 132.969 2.5 18.7612
    endloop
  endfacet
  facet normal 0 1 0
    outer loop
      vertex 133.058 2.5 18.8258
      vertex 140 2.5 12
      vertex 133.014 2.5 18.7921
    endloop
  endfacet
  facet normal 0 1 0
    outer loop
      vertex 133.099 2.5 18.8622
      vertex 140 2.5 12
      vertex 133.058 2.5 18.8258
    endloop
  endfacet
  facet normal 0 1 0
    outer loop
      vertex 133.138 2.5 18.901
      vertex 140 2.5 12
      vertex 133.099 2.5 18.8622
    endloop
  endfacet
  facet normal 0 1 0
    outer loop
      vertex 133.174 2.5 18.9423
      vertex 140 2.5 12
      vertex 133.138 2.5 18.901
    endloop
  endfacet
  facet normal 0 1 0
    outer loop
      vertex 133.208 2.5 18.9857
      vertex 140 2.5 12
      vertex 133.174 2.5 18.9423
    endloop
  endfacet
  facet normal 0 1 -0
    outer loop
      vertex 132.457 2.5 20.3737
      vertex 125 2.5 27
      vertex 132.5 2.5 20.375
    endloop
  endfacet
  facet normal 0 1 -0
    outer loop
      vertex 132.445 2.5 20.3733
      vertex 125 2.5 27
      vertex 132.457 2.5 20.3737
    endloop
  endfacet
  facet normal 0 1 -0
    outer loop
      vertex 132.39 2.5 20.3681
      vertex 125 2.5 27
      vertex 132.445 2.5 20.3733
    endloop
  endfacet
  facet normal 0 1 -0
    outer loop
      vertex 132.336 2.5 20.3595
      vertex 125 2.5 27
      vertex 132.39 2.5 20.3681
    endloop
  endfacet
  facet normal 0 1 -0
    outer loop
      vertex 132.282 2.5 20.3475
      vertex 125 2.5 27
      vertex 132.336 2.5 20.3595
    endloop
  endfacet
  facet normal 0 1 -0
    outer loop
      vertex 132.23 2.5 20.3322
      vertex 125 2.5 27
      vertex 132.282 2.5 20.3475
    endloop
  endfacet
  facet normal 0 1 -0
    outer loop
      vertex 132.178 2.5 20.3136
      vertex 125 2.5 27
      vertex 132.23 2.5 20.3322
    endloop
  endfacet
  facet normal 0 1 -0
    outer loop
      vertex 132.127 2.5 20.2917
      vertex 125 2.5 27
      vertex 132.178 2.5 20.3136
    endloop
  endfacet
  facet normal 0 1 -0
    outer loop
      vertex 132.078 2.5 20.2668
      vertex 125 2.5 27
      vertex 132.127 2.5 20.2917
    endloop
  endfacet
  facet normal 0 1 -0
    outer loop
      vertex 132.031 2.5 20.2388
      vertex 125 2.5 27
      vertex 132.078 2.5 20.2668
    endloop
  endfacet
  facet normal 0 1 -0
    outer loop
      vertex 131.986 2.5 20.2079
      vertex 125 2.5 27
      vertex 132.031 2.5 20.2388
    endloop
  endfacet
  facet normal 0 1 -0
    outer loop
      vertex 131.942 2.5 20.1742
      vertex 125 2.5 27
      vertex 131.986 2.5 20.2079
    endloop
  endfacet
  facet normal 0 1 -0
    outer loop
      vertex 131.901 2.5 20.1378
      vertex 125 2.5 27
      vertex 131.942 2.5 20.1742
    endloop
  endfacet
  facet normal 0 1 -0
    outer loop
      vertex 131.862 2.5 20.099
      vertex 125 2.5 27
      vertex 131.901 2.5 20.1378
    endloop
  endfacet
  facet normal 0 1 -0
    outer loop
      vertex 131.826 2.5 20.0577
      vertex 125 2.5 27
      vertex 131.862 2.5 20.099
    endloop
  endfacet
  facet normal 0 1 -0
    outer loop
      vertex 131.792 2.5 20.0143
      vertex 125 2.5 27
      vertex 131.826 2.5 20.0577
    endloop
  endfacet
  facet normal 0 1 -0
    outer loop
      vertex 131.761 2.5 19.9688
      vertex 125 2.5 27
      vertex 131.792 2.5 20.0143
    endloop
  endfacet
  facet normal 0 1 -0
    outer loop
      vertex 131.733 2.5 19.9215
      vertex 125 2.5 27
      vertex 131.761 2.5 19.9688
    endloop
  endfacet
  facet normal 0 1 -0
    outer loop
      vertex 131.708 2.5 19.8726
      vertex 125 2.5 27
      vertex 131.733 2.5 19.9215
    endloop
  endfacet
  facet normal 0 1 -0
    outer loop
      vertex 131.686 2.5 19.8221
      vertex 125 2.5 27
      vertex 131.708 2.5 19.8726
    endloop
  endfacet
  facet normal 0 1 -0
    outer loop
      vertex 131.668 2.5 19.7704
      vertex 125 2.5 27
      vertex 131.686 2.5 19.8221
    endloop
  endfacet
  facet normal 0 1 -0
    outer loop
      vertex 131.652 2.5 19.7176
      vertex 125 2.5 27
      vertex 131.668 2.5 19.7704
    endloop
  endfacet
  facet normal 0 1 -0
    outer loop
      vertex 131.641 2.5 19.664
      vertex 125 2.5 27
      vertex 131.652 2.5 19.7176
    endloop
  endfacet
  facet normal 0 1 -0
    outer loop
      vertex 131.632 2.5 19.6097
      vertex 125 2.5 27
      vertex 131.641 2.5 19.664
    endloop
  endfacet
  facet normal 0 1 -0
    outer loop
      vertex 131.627 2.5 19.5549
      vertex 125 2.5 27
      vertex 131.632 2.5 19.6097
    endloop
  endfacet
  facet normal 0 1 -0
    outer loop
      vertex 131.625 2.5 19.5
      vertex 125 2.5 27
      vertex 131.627 2.5 19.5549
    endloop
  endfacet
  facet normal 0 1 0
    outer loop
      vertex 125 2.5 12
      vertex 131.625 2.5 19.5
      vertex 131.627 2.5 19.4451
    endloop
  endfacet
  facet normal 0 1 0
    outer loop
      vertex 125 2.5 12
      vertex 131.627 2.5 19.4451
      vertex 131.632 2.5 19.3903
    endloop
  endfacet
  facet normal 0 1 0
    outer loop
      vertex 125 2.5 12
      vertex 131.632 2.5 19.3903
      vertex 131.641 2.5 19.336
    endloop
  endfacet
  facet normal 0 1 0
    outer loop
      vertex 125 2.5 12
      vertex 131.641 2.5 19.336
      vertex 131.652 2.5 19.2824
    endloop
  endfacet
  facet normal 0 1 0
    outer loop
      vertex 125 2.5 12
      vertex 131.652 2.5 19.2824
      vertex 131.668 2.5 19.2296
    endloop
  endfacet
  facet normal 0 1 0
    outer loop
      vertex 125 2.5 12
      vertex 131.668 2.5 19.2296
      vertex 131.686 2.5 19.1779
    endloop
  endfacet
  facet normal 0 1 0
    outer loop
      vertex 125 2.5 12
      vertex 131.686 2.5 19.1779
      vertex 131.708 2.5 19.1274
    endloop
  endfacet
  facet normal 0 1 0
    outer loop
      vertex 125 2.5 12
      vertex 131.708 2.5 19.1274
      vertex 131.733 2.5 19.0785
    endloop
  endfacet
  facet normal 0 1 0
    outer loop
      vertex 125 2.5 12
      vertex 131.733 2.5 19.0785
      vertex 131.761 2.5 19.0312
    endloop
  endfacet
  facet normal 0 1 0
    outer loop
      vertex 125 2.5 12
      vertex 131.761 2.5 19.0312
      vertex 131.792 2.5 18.9857
    endloop
  endfacet
  facet normal 0 1 0
    outer loop
      vertex 125 2.5 12
      vertex 131.792 2.5 18.9857
      vertex 131.826 2.5 18.9423
    endloop
  endfacet
  facet normal 0 1 0
    outer loop
      vertex 125 2.5 12
      vertex 132.5 2.5 18.625
      vertex 140 2.5 12
    endloop
  endfacet
  facet normal 0 1 0
    outer loop
      vertex 132.5 2.5 18.625
      vertex 125 2.5 12
      vertex 132.488 2.5 18.6254
    endloop
  endfacet
  facet normal 0 1 0
    outer loop
      vertex 132.488 2.5 18.6254
      vertex 125 2.5 12
      vertex 132.445 2.5 18.6267
    endloop
  endfacet
  facet normal 0 1 0
    outer loop
      vertex 132.445 2.5 18.6267
      vertex 125 2.5 12
      vertex 132.39 2.5 18.6319
    endloop
  endfacet
  facet normal 0 1 0
    outer loop
      vertex 132.39 2.5 18.6319
      vertex 125 2.5 12
      vertex 132.336 2.5 18.6405
    endloop
  endfacet
  facet normal 0 1 0
    outer loop
      vertex 132.336 2.5 18.6405
      vertex 125 2.5 12
      vertex 132.282 2.5 18.6525
    endloop
  endfacet
  facet normal 0 1 0
    outer loop
      vertex 132.282 2.5 18.6525
      vertex 125 2.5 12
      vertex 132.23 2.5 18.6678
    endloop
  endfacet
  facet normal 0 1 0
    outer loop
      vertex 132.23 2.5 18.6678
      vertex 125 2.5 12
      vertex 132.178 2.5 18.6864
    endloop
  endfacet
  facet normal 0 1 0
    outer loop
      vertex 132.178 2.5 18.6864
      vertex 125 2.5 12
      vertex 132.127 2.5 18.7083
    endloop
  endfacet
  facet normal 0 1 0
    outer loop
      vertex 132.127 2.5 18.7083
      vertex 125 2.5 12
      vertex 132.078 2.5 18.7332
    endloop
  endfacet
  facet normal 0 1 0
    outer loop
      vertex 132.078 2.5 18.7332
      vertex 125 2.5 12
      vertex 132.031 2.5 18.7612
    endloop
  endfacet
  facet normal 0 1 0
    outer loop
      vertex 132.031 2.5 18.7612
      vertex 125 2.5 12
      vertex 131.986 2.5 18.7921
    endloop
  endfacet
  facet normal 0 1 0
    outer loop
      vertex 131.625 2.5 19.5
      vertex 125 2.5 12
      vertex 125 2.5 27
    endloop
  endfacet
  facet normal 0 1 0
    outer loop
      vertex 131.862 2.5 18.901
      vertex 125 2.5 12
      vertex 131.826 2.5 18.9423
    endloop
  endfacet
  facet normal 0 1 0
    outer loop
      vertex 131.901 2.5 18.8622
      vertex 125 2.5 12
      vertex 131.862 2.5 18.901
    endloop
  endfacet
  facet normal 0 1 0
    outer loop
      vertex 131.942 2.5 18.8258
      vertex 125 2.5 12
      vertex 131.901 2.5 18.8622
    endloop
  endfacet
  facet normal 0 1 0
    outer loop
      vertex 131.986 2.5 18.7921
      vertex 125 2.5 12
      vertex 131.942 2.5 18.8258
    endloop
  endfacet
  facet normal 0 0 1
    outer loop
      vertex 275 26.7 12
      vertex 140 2.5 12
      vertex 275 -26.7 12
    endloop
  endfacet
  facet normal -0 0 1
    outer loop
      vertex 125 26.7 12
      vertex 140 2.5 12
      vertex 275 26.7 12
    endloop
  endfacet
  facet normal 0 0 1
    outer loop
      vertex 140 2.5 12
      vertex 125 26.7 12
      vertex 125 2.5 12
    endloop
  endfacet
  facet normal -0 0 1
    outer loop
      vertex 140 -2.5 12
      vertex 275 -26.7 12
      vertex 140 2.5 12
    endloop
  endfacet
  facet normal 0 0 1
    outer loop
      vertex 125 -26.7 12
      vertex 140 -2.5 12
      vertex 125 -2.5 12
    endloop
  endfacet
  facet normal 0 0 1
    outer loop
      vertex 140 -2.5 12
      vertex 125 -26.7 12
      vertex 275 -26.7 12
    endloop
  endfacet
  facet normal 0 -1 0
    outer loop
      vertex 125 -2.5 27
      vertex 132.5 -2.5 20.375
      vertex 140 -2.5 27
    endloop
  endfacet
  facet normal 0 -1 0
    outer loop
      vertex 125 -2.5 27
      vertex 132.488 -2.5 20.3746
      vertex 132.5 -2.5 20.375
    endloop
  endfacet
  facet normal 0 -1 0
    outer loop
      vertex 125 -2.5 27
      vertex 132.445 -2.5 20.3733
      vertex 132.488 -2.5 20.3746
    endloop
  endfacet
  facet normal 0 -1 0
    outer loop
      vertex 125 -2.5 27
      vertex 132.39 -2.5 20.3681
      vertex 132.445 -2.5 20.3733
    endloop
  endfacet
  facet normal 0 -1 0
    outer loop
      vertex 125 -2.5 27
      vertex 132.336 -2.5 20.3595
      vertex 132.39 -2.5 20.3681
    endloop
  endfacet
  facet normal 0 -1 0
    outer loop
      vertex 125 -2.5 27
      vertex 132.282 -2.5 20.3475
      vertex 132.336 -2.5 20.3595
    endloop
  endfacet
  facet normal 0 -1 0
    outer loop
      vertex 125 -2.5 27
      vertex 132.23 -2.5 20.3322
      vertex 132.282 -2.5 20.3475
    endloop
  endfacet
  facet normal 0 -1 0
    outer loop
      vertex 125 -2.5 27
      vertex 132.178 -2.5 20.3136
      vertex 132.23 -2.5 20.3322
    endloop
  endfacet
  facet normal 0 -1 0
    outer loop
      vertex 125 -2.5 27
      vertex 132.127 -2.5 20.2917
      vertex 132.178 -2.5 20.3136
    endloop
  endfacet
  facet normal 0 -1 0
    outer loop
      vertex 125 -2.5 27
      vertex 132.078 -2.5 20.2668
      vertex 132.127 -2.5 20.2917
    endloop
  endfacet
  facet normal 0 -1 0
    outer loop
      vertex 125 -2.5 27
      vertex 132.031 -2.5 20.2388
      vertex 132.078 -2.5 20.2668
    endloop
  endfacet
  facet normal 0 -1 0
    outer loop
      vertex 125 -2.5 27
      vertex 131.986 -2.5 20.2079
      vertex 132.031 -2.5 20.2388
    endloop
  endfacet
  facet normal 0 -1 0
    outer loop
      vertex 125 -2.5 27
      vertex 131.942 -2.5 20.1742
      vertex 131.986 -2.5 20.2079
    endloop
  endfacet
  facet normal 0 -1 0
    outer loop
      vertex 125 -2.5 27
      vertex 131.901 -2.5 20.1378
      vertex 131.942 -2.5 20.1742
    endloop
  endfacet
  facet normal 0 -1 0
    outer loop
      vertex 125 -2.5 27
      vertex 131.862 -2.5 20.099
      vertex 131.901 -2.5 20.1378
    endloop
  endfacet
  facet normal 0 -1 0
    outer loop
      vertex 125 -2.5 27
      vertex 131.826 -2.5 20.0577
      vertex 131.862 -2.5 20.099
    endloop
  endfacet
  facet normal 0 -1 0
    outer loop
      vertex 125 -2.5 27
      vertex 131.792 -2.5 20.0143
      vertex 131.826 -2.5 20.0577
    endloop
  endfacet
  facet normal 0 -1 0
    outer loop
      vertex 125 -2.5 27
      vertex 131.761 -2.5 19.9688
      vertex 131.792 -2.5 20.0143
    endloop
  endfacet
  facet normal 0 -1 0
    outer loop
      vertex 125 -2.5 27
      vertex 131.733 -2.5 19.9215
      vertex 131.761 -2.5 19.9688
    endloop
  endfacet
  facet normal 0 -1 0
    outer loop
      vertex 125 -2.5 27
      vertex 131.708 -2.5 19.8726
      vertex 131.733 -2.5 19.9215
    endloop
  endfacet
  facet normal 0 -1 0
    outer loop
      vertex 125 -2.5 27
      vertex 131.686 -2.5 19.8221
      vertex 131.708 -2.5 19.8726
    endloop
  endfacet
  facet normal 0 -1 0
    outer loop
      vertex 125 -2.5 27
      vertex 131.668 -2.5 19.7704
      vertex 131.686 -2.5 19.8221
    endloop
  endfacet
  facet normal 0 -1 0
    outer loop
      vertex 125 -2.5 27
      vertex 131.652 -2.5 19.7176
      vertex 131.668 -2.5 19.7704
    endloop
  endfacet
  facet normal 0 -1 0
    outer loop
      vertex 125 -2.5 27
      vertex 131.641 -2.5 19.664
      vertex 131.652 -2.5 19.7176
    endloop
  endfacet
  facet normal 0 -1 0
    outer loop
      vertex 125 -2.5 27
      vertex 131.632 -2.5 19.6097
      vertex 131.641 -2.5 19.664
    endloop
  endfacet
  facet normal 0 -1 0
    outer loop
      vertex 125 -2.5 27
      vertex 131.627 -2.5 19.5549
      vertex 131.632 -2.5 19.6097
    endloop
  endfacet
  facet normal 0 -1 0
    outer loop
      vertex 125 -2.5 27
      vertex 131.625 -2.5 19.5
      vertex 131.627 -2.5 19.5549
    endloop
  endfacet
  facet normal 0 -1 0
    outer loop
      vertex 125 -2.5 12
      vertex 131.625 -2.5 19.5
      vertex 125 -2.5 27
    endloop
  endfacet
  facet normal 0 -1 -0
    outer loop
      vertex 131.625 -2.5 19.5
      vertex 125 -2.5 12
      vertex 131.627 -2.5 19.4451
    endloop
  endfacet
  facet normal 0 -1 -0
    outer loop
      vertex 131.627 -2.5 19.4451
      vertex 125 -2.5 12
      vertex 131.632 -2.5 19.3903
    endloop
  endfacet
  facet normal 0 -1 -0
    outer loop
      vertex 131.632 -2.5 19.3903
      vertex 125 -2.5 12
      vertex 131.641 -2.5 19.336
    endloop
  endfacet
  facet normal 0 -1 -0
    outer loop
      vertex 131.641 -2.5 19.336
      vertex 125 -2.5 12
      vertex 131.652 -2.5 19.2824
    endloop
  endfacet
  facet normal 0 -1 -0
    outer loop
      vertex 131.652 -2.5 19.2824
      vertex 125 -2.5 12
      vertex 131.668 -2.5 19.2296
    endloop
  endfacet
  facet normal 0 -1 -0
    outer loop
      vertex 131.668 -2.5 19.2296
      vertex 125 -2.5 12
      vertex 131.686 -2.5 19.1779
    endloop
  endfacet
  facet normal 0 -1 -0
    outer loop
      vertex 131.686 -2.5 19.1779
      vertex 125 -2.5 12
      vertex 131.708 -2.5 19.1274
    endloop
  endfacet
  facet normal 0 -1 -0
    outer loop
      vertex 131.708 -2.5 19.1274
      vertex 125 -2.5 12
      vertex 131.733 -2.5 19.0785
    endloop
  endfacet
  facet normal 0 -1 -0
    outer loop
      vertex 131.733 -2.5 19.0785
      vertex 125 -2.5 12
      vertex 131.761 -2.5 19.0312
    endloop
  endfacet
  facet normal 0 -1 -0
    outer loop
      vertex 131.761 -2.5 19.0312
      vertex 125 -2.5 12
      vertex 131.792 -2.5 18.9857
    endloop
  endfacet
  facet normal 0 -1 -0
    outer loop
      vertex 132.457 -2.5 18.6263
      vertex 125 -2.5 12
      vertex 132.5 -2.5 18.625
    endloop
  endfacet
  facet normal 0 -1 -0
    outer loop
      vertex 132.445 -2.5 18.6267
      vertex 125 -2.5 12
      vertex 132.457 -2.5 18.6263
    endloop
  endfacet
  facet normal 0 -1 -0
    outer loop
      vertex 132.39 -2.5 18.6319
      vertex 125 -2.5 12
      vertex 132.445 -2.5 18.6267
    endloop
  endfacet
  facet normal 0 -1 -0
    outer loop
      vertex 132.336 -2.5 18.6405
      vertex 125 -2.5 12
      vertex 132.39 -2.5 18.6319
    endloop
  endfacet
  facet normal 0 -1 -0
    outer loop
      vertex 132.282 -2.5 18.6525
      vertex 125 -2.5 12
      vertex 132.336 -2.5 18.6405
    endloop
  endfacet
  facet normal 0 -1 -0
    outer loop
      vertex 132.23 -2.5 18.6678
      vertex 125 -2.5 12
      vertex 132.282 -2.5 18.6525
    endloop
  endfacet
  facet normal 0 -1 -0
    outer loop
      vertex 132.178 -2.5 18.6864
      vertex 125 -2.5 12
      vertex 132.23 -2.5 18.6678
    endloop
  endfacet
  facet normal 0 -1 -0
    outer loop
      vertex 132.127 -2.5 18.7083
      vertex 125 -2.5 12
      vertex 132.178 -2.5 18.6864
    endloop
  endfacet
  facet normal 0 -1 -0
    outer loop
      vertex 132.078 -2.5 18.7332
      vertex 125 -2.5 12
      vertex 132.127 -2.5 18.7083
    endloop
  endfacet
  facet normal 0 -1 -0
    outer loop
      vertex 132.031 -2.5 18.7612
      vertex 125 -2.5 12
      vertex 132.078 -2.5 18.7332
    endloop
  endfacet
  facet normal 0 -1 -0
    outer loop
      vertex 131.986 -2.5 18.7921
      vertex 125 -2.5 12
      vertex 132.031 -2.5 18.7612
    endloop
  endfacet
  facet normal 0 -1 -0
    outer loop
      vertex 131.942 -2.5 18.8258
      vertex 125 -2.5 12
      vertex 131.986 -2.5 18.7921
    endloop
  endfacet
  facet normal 0 -1 -0
    outer loop
      vertex 131.901 -2.5 18.8622
      vertex 125 -2.5 12
      vertex 131.942 -2.5 18.8258
    endloop
  endfacet
  facet normal 0 -1 -0
    outer loop
      vertex 131.862 -2.5 18.901
      vertex 125 -2.5 12
      vertex 131.901 -2.5 18.8622
    endloop
  endfacet
  facet normal 0 -1 -0
    outer loop
      vertex 131.826 -2.5 18.9423
      vertex 125 -2.5 12
      vertex 131.862 -2.5 18.901
    endloop
  endfacet
  facet normal 0 -1 -0
    outer loop
      vertex 131.792 -2.5 18.9857
      vertex 125 -2.5 12
      vertex 131.826 -2.5 18.9423
    endloop
  endfacet
  facet normal 0 -1 0
    outer loop
      vertex 132.512 -2.5 20.3746
      vertex 140 -2.5 27
      vertex 132.5 -2.5 20.375
    endloop
  endfacet
  facet normal 0 -1 0
    outer loop
      vertex 132.555 -2.5 20.3733
      vertex 140 -2.5 27
      vertex 132.512 -2.5 20.3746
    endloop
  endfacet
  facet normal 0 -1 0
    outer loop
      vertex 132.61 -2.5 20.3681
      vertex 140 -2.5 27
      vertex 132.555 -2.5 20.3733
    endloop
  endfacet
  facet normal 0 -1 0
    outer loop
      vertex 132.664 -2.5 20.3595
      vertex 140 -2.5 27
      vertex 132.61 -2.5 20.3681
    endloop
  endfacet
  facet normal 0 -1 0
    outer loop
      vertex 132.718 -2.5 20.3475
      vertex 140 -2.5 27
      vertex 132.664 -2.5 20.3595
    endloop
  endfacet
  facet normal 0 -1 0
    outer loop
      vertex 132.77 -2.5 20.3322
      vertex 140 -2.5 27
      vertex 132.718 -2.5 20.3475
    endloop
  endfacet
  facet normal 0 -1 0
    outer loop
      vertex 132.822 -2.5 20.3136
      vertex 140 -2.5 27
      vertex 132.77 -2.5 20.3322
    endloop
  endfacet
  facet normal 0 -1 0
    outer loop
      vertex 132.873 -2.5 20.2917
      vertex 140 -2.5 27
      vertex 132.822 -2.5 20.3136
    endloop
  endfacet
  facet normal 0 -1 0
    outer loop
      vertex 132.922 -2.5 20.2668
      vertex 140 -2.5 27
      vertex 132.873 -2.5 20.2917
    endloop
  endfacet
  facet normal 0 -1 0
    outer loop
      vertex 132.969 -2.5 20.2388
      vertex 140 -2.5 27
      vertex 132.922 -2.5 20.2668
    endloop
  endfacet
  facet normal 0 -1 0
    outer loop
      vertex 133.014 -2.5 20.2079
      vertex 140 -2.5 27
      vertex 132.969 -2.5 20.2388
    endloop
  endfacet
  facet normal 0 -1 0
    outer loop
      vertex 133.058 -2.5 20.1742
      vertex 140 -2.5 27
      vertex 133.014 -2.5 20.2079
    endloop
  endfacet
  facet normal 0 -1 0
    outer loop
      vertex 133.099 -2.5 20.1378
      vertex 140 -2.5 27
      vertex 133.058 -2.5 20.1742
    endloop
  endfacet
  facet normal 0 -1 0
    outer loop
      vertex 133.138 -2.5 20.099
      vertex 140 -2.5 27
      vertex 133.099 -2.5 20.1378
    endloop
  endfacet
  facet normal 0 -1 0
    outer loop
      vertex 133.174 -2.5 20.0577
      vertex 140 -2.5 27
      vertex 133.138 -2.5 20.099
    endloop
  endfacet
  facet normal 0 -1 0
    outer loop
      vertex 133.208 -2.5 20.0143
      vertex 140 -2.5 27
      vertex 133.174 -2.5 20.0577
    endloop
  endfacet
  facet normal 0 -1 0
    outer loop
      vertex 133.239 -2.5 19.9688
      vertex 140 -2.5 27
      vertex 133.208 -2.5 20.0143
    endloop
  endfacet
  facet normal 0 -1 0
    outer loop
      vertex 133.267 -2.5 19.9215
      vertex 140 -2.5 27
      vertex 133.239 -2.5 19.9688
    endloop
  endfacet
  facet normal 0 -1 0
    outer loop
      vertex 133.292 -2.5 19.8726
      vertex 140 -2.5 27
      vertex 133.267 -2.5 19.9215
    endloop
  endfacet
  facet normal 0 -1 0
    outer loop
      vertex 133.314 -2.5 19.8221
      vertex 140 -2.5 27
      vertex 133.292 -2.5 19.8726
    endloop
  endfacet
  facet normal 0 -1 0
    outer loop
      vertex 133.332 -2.5 19.7704
      vertex 140 -2.5 27
      vertex 133.314 -2.5 19.8221
    endloop
  endfacet
  facet normal 0 -1 0
    outer loop
      vertex 133.348 -2.5 19.7176
      vertex 140 -2.5 27
      vertex 133.332 -2.5 19.7704
    endloop
  endfacet
  facet normal 0 -1 0
    outer loop
      vertex 133.359 -2.5 19.664
      vertex 140 -2.5 27
      vertex 133.348 -2.5 19.7176
    endloop
  endfacet
  facet normal 0 -1 0
    outer loop
      vertex 133.368 -2.5 19.6097
      vertex 140 -2.5 27
      vertex 133.359 -2.5 19.664
    endloop
  endfacet
  facet normal 0 -1 0
    outer loop
      vertex 133.373 -2.5 19.5549
      vertex 140 -2.5 27
      vertex 133.368 -2.5 19.6097
    endloop
  endfacet
  facet normal 0 -1 0
    outer loop
      vertex 133.375 -2.5 19.5
      vertex 140 -2.5 27
      vertex 133.373 -2.5 19.5549
    endloop
  endfacet
  facet normal 0 -1 0
    outer loop
      vertex 140 -2.5 12
      vertex 133.375 -2.5 19.5
      vertex 133.373 -2.5 19.4451
    endloop
  endfacet
  facet normal 0 -1 0
    outer loop
      vertex 140 -2.5 12
      vertex 133.373 -2.5 19.4451
      vertex 133.368 -2.5 19.3903
    endloop
  endfacet
  facet normal 0 -1 0
    outer loop
      vertex 140 -2.5 12
      vertex 133.368 -2.5 19.3903
      vertex 133.359 -2.5 19.336
    endloop
  endfacet
  facet normal 0 -1 0
    outer loop
      vertex 140 -2.5 12
      vertex 133.359 -2.5 19.336
      vertex 133.348 -2.5 19.2824
    endloop
  endfacet
  facet normal 0 -1 0
    outer loop
      vertex 140 -2.5 12
      vertex 133.348 -2.5 19.2824
      vertex 133.332 -2.5 19.2296
    endloop
  endfacet
  facet normal 0 -1 0
    outer loop
      vertex 140 -2.5 12
      vertex 133.332 -2.5 19.2296
      vertex 133.314 -2.5 19.1779
    endloop
  endfacet
  facet normal 0 -1 0
    outer loop
      vertex 140 -2.5 12
      vertex 133.314 -2.5 19.1779
      vertex 133.292 -2.5 19.1274
    endloop
  endfacet
  facet normal 0 -1 0
    outer loop
      vertex 140 -2.5 12
      vertex 133.292 -2.5 19.1274
      vertex 133.267 -2.5 19.0785
    endloop
  endfacet
  facet normal 0 -1 0
    outer loop
      vertex 140 -2.5 12
      vertex 133.267 -2.5 19.0785
      vertex 133.239 -2.5 19.0312
    endloop
  endfacet
  facet normal 0 -1 0
    outer loop
      vertex 140 -2.5 12
      vertex 133.239 -2.5 19.0312
      vertex 133.208 -2.5 18.9857
    endloop
  endfacet
  facet normal 0 -1 0
    outer loop
      vertex 140 -2.5 12
      vertex 133.208 -2.5 18.9857
      vertex 133.174 -2.5 18.9423
    endloop
  endfacet
  facet normal 0 -1 0
    outer loop
      vertex 140 -2.5 12
      vertex 132.5 -2.5 18.625
      vertex 125 -2.5 12
    endloop
  endfacet
  facet normal 0 -1 0
    outer loop
      vertex 132.5 -2.5 18.625
      vertex 140 -2.5 12
      vertex 132.543 -2.5 18.6263
    endloop
  endfacet
  facet normal 0 -1 0
    outer loop
      vertex 132.543 -2.5 18.6263
      vertex 140 -2.5 12
      vertex 132.555 -2.5 18.6267
    endloop
  endfacet
  facet normal 0 -1 0
    outer loop
      vertex 132.555 -2.5 18.6267
      vertex 140 -2.5 12
      vertex 132.61 -2.5 18.6319
    endloop
  endfacet
  facet normal 0 -1 0
    outer loop
      vertex 132.61 -2.5 18.6319
      vertex 140 -2.5 12
      vertex 132.664 -2.5 18.6405
    endloop
  endfacet
  facet normal 0 -1 0
    outer loop
      vertex 132.664 -2.5 18.6405
      vertex 140 -2.5 12
      vertex 132.718 -2.5 18.6525
    endloop
  endfacet
  facet normal 0 -1 0
    outer loop
      vertex 132.718 -2.5 18.6525
      vertex 140 -2.5 12
      vertex 132.77 -2.5 18.6678
    endloop
  endfacet
  facet normal 0 -1 0
    outer loop
      vertex 132.77 -2.5 18.6678
      vertex 140 -2.5 12
      vertex 132.822 -2.5 18.6864
    endloop
  endfacet
  facet normal 0 -1 0
    outer loop
      vertex 132.822 -2.5 18.6864
      vertex 140 -2.5 12
      vertex 132.873 -2.5 18.7083
    endloop
  endfacet
  facet normal 0 -1 0
    outer loop
      vertex 132.873 -2.5 18.7083
      vertex 140 -2.5 12
      vertex 132.922 -2.5 18.7332
    endloop
  endfacet
  facet normal 0 -1 0
    outer loop
      vertex 132.922 -2.5 18.7332
      vertex 140 -2.5 12
      vertex 132.969 -2.5 18.7612
    endloop
  endfacet
  facet normal 0 -1 0
    outer loop
      vertex 132.969 -2.5 18.7612
      vertex 140 -2.5 12
      vertex 133.014 -2.5 18.7921
    endloop
  endfacet
  facet normal 0 -1 0
    outer loop
      vertex 133.375 -2.5 19.5
      vertex 140 -2.5 12
      vertex 140 -2.5 27
    endloop
  endfacet
  facet normal 0 -1 0
    outer loop
      vertex 133.138 -2.5 18.901
      vertex 140 -2.5 12
      vertex 133.174 -2.5 18.9423
    endloop
  endfacet
  facet normal 0 -1 0
    outer loop
      vertex 133.099 -2.5 18.8622
      vertex 140 -2.5 12
      vertex 133.138 -2.5 18.901
    endloop
  endfacet
  facet normal 0 -1 0
    outer loop
      vertex 133.058 -2.5 18.8258
      vertex 140 -2.5 12
      vertex 133.099 -2.5 18.8622
    endloop
  endfacet
  facet normal 0 -1 0
    outer loop
      vertex 133.014 -2.5 18.7921
      vertex 140 -2.5 12
      vertex 133.058 -2.5 18.8258
    endloop
  endfacet
  facet normal -0.999508 0 -0.031368
    outer loop
      vertex 133.375 -2.5 19.5
      vertex 133.373 2.5 19.5549
      vertex 133.375 2.5 19.5
    endloop
  endfacet
  facet normal -0.999508 -0 -0.031368
    outer loop
      vertex 133.373 2.5 19.5549
      vertex 133.375 -2.5 19.5
      vertex 133.373 -2.5 19.5549
    endloop
  endfacet
  facet normal 0.0314464 1.49327e-07 -0.999505
    outer loop
      vertex 132.445 -2.5 20.3733
      vertex 132.457 2.5 20.3737
      vertex 132.488 -2.5 20.3746
    endloop
  endfacet
  facet normal 0.0315074 0 -0.999504
    outer loop
      vertex 132.457 2.5 20.3737
      vertex 132.445 -2.5 20.3733
      vertex 132.445 2.5 20.3733
    endloop
  endfacet
  facet normal -0.661192 0 -0.750216
    outer loop
      vertex 133.058 -2.5 20.1742
      vertex 133.099 2.5 20.1378
      vertex 133.099 -2.5 20.1378
    endloop
  endfacet
  facet normal -0.661192 0 -0.750216
    outer loop
      vertex 133.099 2.5 20.1378
      vertex 133.058 -2.5 20.1742
      vertex 133.058 2.5 20.1742
    endloop
  endfacet
  facet normal 0.707159 -0 0.707055
    outer loop
      vertex 131.862 -2.5 18.901
      vertex 131.901 2.5 18.8622
      vertex 131.862 2.5 18.901
    endloop
  endfacet
  facet normal 0.707159 0 0.707055
    outer loop
      vertex 131.901 2.5 18.8622
      vertex 131.862 -2.5 18.901
      vertex 131.901 -2.5 18.8622
    endloop
  endfacet
  facet normal 0.891057 -0 0.453891
    outer loop
      vertex 131.708 -2.5 19.1274
      vertex 131.733 2.5 19.0785
      vertex 131.708 2.5 19.1274
    endloop
  endfacet
  facet normal 0.891057 0 0.453891
    outer loop
      vertex 131.733 2.5 19.0785
      vertex 131.708 -2.5 19.1274
      vertex 131.733 -2.5 19.0785
    endloop
  endfacet
  facet normal -0.397146 0 0.917756
    outer loop
      vertex 132.822 2.5 18.6864
      vertex 132.873 -2.5 18.7083
      vertex 132.873 2.5 18.7083
    endloop
  endfacet
  facet normal -0.397146 0 0.917756
    outer loop
      vertex 132.873 -2.5 18.7083
      vertex 132.822 2.5 18.6864
      vertex 132.822 -2.5 18.6864
    endloop
  endfacet
  facet normal -0.156426 0 -0.98769
    outer loop
      vertex 132.61 -2.5 20.3681
      vertex 132.664 2.5 20.3595
      vertex 132.664 -2.5 20.3595
    endloop
  endfacet
  facet normal -0.156426 0 -0.98769
    outer loop
      vertex 132.664 2.5 20.3595
      vertex 132.61 -2.5 20.3681
      vertex 132.61 2.5 20.3681
    endloop
  endfacet
  facet normal -0.995562 0 -0.0941049
    outer loop
      vertex 133.373 -2.5 19.5549
      vertex 133.368 2.5 19.6097
      vertex 133.373 2.5 19.5549
    endloop
  endfacet
  facet normal -0.995562 -0 -0.0941049
    outer loop
      vertex 133.368 2.5 19.6097
      vertex 133.373 -2.5 19.5549
      vertex 133.368 -2.5 19.6097
    endloop
  endfacet
  facet normal -0.98767 0 0.156551
    outer loop
      vertex 133.359 -2.5 19.336
      vertex 133.368 2.5 19.3903
      vertex 133.359 2.5 19.336
    endloop
  endfacet
  facet normal -0.98767 0 0.156551
    outer loop
      vertex 133.368 2.5 19.3903
      vertex 133.359 -2.5 19.336
      vertex 133.368 -2.5 19.3903
    endloop
  endfacet
  facet normal 0.917723 -0 0.397221
    outer loop
      vertex 131.686 -2.5 19.1779
      vertex 131.708 2.5 19.1274
      vertex 131.686 2.5 19.1779
    endloop
  endfacet
  facet normal 0.917723 0 0.397221
    outer loop
      vertex 131.708 2.5 19.1274
      vertex 131.686 -2.5 19.1779
      vertex 131.708 -2.5 19.1274
    endloop
  endfacet
  facet normal 0.940907 0 -0.338665
    outer loop
      vertex 131.686 -2.5 19.8221
      vertex 131.668 2.5 19.7704
      vertex 131.686 2.5 19.8221
    endloop
  endfacet
  facet normal 0.940907 0 -0.338665
    outer loop
      vertex 131.668 2.5 19.7704
      vertex 131.686 -2.5 19.8221
      vertex 131.668 -2.5 19.7704
    endloop
  endfacet
  facet normal 0.860724 0 -0.509072
    outer loop
      vertex 131.761 -2.5 19.9688
      vertex 131.733 2.5 19.9215
      vertex 131.761 2.5 19.9688
    endloop
  endfacet
  facet normal 0.860724 0 -0.509072
    outer loop
      vertex 131.733 2.5 19.9215
      vertex 131.761 -2.5 19.9688
      vertex 131.733 -2.5 19.9215
    endloop
  endfacet
  facet normal 0.218132 0 -0.975919
    outer loop
      vertex 132.282 -2.5 20.3475
      vertex 132.336 2.5 20.3595
      vertex 132.336 -2.5 20.3595
    endloop
  endfacet
  facet normal 0.218132 0 -0.975919
    outer loop
      vertex 132.336 2.5 20.3595
      vertex 132.282 -2.5 20.3475
      vertex 132.282 2.5 20.3475
    endloop
  endfacet
  facet normal 0.827063 -0 0.562109
    outer loop
      vertex 131.761 -2.5 19.0312
      vertex 131.792 2.5 18.9857
      vertex 131.761 2.5 19.0312
    endloop
  endfacet
  facet normal 0.827063 0 0.562109
    outer loop
      vertex 131.792 2.5 18.9857
      vertex 131.761 -2.5 19.0312
      vertex 131.792 -2.5 18.9857
    endloop
  endfacet
  facet normal -0.156426 0 0.98769
    outer loop
      vertex 132.61 2.5 18.6319
      vertex 132.664 -2.5 18.6405
      vertex 132.664 2.5 18.6405
    endloop
  endfacet
  facet normal -0.156426 0 0.98769
    outer loop
      vertex 132.664 -2.5 18.6405
      vertex 132.61 2.5 18.6319
      vertex 132.61 -2.5 18.6319
    endloop
  endfacet
  facet normal 0.0314464 -1.49327e-07 0.999505
    outer loop
      vertex 132.445 2.5 18.6267
      vertex 132.457 -2.5 18.6263
      vertex 132.488 2.5 18.6254
    endloop
  endfacet
  facet normal 0.0315074 0 0.999504
    outer loop
      vertex 132.457 -2.5 18.6263
      vertex 132.445 2.5 18.6267
      vertex 132.445 -2.5 18.6267
    endloop
  endfacet
  facet normal -0.0313908 -1.90641e-07 -0.999507
    outer loop
      vertex 132.5 -2.5 20.375
      vertex 132.543 2.5 20.3737
      vertex 132.512 -2.5 20.3746
    endloop
  endfacet
  facet normal -0.0314131 0 -0.999506
    outer loop
      vertex 132.543 2.5 20.3737
      vertex 132.5 -2.5 20.375
      vertex 132.5 2.5 20.375
    endloop
  endfacet
  facet normal -0.827063 0 -0.562109
    outer loop
      vertex 133.239 -2.5 19.9688
      vertex 133.208 2.5 20.0143
      vertex 133.239 2.5 19.9688
    endloop
  endfacet
  facet normal -0.827063 -0 -0.562109
    outer loop
      vertex 133.208 2.5 20.0143
      vertex 133.239 -2.5 19.9688
      vertex 133.208 -2.5 20.0143
    endloop
  endfacet
  facet normal -0.891057 0 -0.453891
    outer loop
      vertex 133.292 -2.5 19.8726
      vertex 133.267 2.5 19.9215
      vertex 133.292 2.5 19.8726
    endloop
  endfacet
  facet normal -0.891057 -0 -0.453891
    outer loop
      vertex 133.267 2.5 19.9215
      vertex 133.292 -2.5 19.8726
      vertex 133.267 -2.5 19.9215
    endloop
  endfacet
  facet normal -0.960299 0 -0.278971
    outer loop
      vertex 133.348 -2.5 19.7176
      vertex 133.332 2.5 19.7704
      vertex 133.348 2.5 19.7176
    endloop
  endfacet
  facet normal -0.960299 -0 -0.278971
    outer loop
      vertex 133.332 2.5 19.7704
      vertex 133.348 -2.5 19.7176
      vertex 133.332 -2.5 19.7704
    endloop
  endfacet
  facet normal -0.917723 0 -0.397221
    outer loop
      vertex 133.314 -2.5 19.8221
      vertex 133.292 2.5 19.8726
      vertex 133.314 2.5 19.8221
    endloop
  endfacet
  facet normal -0.917723 -0 -0.397221
    outer loop
      vertex 133.292 2.5 19.8726
      vertex 133.314 -2.5 19.8221
      vertex 133.292 -2.5 19.8726
    endloop
  endfacet
  facet normal -0.975905 0 -0.218194
    outer loop
      vertex 133.359 -2.5 19.664
      vertex 133.348 2.5 19.7176
      vertex 133.359 2.5 19.664
    endloop
  endfacet
  facet normal -0.975905 -0 -0.218194
    outer loop
      vertex 133.348 2.5 19.7176
      vertex 133.359 -2.5 19.664
      vertex 133.348 -2.5 19.7176
    endloop
  endfacet
  facet normal 0.999508 0 -0.031368
    outer loop
      vertex 131.627 -2.5 19.5549
      vertex 131.625 2.5 19.5
      vertex 131.627 2.5 19.5549
    endloop
  endfacet
  facet normal 0.999508 0 -0.031368
    outer loop
      vertex 131.625 2.5 19.5
      vertex 131.627 -2.5 19.5549
      vertex 131.625 -2.5 19.5
    endloop
  endfacet
  facet normal 0.0941147 0 -0.995561
    outer loop
      vertex 132.39 -2.5 20.3681
      vertex 132.445 2.5 20.3733
      vertex 132.445 -2.5 20.3733
    endloop
  endfacet
  facet normal 0.0941147 0 -0.995561
    outer loop
      vertex 132.445 2.5 20.3733
      vertex 132.39 -2.5 20.3681
      vertex 132.39 2.5 20.3681
    endloop
  endfacet
  facet normal 0.790151 0 -0.612912
    outer loop
      vertex 131.826 -2.5 20.0577
      vertex 131.792 2.5 20.0143
      vertex 131.826 2.5 20.0577
    endloop
  endfacet
  facet normal 0.790151 0 -0.612912
    outer loop
      vertex 131.792 2.5 20.0143
      vertex 131.826 -2.5 20.0577
      vertex 131.792 -2.5 20.0143
    endloop
  endfacet
  facet normal 0.279008 0 -0.960289
    outer loop
      vertex 132.23 -2.5 20.3322
      vertex 132.282 2.5 20.3475
      vertex 132.282 -2.5 20.3475
    endloop
  endfacet
  facet normal 0.279008 0 -0.960289
    outer loop
      vertex 132.282 2.5 20.3475
      vertex 132.23 -2.5 20.3322
      vertex 132.23 2.5 20.3322
    endloop
  endfacet
  facet normal 0.397146 0 -0.917756
    outer loop
      vertex 132.127 -2.5 20.2917
      vertex 132.178 2.5 20.3136
      vertex 132.178 -2.5 20.3136
    endloop
  endfacet
  facet normal 0.397146 0 -0.917756
    outer loop
      vertex 132.178 2.5 20.3136
      vertex 132.127 -2.5 20.2917
      vertex 132.127 2.5 20.2917
    endloop
  endfacet
  facet normal 0.562021 0 -0.827123
    outer loop
      vertex 131.986 -2.5 20.2079
      vertex 132.031 2.5 20.2388
      vertex 132.031 -2.5 20.2388
    endloop
  endfacet
  facet normal 0.562021 0 -0.827123
    outer loop
      vertex 132.031 2.5 20.2388
      vertex 131.986 -2.5 20.2079
      vertex 131.986 2.5 20.2079
    endloop
  endfacet
  facet normal -0.0941147 0 0.995561
    outer loop
      vertex 132.555 2.5 18.6267
      vertex 132.61 -2.5 18.6319
      vertex 132.61 2.5 18.6319
    endloop
  endfacet
  facet normal -0.0941147 0 0.995561
    outer loop
      vertex 132.61 -2.5 18.6319
      vertex 132.555 2.5 18.6267
      vertex 132.555 -2.5 18.6267
    endloop
  endfacet
  facet normal -0.0313908 1.90641e-07 0.999507
    outer loop
      vertex 132.5 2.5 18.625
      vertex 132.543 -2.5 18.6263
      vertex 132.512 2.5 18.6254
    endloop
  endfacet
  facet normal -0.0314131 0 0.999506
    outer loop
      vertex 132.543 -2.5 18.6263
      vertex 132.5 2.5 18.625
      vertex 132.5 -2.5 18.625
    endloop
  endfacet
  facet normal 0.156426 0 0.98769
    outer loop
      vertex 132.336 2.5 18.6405
      vertex 132.39 -2.5 18.6319
      vertex 132.39 2.5 18.6319
    endloop
  endfacet
  facet normal 0.156426 0 0.98769
    outer loop
      vertex 132.39 -2.5 18.6319
      vertex 132.336 2.5 18.6405
      vertex 132.336 -2.5 18.6405
    endloop
  endfacet
  facet normal 0.0941147 0 0.995561
    outer loop
      vertex 132.39 2.5 18.6319
      vertex 132.445 -2.5 18.6267
      vertex 132.445 2.5 18.6267
    endloop
  endfacet
  facet normal 0.0941147 0 0.995561
    outer loop
      vertex 132.445 -2.5 18.6267
      vertex 132.39 2.5 18.6319
      vertex 132.39 -2.5 18.6319
    endloop
  endfacet
  facet normal 0.612979 0 0.790099
    outer loop
      vertex 131.942 2.5 18.8258
      vertex 131.986 -2.5 18.7921
      vertex 131.986 2.5 18.7921
    endloop
  endfacet
  facet normal 0.612979 0 0.790099
    outer loop
      vertex 131.986 -2.5 18.7921
      vertex 131.942 2.5 18.8258
      vertex 131.942 -2.5 18.8258
    endloop
  endfacet
  facet normal 0.562021 0 0.827123
    outer loop
      vertex 131.986 2.5 18.7921
      vertex 132.031 -2.5 18.7612
      vertex 132.031 2.5 18.7612
    endloop
  endfacet
  facet normal 0.562021 0 0.827123
    outer loop
      vertex 132.031 -2.5 18.7612
      vertex 131.986 2.5 18.7921
      vertex 131.986 -2.5 18.7921
    endloop
  endfacet
  facet normal 0.509127 0 0.860692
    outer loop
      vertex 132.031 2.5 18.7612
      vertex 132.078 -2.5 18.7332
      vertex 132.078 2.5 18.7332
    endloop
  endfacet
  facet normal 0.509127 0 0.860692
    outer loop
      vertex 132.078 -2.5 18.7332
      vertex 132.031 2.5 18.7612
      vertex 132.031 -2.5 18.7612
    endloop
  endfacet
  facet normal 0.279008 0 0.960289
    outer loop
      vertex 132.23 2.5 18.6678
      vertex 132.282 -2.5 18.6525
      vertex 132.282 2.5 18.6525
    endloop
  endfacet
  facet normal 0.279008 0 0.960289
    outer loop
      vertex 132.282 -2.5 18.6525
      vertex 132.23 2.5 18.6678
      vertex 132.23 -2.5 18.6678
    endloop
  endfacet
  facet normal 0.218132 0 0.975919
    outer loop
      vertex 132.282 2.5 18.6525
      vertex 132.336 -2.5 18.6405
      vertex 132.336 2.5 18.6405
    endloop
  endfacet
  facet normal 0.218132 0 0.975919
    outer loop
      vertex 132.336 -2.5 18.6405
      vertex 132.282 2.5 18.6525
      vertex 132.282 -2.5 18.6525
    endloop
  endfacet
  facet normal 0.453974 0 0.891015
    outer loop
      vertex 132.078 2.5 18.7332
      vertex 132.127 -2.5 18.7083
      vertex 132.127 2.5 18.7083
    endloop
  endfacet
  facet normal 0.453974 0 0.891015
    outer loop
      vertex 132.127 -2.5 18.7083
      vertex 132.078 2.5 18.7332
      vertex 132.078 -2.5 18.7332
    endloop
  endfacet
  facet normal -0.750145 0 0.661274
    outer loop
      vertex 133.138 -2.5 18.901
      vertex 133.174 2.5 18.9423
      vertex 133.138 2.5 18.901
    endloop
  endfacet
  facet normal -0.750145 0 0.661274
    outer loop
      vertex 133.174 2.5 18.9423
      vertex 133.138 -2.5 18.901
      vertex 133.174 -2.5 18.9423
    endloop
  endfacet
  facet normal -0.612979 0 0.790099
    outer loop
      vertex 133.014 2.5 18.7921
      vertex 133.058 -2.5 18.8258
      vertex 133.058 2.5 18.8258
    endloop
  endfacet
  facet normal -0.612979 0 0.790099
    outer loop
      vertex 133.058 -2.5 18.8258
      vertex 133.014 2.5 18.7921
      vertex 133.014 -2.5 18.7921
    endloop
  endfacet
  facet normal -0.860724 0 0.509072
    outer loop
      vertex 133.239 -2.5 19.0312
      vertex 133.267 2.5 19.0785
      vertex 133.239 2.5 19.0312
    endloop
  endfacet
  facet normal -0.860724 0 0.509072
    outer loop
      vertex 133.267 2.5 19.0785
      vertex 133.239 -2.5 19.0312
      vertex 133.267 -2.5 19.0785
    endloop
  endfacet
  facet normal -0.960299 0 0.278971
    outer loop
      vertex 133.332 -2.5 19.2296
      vertex 133.348 2.5 19.2824
      vertex 133.332 2.5 19.2296
    endloop
  endfacet
  facet normal -0.960299 0 0.278971
    outer loop
      vertex 133.348 2.5 19.2824
      vertex 133.332 -2.5 19.2296
      vertex 133.348 -2.5 19.2824
    endloop
  endfacet
  facet normal -0.975905 0 0.218194
    outer loop
      vertex 133.348 -2.5 19.2824
      vertex 133.359 2.5 19.336
      vertex 133.348 2.5 19.2824
    endloop
  endfacet
  facet normal -0.975905 0 0.218194
    outer loop
      vertex 133.359 2.5 19.336
      vertex 133.348 -2.5 19.2824
      vertex 133.359 -2.5 19.336
    endloop
  endfacet
  facet normal -0.562021 0 -0.827123
    outer loop
      vertex 132.969 -2.5 20.2388
      vertex 133.014 2.5 20.2079
      vertex 133.014 -2.5 20.2079
    endloop
  endfacet
  facet normal -0.562021 0 -0.827123
    outer loop
      vertex 133.014 2.5 20.2079
      vertex 132.969 -2.5 20.2388
      vertex 132.969 2.5 20.2388
    endloop
  endfacet
  facet normal -0.338713 0 -0.94089
    outer loop
      vertex 132.77 -2.5 20.3322
      vertex 132.822 2.5 20.3136
      vertex 132.822 -2.5 20.3136
    endloop
  endfacet
  facet normal -0.338713 0 -0.94089
    outer loop
      vertex 132.822 2.5 20.3136
      vertex 132.77 -2.5 20.3322
      vertex 132.77 2.5 20.3322
    endloop
  endfacet
  facet normal -0.218132 0 -0.975919
    outer loop
      vertex 132.664 -2.5 20.3595
      vertex 132.718 2.5 20.3475
      vertex 132.718 -2.5 20.3475
    endloop
  endfacet
  facet normal -0.218132 0 -0.975919
    outer loop
      vertex 132.718 2.5 20.3475
      vertex 132.664 -2.5 20.3595
      vertex 132.664 2.5 20.3595
    endloop
  endfacet
  facet normal 0.0313908 0 -0.999507
    outer loop
      vertex 132.488 -2.5 20.3746
      vertex 132.5 2.5 20.375
      vertex 132.5 -2.5 20.375
    endloop
  endfacet
  facet normal 0.0314131 -5.44688e-08 -0.999506
    outer loop
      vertex 132.5 2.5 20.375
      vertex 132.488 -2.5 20.3746
      vertex 132.457 2.5 20.3737
    endloop
  endfacet
  facet normal -0.860724 0 -0.509072
    outer loop
      vertex 133.267 -2.5 19.9215
      vertex 133.239 2.5 19.9688
      vertex 133.267 2.5 19.9215
    endloop
  endfacet
  facet normal -0.860724 -0 -0.509072
    outer loop
      vertex 133.239 2.5 19.9688
      vertex 133.267 -2.5 19.9215
      vertex 133.239 -2.5 19.9688
    endloop
  endfacet
  facet normal -0.940907 0 -0.338665
    outer loop
      vertex 133.332 -2.5 19.7704
      vertex 133.314 2.5 19.8221
      vertex 133.332 2.5 19.7704
    endloop
  endfacet
  facet normal -0.940907 -0 -0.338665
    outer loop
      vertex 133.314 2.5 19.8221
      vertex 133.332 -2.5 19.7704
      vertex 133.314 -2.5 19.8221
    endloop
  endfacet
  facet normal -0.98767 0 -0.156551
    outer loop
      vertex 133.368 -2.5 19.6097
      vertex 133.359 2.5 19.664
      vertex 133.368 2.5 19.6097
    endloop
  endfacet
  facet normal -0.98767 -0 -0.156551
    outer loop
      vertex 133.359 2.5 19.664
      vertex 133.368 -2.5 19.6097
      vertex 133.359 -2.5 19.664
    endloop
  endfacet
  facet normal 0.975905 -0 0.218194
    outer loop
      vertex 131.641 -2.5 19.336
      vertex 131.652 2.5 19.2824
      vertex 131.641 2.5 19.336
    endloop
  endfacet
  facet normal 0.975905 0 0.218194
    outer loop
      vertex 131.652 2.5 19.2824
      vertex 131.641 -2.5 19.336
      vertex 131.652 -2.5 19.2824
    endloop
  endfacet
  facet normal 0.999508 -0 0.031368
    outer loop
      vertex 131.625 -2.5 19.5
      vertex 131.627 2.5 19.4451
      vertex 131.625 2.5 19.5
    endloop
  endfacet
  facet normal 0.999508 0 0.031368
    outer loop
      vertex 131.627 2.5 19.4451
      vertex 131.625 -2.5 19.5
      vertex 131.627 -2.5 19.4451
    endloop
  endfacet
  facet normal 0.98767 0 -0.156551
    outer loop
      vertex 131.641 -2.5 19.664
      vertex 131.632 2.5 19.6097
      vertex 131.641 2.5 19.664
    endloop
  endfacet
  facet normal 0.98767 0 -0.156551
    outer loop
      vertex 131.632 2.5 19.6097
      vertex 131.641 -2.5 19.664
      vertex 131.632 -2.5 19.6097
    endloop
  endfacet
  facet normal 0.960299 0 -0.278971
    outer loop
      vertex 131.668 -2.5 19.7704
      vertex 131.652 2.5 19.7176
      vertex 131.668 2.5 19.7704
    endloop
  endfacet
  facet normal 0.960299 0 -0.278971
    outer loop
      vertex 131.652 2.5 19.7176
      vertex 131.668 -2.5 19.7704
      vertex 131.652 -2.5 19.7176
    endloop
  endfacet
  facet normal 0.156426 0 -0.98769
    outer loop
      vertex 132.336 -2.5 20.3595
      vertex 132.39 2.5 20.3681
      vertex 132.39 -2.5 20.3681
    endloop
  endfacet
  facet normal 0.156426 0 -0.98769
    outer loop
      vertex 132.39 2.5 20.3681
      vertex 132.336 -2.5 20.3595
      vertex 132.336 2.5 20.3595
    endloop
  endfacet
  facet normal -0.0315074 0 0.999504
    outer loop
      vertex 132.555 2.5 18.6267
      vertex 132.543 -2.5 18.6263
      vertex 132.555 -2.5 18.6267
    endloop
  endfacet
  facet normal -0.0314464 -1.49327e-07 0.999505
    outer loop
      vertex 132.543 -2.5 18.6263
      vertex 132.555 2.5 18.6267
      vertex 132.512 2.5 18.6254
    endloop
  endfacet
  facet normal 0.0313908 0 0.999507
    outer loop
      vertex 132.488 2.5 18.6254
      vertex 132.5 -2.5 18.625
      vertex 132.5 2.5 18.625
    endloop
  endfacet
  facet normal 0.0314131 5.44688e-08 0.999506
    outer loop
      vertex 132.5 -2.5 18.625
      vertex 132.488 2.5 18.6254
      vertex 132.457 -2.5 18.6263
    endloop
  endfacet
  facet normal 0.661192 0 0.750216
    outer loop
      vertex 131.901 2.5 18.8622
      vertex 131.942 -2.5 18.8258
      vertex 131.942 2.5 18.8258
    endloop
  endfacet
  facet normal 0.661192 0 0.750216
    outer loop
      vertex 131.942 -2.5 18.8258
      vertex 131.901 2.5 18.8622
      vertex 131.901 -2.5 18.8622
    endloop
  endfacet
  facet normal -0.790151 0 0.612912
    outer loop
      vertex 133.174 -2.5 18.9423
      vertex 133.208 2.5 18.9857
      vertex 133.174 2.5 18.9423
    endloop
  endfacet
  facet normal -0.790151 0 0.612912
    outer loop
      vertex 133.208 2.5 18.9857
      vertex 133.174 -2.5 18.9423
      vertex 133.208 -2.5 18.9857
    endloop
  endfacet
  facet normal -0.827063 0 0.562109
    outer loop
      vertex 133.208 -2.5 18.9857
      vertex 133.239 2.5 19.0312
      vertex 133.208 2.5 18.9857
    endloop
  endfacet
  facet normal -0.827063 0 0.562109
    outer loop
      vertex 133.239 2.5 19.0312
      vertex 133.208 -2.5 18.9857
      vertex 133.239 -2.5 19.0312
    endloop
  endfacet
  facet normal -0.661192 0 0.750216
    outer loop
      vertex 133.058 2.5 18.8258
      vertex 133.099 -2.5 18.8622
      vertex 133.099 2.5 18.8622
    endloop
  endfacet
  facet normal -0.661192 0 0.750216
    outer loop
      vertex 133.099 -2.5 18.8622
      vertex 133.058 2.5 18.8258
      vertex 133.058 -2.5 18.8258
    endloop
  endfacet
  facet normal -0.453974 0 0.891015
    outer loop
      vertex 132.873 2.5 18.7083
      vertex 132.922 -2.5 18.7332
      vertex 132.922 2.5 18.7332
    endloop
  endfacet
  facet normal -0.453974 0 0.891015
    outer loop
      vertex 132.922 -2.5 18.7332
      vertex 132.873 2.5 18.7083
      vertex 132.873 -2.5 18.7083
    endloop
  endfacet
  facet normal -0.509127 0 0.860692
    outer loop
      vertex 132.922 2.5 18.7332
      vertex 132.969 -2.5 18.7612
      vertex 132.969 2.5 18.7612
    endloop
  endfacet
  facet normal -0.509127 0 0.860692
    outer loop
      vertex 132.969 -2.5 18.7612
      vertex 132.922 2.5 18.7332
      vertex 132.922 -2.5 18.7332
    endloop
  endfacet
  facet normal -0.917723 0 0.397221
    outer loop
      vertex 133.292 -2.5 19.1274
      vertex 133.314 2.5 19.1779
      vertex 133.292 2.5 19.1274
    endloop
  endfacet
  facet normal -0.917723 0 0.397221
    outer loop
      vertex 133.314 2.5 19.1779
      vertex 133.292 -2.5 19.1274
      vertex 133.314 -2.5 19.1779
    endloop
  endfacet
  facet normal -0.940907 0 0.338665
    outer loop
      vertex 133.314 -2.5 19.1779
      vertex 133.332 2.5 19.2296
      vertex 133.314 2.5 19.1779
    endloop
  endfacet
  facet normal -0.940907 0 0.338665
    outer loop
      vertex 133.332 2.5 19.2296
      vertex 133.314 -2.5 19.1779
      vertex 133.332 -2.5 19.2296
    endloop
  endfacet
  facet normal -0.891057 0 0.453891
    outer loop
      vertex 133.267 -2.5 19.0785
      vertex 133.292 2.5 19.1274
      vertex 133.267 2.5 19.0785
    endloop
  endfacet
  facet normal -0.891057 0 0.453891
    outer loop
      vertex 133.292 2.5 19.1274
      vertex 133.267 -2.5 19.0785
      vertex 133.292 -2.5 19.1274
    endloop
  endfacet
  facet normal -0.995562 0 0.0941049
    outer loop
      vertex 133.368 -2.5 19.3903
      vertex 133.373 2.5 19.4451
      vertex 133.368 2.5 19.3903
    endloop
  endfacet
  facet normal -0.995562 0 0.0941049
    outer loop
      vertex 133.373 2.5 19.4451
      vertex 133.368 -2.5 19.3903
      vertex 133.373 -2.5 19.4451
    endloop
  endfacet
  facet normal -0.999508 0 0.031368
    outer loop
      vertex 133.373 -2.5 19.4451
      vertex 133.375 2.5 19.5
      vertex 133.373 2.5 19.4451
    endloop
  endfacet
  facet normal -0.999508 0 0.031368
    outer loop
      vertex 133.375 2.5 19.5
      vertex 133.373 -2.5 19.4451
      vertex 133.375 -2.5 19.5
    endloop
  endfacet
  facet normal -0.612979 0 -0.790099
    outer loop
      vertex 133.014 -2.5 20.2079
      vertex 133.058 2.5 20.1742
      vertex 133.058 -2.5 20.1742
    endloop
  endfacet
  facet normal -0.612979 0 -0.790099
    outer loop
      vertex 133.058 2.5 20.1742
      vertex 133.014 -2.5 20.2079
      vertex 133.014 2.5 20.2079
    endloop
  endfacet
  facet normal -0.509127 0 -0.860692
    outer loop
      vertex 132.922 -2.5 20.2668
      vertex 132.969 2.5 20.2388
      vertex 132.969 -2.5 20.2388
    endloop
  endfacet
  facet normal -0.509127 0 -0.860692
    outer loop
      vertex 132.969 2.5 20.2388
      vertex 132.922 -2.5 20.2668
      vertex 132.922 2.5 20.2668
    endloop
  endfacet
  facet normal -0.279008 0 -0.960289
    outer loop
      vertex 132.718 -2.5 20.3475
      vertex 132.77 2.5 20.3322
      vertex 132.77 -2.5 20.3322
    endloop
  endfacet
  facet normal -0.279008 0 -0.960289
    outer loop
      vertex 132.77 2.5 20.3322
      vertex 132.718 -2.5 20.3475
      vertex 132.718 2.5 20.3475
    endloop
  endfacet
  facet normal -0.0941147 0 -0.995561
    outer loop
      vertex 132.555 -2.5 20.3733
      vertex 132.61 2.5 20.3681
      vertex 132.61 -2.5 20.3681
    endloop
  endfacet
  facet normal -0.0941147 0 -0.995561
    outer loop
      vertex 132.61 2.5 20.3681
      vertex 132.555 -2.5 20.3733
      vertex 132.555 2.5 20.3733
    endloop
  endfacet
  facet normal -0.0315074 0 -0.999504
    outer loop
      vertex 132.555 -2.5 20.3733
      vertex 132.543 2.5 20.3737
      vertex 132.555 2.5 20.3733
    endloop
  endfacet
  facet normal -0.0314464 1.49327e-07 -0.999505
    outer loop
      vertex 132.543 2.5 20.3737
      vertex 132.555 -2.5 20.3733
      vertex 132.512 -2.5 20.3746
    endloop
  endfacet
  facet normal -0.790151 0 -0.612912
    outer loop
      vertex 133.208 -2.5 20.0143
      vertex 133.174 2.5 20.0577
      vertex 133.208 2.5 20.0143
    endloop
  endfacet
  facet normal -0.790151 -0 -0.612912
    outer loop
      vertex 133.174 2.5 20.0577
      vertex 133.208 -2.5 20.0143
      vertex 133.174 -2.5 20.0577
    endloop
  endfacet
  facet normal -0.750145 0 -0.661274
    outer loop
      vertex 133.174 -2.5 20.0577
      vertex 133.138 2.5 20.099
      vertex 133.174 2.5 20.0577
    endloop
  endfacet
  facet normal -0.750145 -0 -0.661274
    outer loop
      vertex 133.138 2.5 20.099
      vertex 133.174 -2.5 20.0577
      vertex 133.138 -2.5 20.099
    endloop
  endfacet
  facet normal -0.707159 0 -0.707055
    outer loop
      vertex 133.138 -2.5 20.099
      vertex 133.099 2.5 20.1378
      vertex 133.138 2.5 20.099
    endloop
  endfacet
  facet normal -0.707159 -0 -0.707055
    outer loop
      vertex 133.099 2.5 20.1378
      vertex 133.138 -2.5 20.099
      vertex 133.099 -2.5 20.1378
    endloop
  endfacet
  facet normal 0.940907 -0 0.338665
    outer loop
      vertex 131.668 -2.5 19.2296
      vertex 131.686 2.5 19.1779
      vertex 131.668 2.5 19.2296
    endloop
  endfacet
  facet normal 0.940907 0 0.338665
    outer loop
      vertex 131.686 2.5 19.1779
      vertex 131.668 -2.5 19.2296
      vertex 131.686 -2.5 19.1779
    endloop
  endfacet
  facet normal 0.960299 -0 0.278971
    outer loop
      vertex 131.652 -2.5 19.2824
      vertex 131.668 2.5 19.2296
      vertex 131.652 2.5 19.2824
    endloop
  endfacet
  facet normal 0.960299 0 0.278971
    outer loop
      vertex 131.668 2.5 19.2296
      vertex 131.652 -2.5 19.2824
      vertex 131.668 -2.5 19.2296
    endloop
  endfacet
  facet normal 0.995562 -0 0.0941049
    outer loop
      vertex 131.627 -2.5 19.4451
      vertex 131.632 2.5 19.3903
      vertex 131.627 2.5 19.4451
    endloop
  endfacet
  facet normal 0.995562 0 0.0941049
    outer loop
      vertex 131.632 2.5 19.3903
      vertex 131.627 -2.5 19.4451
      vertex 131.632 -2.5 19.3903
    endloop
  endfacet
  facet normal 0.98767 -0 0.156551
    outer loop
      vertex 131.632 -2.5 19.3903
      vertex 131.641 2.5 19.336
      vertex 131.632 2.5 19.3903
    endloop
  endfacet
  facet normal 0.98767 0 0.156551
    outer loop
      vertex 131.641 2.5 19.336
      vertex 131.632 -2.5 19.3903
      vertex 131.641 -2.5 19.336
    endloop
  endfacet
  facet normal 0.995562 0 -0.0941049
    outer loop
      vertex 131.632 -2.5 19.6097
      vertex 131.627 2.5 19.5549
      vertex 131.632 2.5 19.6097
    endloop
  endfacet
  facet normal 0.995562 0 -0.0941049
    outer loop
      vertex 131.627 2.5 19.5549
      vertex 131.632 -2.5 19.6097
      vertex 131.627 -2.5 19.5549
    endloop
  endfacet
  facet normal 0.975905 0 -0.218194
    outer loop
      vertex 131.652 -2.5 19.7176
      vertex 131.641 2.5 19.664
      vertex 131.652 2.5 19.7176
    endloop
  endfacet
  facet normal 0.975905 0 -0.218194
    outer loop
      vertex 131.641 2.5 19.664
      vertex 131.652 -2.5 19.7176
      vertex 131.641 -2.5 19.664
    endloop
  endfacet
  facet normal 0.750145 0 -0.661274
    outer loop
      vertex 131.862 -2.5 20.099
      vertex 131.826 2.5 20.0577
      vertex 131.862 2.5 20.099
    endloop
  endfacet
  facet normal 0.750145 0 -0.661274
    outer loop
      vertex 131.826 2.5 20.0577
      vertex 131.862 -2.5 20.099
      vertex 131.826 -2.5 20.0577
    endloop
  endfacet
  facet normal 0.827063 0 -0.562109
    outer loop
      vertex 131.792 -2.5 20.0143
      vertex 131.761 2.5 19.9688
      vertex 131.792 2.5 20.0143
    endloop
  endfacet
  facet normal 0.827063 0 -0.562109
    outer loop
      vertex 131.761 2.5 19.9688
      vertex 131.792 -2.5 20.0143
      vertex 131.761 -2.5 19.9688
    endloop
  endfacet
  facet normal 0.891057 0 -0.453891
    outer loop
      vertex 131.733 -2.5 19.9215
      vertex 131.708 2.5 19.8726
      vertex 131.733 2.5 19.9215
    endloop
  endfacet
  facet normal 0.891057 0 -0.453891
    outer loop
      vertex 131.708 2.5 19.8726
      vertex 131.733 -2.5 19.9215
      vertex 131.708 -2.5 19.8726
    endloop
  endfacet
  facet normal 0.917723 0 -0.397221
    outer loop
      vertex 131.708 -2.5 19.8726
      vertex 131.686 2.5 19.8221
      vertex 131.708 2.5 19.8726
    endloop
  endfacet
  facet normal 0.917723 0 -0.397221
    outer loop
      vertex 131.686 2.5 19.8221
      vertex 131.708 -2.5 19.8726
      vertex 131.686 -2.5 19.8221
    endloop
  endfacet
  facet normal 0.509127 0 -0.860692
    outer loop
      vertex 132.031 -2.5 20.2388
      vertex 132.078 2.5 20.2668
      vertex 132.078 -2.5 20.2668
    endloop
  endfacet
  facet normal 0.509127 0 -0.860692
    outer loop
      vertex 132.078 2.5 20.2668
      vertex 132.031 -2.5 20.2388
      vertex 132.031 2.5 20.2388
    endloop
  endfacet
  facet normal 0.338713 0 -0.94089
    outer loop
      vertex 132.178 -2.5 20.3136
      vertex 132.23 2.5 20.3322
      vertex 132.23 -2.5 20.3322
    endloop
  endfacet
  facet normal 0.338713 0 -0.94089
    outer loop
      vertex 132.23 2.5 20.3322
      vertex 132.178 -2.5 20.3136
      vertex 132.178 2.5 20.3136
    endloop
  endfacet
  facet normal 0.860724 -0 0.509072
    outer loop
      vertex 131.733 -2.5 19.0785
      vertex 131.761 2.5 19.0312
      vertex 131.733 2.5 19.0785
    endloop
  endfacet
  facet normal 0.860724 0 0.509072
    outer loop
      vertex 131.761 2.5 19.0312
      vertex 131.733 -2.5 19.0785
      vertex 131.761 -2.5 19.0312
    endloop
  endfacet
  facet normal 0.790151 -0 0.612912
    outer loop
      vertex 131.792 -2.5 18.9857
      vertex 131.826 2.5 18.9423
      vertex 131.792 2.5 18.9857
    endloop
  endfacet
  facet normal 0.790151 0 0.612912
    outer loop
      vertex 131.826 2.5 18.9423
      vertex 131.792 -2.5 18.9857
      vertex 131.826 -2.5 18.9423
    endloop
  endfacet
  facet normal 0.750145 -0 0.661274
    outer loop
      vertex 131.826 -2.5 18.9423
      vertex 131.862 2.5 18.901
      vertex 131.826 2.5 18.9423
    endloop
  endfacet
  facet normal 0.750145 0 0.661274
    outer loop
      vertex 131.862 2.5 18.901
      vertex 131.826 -2.5 18.9423
      vertex 131.862 -2.5 18.901
    endloop
  endfacet
  facet normal -0.218132 0 0.975919
    outer loop
      vertex 132.664 2.5 18.6405
      vertex 132.718 -2.5 18.6525
      vertex 132.718 2.5 18.6525
    endloop
  endfacet
  facet normal -0.218132 0 0.975919
    outer loop
      vertex 132.718 -2.5 18.6525
      vertex 132.664 2.5 18.6405
      vertex 132.664 -2.5 18.6405
    endloop
  endfacet
  facet normal -0.279008 0 0.960289
    outer loop
      vertex 132.718 2.5 18.6525
      vertex 132.77 -2.5 18.6678
      vertex 132.77 2.5 18.6678
    endloop
  endfacet
  facet normal -0.279008 0 0.960289
    outer loop
      vertex 132.77 -2.5 18.6678
      vertex 132.718 2.5 18.6525
      vertex 132.718 -2.5 18.6525
    endloop
  endfacet
  facet normal -0.338713 0 0.94089
    outer loop
      vertex 132.77 2.5 18.6678
      vertex 132.822 -2.5 18.6864
      vertex 132.822 2.5 18.6864
    endloop
  endfacet
  facet normal -0.338713 0 0.94089
    outer loop
      vertex 132.822 -2.5 18.6864
      vertex 132.77 2.5 18.6678
      vertex 132.77 -2.5 18.6678
    endloop
  endfacet
  facet normal 0.397146 0 0.917756
    outer loop
      vertex 132.127 2.5 18.7083
      vertex 132.178 -2.5 18.6864
      vertex 132.178 2.5 18.6864
    endloop
  endfacet
  facet normal 0.397146 0 0.917756
    outer loop
      vertex 132.178 -2.5 18.6864
      vertex 132.127 2.5 18.7083
      vertex 132.127 -2.5 18.7083
    endloop
  endfacet
  facet normal 0.338713 0 0.94089
    outer loop
      vertex 132.178 2.5 18.6864
      vertex 132.23 -2.5 18.6678
      vertex 132.23 2.5 18.6678
    endloop
  endfacet
  facet normal 0.338713 0 0.94089
    outer loop
      vertex 132.23 -2.5 18.6678
      vertex 132.178 2.5 18.6864
      vertex 132.178 -2.5 18.6864
    endloop
  endfacet
  facet normal -0.707159 0 0.707055
    outer loop
      vertex 133.099 -2.5 18.8622
      vertex 133.138 2.5 18.901
      vertex 133.099 2.5 18.8622
    endloop
  endfacet
  facet normal -0.707159 0 0.707055
    outer loop
      vertex 133.138 2.5 18.901
      vertex 133.099 -2.5 18.8622
      vertex 133.138 -2.5 18.901
    endloop
  endfacet
  facet normal -0.562021 0 0.827123
    outer loop
      vertex 132.969 2.5 18.7612
      vertex 133.014 -2.5 18.7921
      vertex 133.014 2.5 18.7921
    endloop
  endfacet
  facet normal -0.562021 0 0.827123
    outer loop
      vertex 133.014 -2.5 18.7921
      vertex 132.969 2.5 18.7612
      vertex 132.969 -2.5 18.7612
    endloop
  endfacet
  facet normal -0.397146 0 -0.917756
    outer loop
      vertex 132.822 -2.5 20.3136
      vertex 132.873 2.5 20.2917
      vertex 132.873 -2.5 20.2917
    endloop
  endfacet
  facet normal -0.397146 0 -0.917756
    outer loop
      vertex 132.873 2.5 20.2917
      vertex 132.822 -2.5 20.3136
      vertex 132.822 2.5 20.3136
    endloop
  endfacet
  facet normal -0.453974 0 -0.891015
    outer loop
      vertex 132.873 -2.5 20.2917
      vertex 132.922 2.5 20.2668
      vertex 132.922 -2.5 20.2668
    endloop
  endfacet
  facet normal -0.453974 0 -0.891015
    outer loop
      vertex 132.922 2.5 20.2668
      vertex 132.873 -2.5 20.2917
      vertex 132.873 2.5 20.2917
    endloop
  endfacet
  facet normal 0.612979 0 -0.790099
    outer loop
      vertex 131.942 -2.5 20.1742
      vertex 131.986 2.5 20.2079
      vertex 131.986 -2.5 20.2079
    endloop
  endfacet
  facet normal 0.612979 0 -0.790099
    outer loop
      vertex 131.986 2.5 20.2079
      vertex 131.942 -2.5 20.1742
      vertex 131.942 2.5 20.1742
    endloop
  endfacet
  facet normal 0.453974 0 -0.891015
    outer loop
      vertex 132.078 -2.5 20.2668
      vertex 132.127 2.5 20.2917
      vertex 132.127 -2.5 20.2917
    endloop
  endfacet
  facet normal 0.453974 0 -0.891015
    outer loop
      vertex 132.127 2.5 20.2917
      vertex 132.078 -2.5 20.2668
      vertex 132.078 2.5 20.2668
    endloop
  endfacet
  facet normal 0.707159 0 -0.707055
    outer loop
      vertex 131.901 -2.5 20.1378
      vertex 131.862 2.5 20.099
      vertex 131.901 2.5 20.1378
    endloop
  endfacet
  facet normal 0.707159 0 -0.707055
    outer loop
      vertex 131.862 2.5 20.099
      vertex 131.901 -2.5 20.1378
      vertex 131.862 -2.5 20.099
    endloop
  endfacet
  facet normal 0.661192 0 -0.750216
    outer loop
      vertex 131.901 -2.5 20.1378
      vertex 131.942 2.5 20.1742
      vertex 131.942 -2.5 20.1742
    endloop
  endfacet
  facet normal 0.661192 0 -0.750216
    outer loop
      vertex 131.942 2.5 20.1742
      vertex 131.901 -2.5 20.1378
      vertex 131.901 2.5 20.1378
    endloop
  endfacet
  facet normal 0 0 -1
    outer loop
      vertex 125 -26.7 0
      vertex 275 26.7 0
      vertex 275 -26.7 0
    endloop
  endfacet
  facet normal -0 0 -1
    outer loop
      vertex 275 26.7 0
      vertex 125 -26.7 0
      vertex 125 26.7 0
    endloop
  endfacet
  facet normal 1 -0 0
    outer loop
      vertex 275 -26.7 12
      vertex 275 26.7 0
      vertex 275 26.7 12
    endloop
  endfacet
  facet normal 1 0 0
    outer loop
      vertex 275 26.7 0
      vertex 275 -26.7 12
      vertex 275 -26.7 0
    endloop
  endfacet
  facet normal 0 -1 0
    outer loop
      vertex 125 -26.7 0
      vertex 275 -26.7 12
      vertex 125 -26.7 12
    endloop
  endfacet
  facet normal 0 -1 -0
    outer loop
      vertex 275 -26.7 12
      vertex 125 -26.7 0
      vertex 275 -26.7 0
    endloop
  endfacet
  facet normal 0 1 -0
    outer loop
      vertex 275 26.7 0
      vertex 125 26.7 12
      vertex 275 26.7 12
    endloop
  endfacet
  facet normal 0 1 0
    outer loop
      vertex 125 26.7 12
      vertex 275 26.7 0
      vertex 125 26.7 0
    endloop
  endfacet
endsolid OpenSCAD_Model
